<?xml version="1.0" encoding="utf-8"?>
<!-- Generator: Adobe Illustrator 24.3.0, SVG Export Plug-In . SVG Version: 6.00 Build 0)  -->
<svg version="1.1" id="Unit_circle_angles" xmlns:svg="http://www.w3.org/2000/svg"
	 xmlns="http://www.w3.org/2000/svg" xmlns:xlink="http://www.w3.org/1999/xlink" x="0px" y="0px" viewBox="0 0 720 720"
	 style="enable-background:new 0 0 720 720;" xml:space="preserve">
<style type="text/css">
	.st0{display:none;}
	.st1{display:inline;fill:none;stroke:#7E7E7E;stroke-width:0.44;}
	.st2{display:inline;fill:none;stroke:#7E7E7E;stroke-width:0.4355;}
	.st3{fill:none;stroke:#000000;stroke-width:1.74;}
	.st4{fill:none;stroke:#000000;stroke-width:2.8;}
	.st5{display:none;fill:#002080;}
	.st6{display:inline;fill:#002080;}
	.st7{display:inline;}
	.st8{fill:#002080;}
	.st9{font-family:'TimesNewRomanPSMT';}
	.st10{font-size:23px;}
	.st11{fill:none;stroke:#FF1200;stroke-width:6;}
	.st12{fill:none;stroke:#00DF3E;stroke-width:6;}
</style>
<path id="path14" d="M-255.1,2501.3L-255.1,2501.3L-255.1,2501.3z"/>
<path id="path16" d="M-255.1,2501.3L-255.1,2501.3L-255.1,2501.3z"/>
<g id="g3740" class="st0">
	<path id="path18" class="st1" d="M356.3,354.1l90.7-52.3"/>
	<path id="path20" class="st1" d="M479,283.2l30.2-17.4"/>
	<path id="path22" class="st1" d="M528.1,254.9l17-9.8"/>
</g>
<g id="g3775" class="st0">
	<path id="path48" class="st1" d="M356.3,354.1l-83.1-48"/>
	<path id="path50" class="st1" d="M233.5,283.2l-17.2-9.9"/>
	<path id="path52" class="st1" d="M182.5,253.8l-15.1-8.7"/>
</g>
<g id="g3770" class="st0">
	<path id="path54" class="st1" d="M356.3,354.1l-83.1,48"/>
	<path id="path56" class="st1" d="M229.7,427.1l-13.2,7.6"/>
	<path id="path58" class="st2" d="M183.8,453.6l-16.4,9.5"/>
</g>
<g id="g3745" class="st0">
	<path id="path84" class="st1" d="M356.3,354.1l90.7,52.3"/>
	<path id="path86" class="st1" d="M488.5,430.4l4.4,2.4"/>
	<path id="path88" class="st1" d="M536.5,458.2l8.6,4.9"/>
</g>
<path id="path90" d="M685.7,361.1l19.5-7l-19.5-7l7.8,7"/>
<path id="path92" class="st3" d="M-14.5,354.1h707.9"/>
<path id="path94" d="M363.2,35.6l-7-19.5l-7,19.5l7-7.8"/>
<path id="path96" class="st3" d="M356.3,724.8v-697"/>
<path id="path98" class="st4" d="M572.9,354.1c0-119.7-97-216.7-216.7-216.7s-216.7,97-216.7,216.7s97,216.7,216.7,216.7
	S572.9,473.8,572.9,354.1z"/>
<path id="path100" d="M580.8,353.9c0-3.4-2.7-6.1-6.1-6.1c-3.4,0-6.1,2.7-6.1,6.1c0,3.4,2.7,6.1,6.1,6.1
	C578,360,580.8,357.3,580.8,353.9"/>
<path id="path102" class="st5" d="M551.1,245.1c0-3.4-2.7-6.1-6.1-6.1c-3.4,0-6.1,2.7-6.1,6.1s2.7,6.1,6.1,6.1
	C548.3,251.2,551.1,248.5,551.1,245.1"/>
<path id="path108" class="st0" d="M362.6,136c0-3.4-2.7-6.1-6.1-6.1s-6.1,2.7-6.1,6.1c0,3.4,2.7,6.1,6.1,6.1S362.6,139.4,362.6,136"
	/>
<path id="path114" class="st5" d="M173.8,245.1c0-3.4-2.7-6.1-6.1-6.1c-3.4,0-6.1,2.7-6.1,6.1s2.7,6.1,6.1,6.1
	C171,251.2,173.8,248.5,173.8,245.1"/>
<path id="path116" class="st0" d="M144.4,353.9c0-3.4-2.7-6.1-6.1-6.1c-3.4,0-6.1,2.7-6.1,6.1c0,3.4,2.7,6.1,6.1,6.1
	C141.6,360,144.4,357.3,144.4,353.9"/>
<path id="path118" class="st5" d="M173.8,463c0-3.4-2.7-6.1-6.1-6.1c-3.4,0-6.1,2.7-6.1,6.1c0,3.4,2.7,6.1,6.1,6.1
	C171,469.1,173.8,466.4,173.8,463"/>
<path id="path124" class="st0" d="M362.6,572.1c0-3.4-2.7-6.1-6.1-6.1s-6.1,2.7-6.1,6.1c0,3.4,2.7,6.1,6.1,6.1
	S362.6,575.5,362.6,572.1"/>
<path id="path130" class="st5" d="M551.1,463c0-3.4-2.7-6.1-6.1-6.1c-3.4,0-6.1,2.7-6.1,6.1c0,3.4,2.7,6.1,6.1,6.1
	C548.3,469.1,551.1,466.4,551.1,463"/>
<g id="g3613">
	<path id="path132" d="M601.8,349.2c0-0.1,0-0.2-0.5-0.7c-3.9-4-4.9-9.9-4.9-14.7c0-5.5,1.2-10.9,5.1-14.8c0.4-0.4,0.4-0.4,0.4-0.5
		c0-0.2-0.1-0.2-0.3-0.2c-0.3,0-3.1,2.1-5,6c-1.6,3.4-1.9,6.9-1.9,9.6c0,2.4,0.3,6.2,2,9.8c1.9,3.9,4.6,5.7,4.9,5.7
		C601.7,349.3,601.8,349.3,601.8,349.2"/>
	<path id="path138" d="M621.5,332.3c0-2.5-0.1-5-1.2-7.3c-1.4-3-4-3.6-5.3-3.6c-1.9,0-4.2,0.8-5.5,3.8c-1,2.2-1,4.6-1,7.1
		c0,2.3,0.1,5.2,1.2,7.6c1.3,2.5,3.6,3.2,5.2,3.2c1.7,0,4.1-0.7,5.5-3.6C621.4,337.3,621.5,334.8,621.5,332.3z M615,342.4
		c-1.2,0-3.1-0.8-3.6-3.8c-0.3-1.9-0.3-4.8-0.3-6.6c0-2,0-4.1,0.2-5.8c0.6-3.7,2.9-4.1,3.7-4.1c1,0,3.1,0.6,3.7,3.8
		c0.3,1.8,0.4,4.1,0.4,6.1c0,2.3-0.1,4.5-0.4,6.5C618.2,341.4,616.4,342.4,615,342.4"/>
	<path id="path140" d="M632.3,334.5c0-2.4-0.3-6.2-2.1-9.8c-1.9-3.9-4.6-5.8-4.9-5.8c-0.2,0-0.3,0.1-0.3,0.2c0,0.1,0,0.2,0.6,0.7
		c3.1,3.1,5,8.1,5,14.6c0,5.4-1.2,10.9-5.1,14.8c-0.4,0.4-0.4,0.4-0.4,0.5c0,0.2,0.1,0.2,0.3,0.2c0.3,0,3.1-2.1,5-6
		C631.9,340.6,632.3,337.2,632.3,334.5"/>
</g>
<g id="g3654">
	<path id="path142" d="M371,114.5c0-0.1,0-0.2-0.5-0.7c-3.9-4-4.9-9.9-4.9-14.7c0-5.5,1.2-10.9,5.1-14.8c0.4-0.4,0.4-0.4,0.4-0.5
		c0-0.2-0.1-0.2-0.3-0.2c-0.3,0-3.1,2.1-5,6c-1.6,3.4-1.9,6.9-1.9,9.6c0,2.4,0.3,6.2,2,9.8c1.9,3.9,4.6,5.7,4.9,5.7
		C370.9,114.7,371,114.7,371,114.5"/>
	<path id="path148" d="M383.7,86.9c0-0.8,0.1-0.9-0.6-0.9c-1.9,2.1-4.7,2.1-5.7,2.1v1c0.6,0,2.5-0.1,4.2-0.9v16.2
		c0,1.1-0.1,1.4-3,1.4h-1v1c1.1-0.1,3.8-0.1,5.1-0.1c1.3,0,4,0,5.1,0.1v-1h-1c-2.8,0-3-0.3-3-1.4"/>
	<path id="path150" d="M399.8,99.2c0-2.4-0.3-6.2-2.1-9.8c-1.9-3.9-4.6-5.8-4.9-5.8c-0.2,0-0.3,0.1-0.3,0.2c0,0.1,0,0.2,0.6,0.7
		c3.1,3.1,5,8.1,5,14.6c0,5.4-1.2,10.9-5.1,14.8c-0.4,0.4-0.4,0.4-0.4,0.5c0,0.2,0.1,0.2,0.3,0.2c0.3,0,3.1-2.1,5-6
		C399.4,105.3,399.8,101.8,399.8,99.2"/>
</g>
<g id="g3717">
	<path id="path152" d="M85.5,348.6c0-0.1,0-0.2-0.5-0.7C81,344,80,338.1,80,333.3c0-5.5,1.2-10.9,5.1-14.8c0.4-0.4,0.4-0.4,0.4-0.5
		c0-0.2-0.1-0.2-0.3-0.2c-0.3,0-3.1,2.1-5,6c-1.6,3.4-1.9,6.9-1.9,9.6c0,2.4,0.3,6.2,2,9.8c1.9,3.9,4.6,5.7,4.9,5.7
		C85.4,348.8,85.5,348.7,85.5,348.6"/>
	<path id="path160" d="M104,332.3c0-2.5-0.1-5-1.2-7.3c-1.4-3-4-3.6-5.3-3.6c-1.9,0-4.2,0.8-5.5,3.8c-1,2.2-1,4.6-1,7.1
		c0,2.3,0.1,5.2,1.2,7.6c1.3,2.5,3.6,3.2,5.2,3.2c1.7,0,4.1-0.7,5.5-3.6C103.9,337.2,104,334.8,104,332.3z M97.5,342.3
		c-1.2,0-3.1-0.8-3.6-3.8c-0.3-1.9-0.3-4.8-0.3-6.6c0-2,0-4.1,0.2-5.8c0.6-3.7,2.9-4.1,3.7-4.1c1,0,3.1,0.6,3.7,3.8
		c0.3,1.8,0.4,4.1,0.4,6.1c0,2.3-0.1,4.5-0.4,6.5C100.7,341.4,98.9,342.3,97.5,342.3"/>
	<path id="path162" d="M114.5,334.5c0-2.4-0.3-6.2-2.1-9.8c-1.9-3.9-4.6-5.8-4.9-5.8c-0.2,0-0.3,0.1-0.3,0.2c0,0.1,0,0.2,0.6,0.7
		c3.1,3.1,5,8.1,5,14.6c0,5.4-1.2,10.9-5.1,14.8c-0.4,0.4-0.4,0.4-0.4,0.5c0,0.2,0.1,0.2,0.3,0.2c0.3,0,3.1-2.1,5-6
		C114.1,340.6,114.5,337.1,114.5,334.5"/>
</g>
<g id="g3709">
	<path id="path164" d="M372.8,624.4c0-0.1,0-0.2-0.5-0.7c-3.9-3.9-4.9-9.9-4.9-14.7c0-5.5,1.2-10.9,5.1-14.8
		c0.4-0.4,0.4-0.4,0.4-0.5c0-0.2-0.1-0.2-0.3-0.2c-0.3,0-3.1,2.1-5,6c-1.6,3.4-1.9,6.9-1.9,9.6c0,2.4,0.3,6.2,2,9.8
		c1.9,3.9,4.6,5.7,4.9,5.7C372.7,624.5,372.8,624.5,372.8,624.4"/>
	<path id="path170" d="M393.8,611.9c0.4,0,1-0.2,1-0.8c0-0.6-0.5-0.6-1-0.6h-17.1c-0.4,0-1.2-0.1-1.2,0.6s0.7,0.8,1.2,0.8"/>
	<path id="path172" d="M406.7,598.9c0-0.8,0.1-0.9-0.6-0.9c-1.9,2.1-4.7,2.1-5.7,2.1v1c0.6,0,2.5-0.1,4.2-0.9v16.2
		c0,1.1-0.1,1.4-3,1.4h-1v1c1.1-0.1,3.8-0.1,5.1-0.1s4,0,5.1,0.1v-1h-1c-2.8,0-3-0.3-3-1.4"/>
	<path id="path174" d="M424.1,608.5c0-2.4-0.3-6.2-2.1-9.8c-1.9-3.9-4.6-5.8-4.9-5.8c-0.2,0-0.3,0.1-0.3,0.2c0,0.1,0,0.2,0.6,0.7
		c3.1,3.1,5,8.1,5,14.6c0,5.4-1.2,10.9-5.1,14.8c-0.4,0.4-0.4,0.4-0.4,0.5c0,0.2,0.1,0.2,0.3,0.2c0.3,0,3.1-2.1,5-6
		C423.7,614.6,424.2,611.1,424.1,608.5"/>
</g>
<path id="path400" d="M551.9,339.3c0-2.5-0.1-5-1.2-7.3c-1.4-3-4-3.6-5.3-3.6c-1.9,0-4.2,0.8-5.5,3.8c-1,2.2-1,4.6-1,7.1
	c0,2.3,0.1,5.2,1.2,7.6c1.3,2.5,3.6,3.2,5.2,3.2c1.7,0,4.1-0.7,5.5-3.6C551.9,344.2,551.9,341.8,551.9,339.3z M545.4,349.3
	c-1.2,0-3.1-0.8-3.6-3.8c-0.3-1.9-0.3-4.8-0.3-6.6c0-2,0-4.1,0.2-5.8c0.6-3.7,2.9-4.1,3.7-4.1c1,0,3.1,0.6,3.7,3.8
	c0.3,1.8,0.4,4.1,0.4,6.1c0,2.3-0.1,4.5-0.4,6.5C548.6,348.4,546.8,349.3,545.4,349.3"/>
<g id="g3609">
	<path id="path402" d="M486.2,339.8c0-2-0.1-3.9-0.9-5.7c-1.1-2.3-3.1-2.6-4.1-2.6c-1.5,0-3.2,0.6-4.2,2.7c-0.8,1.7-0.8,3.6-0.8,5.5
		c0,1.8,0.1,4,1,5.9c1,2,2.8,2.5,4,2.5c1.3,0,3.2-0.5,4.2-2.8C486.1,343.6,486.2,341.7,486.2,339.8z M481.1,347.4
		c-1,0-2.4-0.6-2.8-2.8c-0.3-1.5-0.1-3.7-0.1-5.1c0-1.6-0.2-3.2,0-4.5c0.5-2.9,2.3-2.8,2.9-2.8c0.8,0,2.4,0.4,2.9,2.5
		c0.2,1.4,0.1,3.2,0.1,4.8c0,1.8,0.1,3.5-0.2,5C483.6,346.9,482.2,347.4,481.1,347.4"/>
	<path id="path404" d="M496,334.6c0-2.1-1.7-3.8-3.8-3.8c-2,0-3.6,1.7-3.6,3.8c0,2.1,1.6,3.6,3.6,3.6
		C494.3,338.1,496,336.5,496,334.6z M492.2,337.4c-1.6,0-2.9-1.3-2.9-2.9c0-1.6,1.3-3.1,2.9-3.1c1.6,0,3.1,1.4,3.1,3.1
		C495.3,336.1,493.9,337.4,492.2,337.4"/>
</g>
<g id="g3604" class="st0">
	<path id="path406" class="st6" d="M455.2,297.4c1.4-1.6,1.8-3.8,0.8-5.4c-1-1.7-3.5-1.8-5.6-0.7c-2.1,1.2-3,3.4-2.1,5
		c0.4,0.7,1.1,0.8,1.7,0.5c0.7-0.4,0.8-1.1,0.5-1.7c-0.6-1.1-1.6-0.5-1.9-0.3c0.1-1.4,1.3-2.5,2.1-2.9c0.9-0.5,2.3-0.7,3.4,1.2
		c0.1,0.2,0.8,1.5,0.8,2.7c0,1.4-0.7,1.9-1.2,2.2c-0.2,0.1-0.6,0.5-0.8,0.5c-0.2,0.1-0.3,0.2-0.2,0.4c0.1,0.2,0.3,0.1,0.6-0.1
		l0.9-0.5c1.7-1,3.3,0,4.5,2.1c1.7,2.9,0.6,4.3-0.4,4.9c-0.9,0.5-2.7,1.1-4.2,0.3c0.8-0.3,1.2-1.2,0.7-2c-0.4-0.8-1.3-0.9-1.9-0.5
		c-0.5,0.3-1,1-0.5,1.9c1.1,1.9,3.9,2.2,6.2,0.9c2.6-1.5,3.4-4.5,2.1-6.7C459.9,297.5,457.6,296.6,455.2,297.4"/>
	<path id="path408" class="st6" d="M469.6,289.8c-1-1.7-2.1-3.3-3.7-4.5c-2.1-1.5-4.1-0.8-5-0.3c-1.3,0.7-2.5,2.2-2.2,4.6
		c0.2,1.8,1,3.6,2,5.2c0.9,1.6,2.1,3.4,3.9,4.5c1.9,1.2,3.7,0.7,4.7,0.1c1.1-0.7,2.5-2,2.3-4.6C471.4,293.1,470.6,291.4,469.6,289.8
		L469.6,289.8z M469.1,299.1c-0.8,0.5-2.4,0.7-3.9-1.1c-1-1.1-2.1-3.1-2.8-4.3c-0.8-1.4-1.6-2.7-2.1-4c-1-2.7,0.4-3.8,1-4.2
		c0.7-0.4,2.3-0.8,3.9,1c0.9,1.1,1.8,2.7,2.6,4c0.9,1.6,1.7,3,2.3,4.5C470.9,297.2,470,298.5,469.1,299.1"/>
	<path id="path410" class="st6" d="M475.5,280.1c-1-1.8-3.3-2.3-5-1.4c-1.8,1-2.3,3.3-1.3,5c1,1.8,3.3,2.3,5,1.4
		C475.9,284.1,476.5,281.9,475.5,280.1z M473.7,284.4c-1.4,0.8-3.1,0.3-3.8-1c-0.8-1.4-0.3-3.1,1-3.9c1.4-0.8,3.1-0.3,3.8,1
		C475.5,281.9,475,283.6,473.7,284.4"/>
</g>
<g id="g3649" class="st0">
	<path id="path440" class="st7" d="M369.4,221.6v0.8c0,5.7-2.6,6.8-4.1,6.8c-0.4,0-1.7,0-2.4-0.9c1.1,0,1.2-0.7,1.2-1.1
		c0-0.8-0.6-1-1.1-1c-0.4,0-1,0.2-1,1c0,1.6,1.3,2.6,3.3,2.6c3.1,0,6.2-3.3,6.2-8.6c0-6.6-2.8-8.1-5-8.1c-1.3,0-2.5,0.4-3.6,1.4
		c-1,1.1-1.5,2.1-1.5,4c0,3,2.1,5.5,4.9,5.5c1.5,0,2.5-1.1,3-2.5L369.4,221.6z M366.2,223.4c-0.4,0-1.5,0.1-2.3-1.5
		c-0.4-0.9-0.5-2.1-0.5-3.3c0-1.3,0.1-2.5,0.6-3.4c0.7-1.2,1.6-1.3,2.4-1.3c1.1,0,1.9,0.7,2.3,1.7c0.3,0.8,0.4,2.3,0.4,3.4
		C369.2,221.2,368.4,223.4,366.2,223.4"/>
	<path id="path442" class="st7" d="M383.7,221.6c0-2-0.1-3.9-0.9-5.7c-1.1-2.3-3.1-2.6-4.1-2.6c-1.5,0-3.2,0.6-4.2,2.7
		c-0.8,1.7-0.8,3.6-0.8,5.5c0,1.8,0.1,4,1,5.9c1,2,2.8,2.5,4,2.5c1.3,0,3.2-0.5,4.2-2.8C383.6,225.4,383.7,223.5,383.7,221.6z
		 M378.6,229.2c-1,0-2.4-0.6-2.8-2.8c-0.3-1.5-0.1-3.7-0.1-5.1c0-1.6-0.2-3.2,0-4.5c0.5-2.9,2.3-2.8,2.9-2.8c0.8,0,2.4,0.4,2.9,2.5
		c0.2,1.4,0.1,3.2,0.1,4.8c0,1.8,0.1,3.5-0.2,5C381.1,228.7,379.7,229.2,378.6,229.2"/>
	<path id="path444" class="st7" d="M393.9,216.4c0-2.1-1.7-3.8-3.8-3.8c-2,0-3.6,1.7-3.6,3.8c0,2.1,1.6,3.6,3.6,3.6
		C392.2,219.9,393.9,218.3,393.9,216.4z M390.1,219.2c-1.6,0-2.9-1.3-2.9-2.9c0-1.6,1.3-3.1,2.9-3.1c1.6,0,3.1,1.4,3.1,3.1
		C393.2,217.9,391.8,219.2,390.1,219.2"/>
</g>
<g id="g3626" class="st0">
	<path id="path480" class="st6" d="M241.4,280c0.3-0.5,0.3-0.5-0.2-0.8c-2.1,0.6-3.9-0.5-4.6-0.9l-0.4,0.7c0.4,0.2,1.7,1,3.1,1
		l-6.3,10.9c-0.4,0.8-0.6,1-2.5-0.1l-0.7-0.4l-0.4,0.7c0.8,0.4,2.6,1.4,3.5,1.9c0.8,0.5,2.7,1.5,3.4,2l0.4-0.7l-0.7-0.4
		c-1.9-1.1-1.8-1.4-1.4-2.1"/>
	<path id="path482" class="st6" d="M250.2,297.1c1.5-2.5,0.9-5.6-1.3-6.9c-1-0.6-2.1-0.8-3.3-0.5l2.4-4.1c0.3,0.4,1,0.9,1.6,1.3
		c2.6,1.5,5.2,0.4,5.3,0.2c0.1-0.1,0.1-0.3-0.1-0.3c0,0-0.1,0-0.2,0c-0.5-0.1-1.8-0.2-3.2-1c-0.8-0.5-1.7-1.2-2.5-2.2
		c-0.1-0.2-0.2-0.2-0.2-0.2c-0.2-0.1-0.3,0-0.5,0.4l-3.6,6.3c-0.2,0.4-0.3,0.5,0,0.7c0.1,0.1,0.2,0,0.4,0c0.4-0.2,1.9-0.9,3.6,0.1
		c1.1,0.6,1.1,1.9,1,2.4c-0.1,1-0.5,1.8-1.2,2.9c-0.4,0.7-1.2,2-2.2,2.6c-1,0.5-2.1,0.6-3.1,0.1c-1.5-0.9-2.1-2.7-1.7-4.2
		c0.1,0.1,0.1,0.1,0.3,0.2c0.7,0.4,1.4,0.1,1.7-0.4c0.3-0.5,0.2-1.2-0.5-1.6c-0.3-0.2-1.1-0.5-1.7,0.5c-1,1.8-0.8,4.7,1.6,6.1
		C245.3,300.5,248.7,299.7,250.2,297.1"/>
	<path id="path484" class="st6" d="M262.4,301c1-1.7,1.8-3.4,2-5.4c0.2-2.6-1.3-3.9-2.2-4.4c-1.3-0.7-3.1-1.1-5.1,0.4
		c-1.5,1.1-2.6,2.7-3.5,4.3c-0.9,1.6-1.9,3.5-2,5.6c-0.1,2.2,1.2,3.5,2.3,4.1c1.1,0.7,3,1.1,5.1-0.3
		C260.4,304.2,261.4,302.6,262.4,301L262.4,301z M254,305.2c-0.8-0.5-1.8-1.7-1-4c0.5-1.4,1.6-3.3,2.3-4.6c0.8-1.4,1.6-2.7,2.4-3.8
		c1.9-2.3,3.5-1.6,4.1-1.3c0.7,0.4,1.9,1.6,1.1,3.9c-0.5,1.3-1.4,2.9-2.2,4.2c-0.9,1.6-1.7,3-2.8,4.2
		C256.5,305.8,255,305.7,254,305.2"/>
	<path id="path486" class="st6" d="M273.8,301c1-1.8,0.4-4-1.3-5c-1.8-1-4-0.4-5,1.3c-1,1.8-0.4,4,1.3,5
		C270.5,303.3,272.8,302.7,273.8,301z M269.2,301.6c-1.4-0.8-1.8-2.5-1-3.8c0.8-1.4,2.5-1.8,3.9-1c1.4,0.8,1.8,2.5,1,3.8
		C272.3,301.9,270.5,302.4,269.2,301.6"/>
</g>
<path id="path488" class="st0" d="M164.6,336.7h3.9c-1.2,5.1-1.6,6.6-1.6,8.9c0,0.5,0.2,1.5,0.4,2.6c0.3,1.5,0.7,1.7,1.3,1.7
	c0.7,0,1.4-0.6,1.4-1.3c0-0.2,0-0.3-0.2-0.8c-1-2.5-1-4.8-1-5.7c0-1.8,0.2-3.7,0.6-5.5h4c0.5,0,1.7-0.1,1.7-1.2
	c0-0.8-0.7-0.9-1.4-0.9h-11.7c-0.8,0-2.1,0-3.6,1.7c-1.2,1.4-2.1,3-2.1,3.1c0,0,0,0.3,0.4,0.3c0.3,0,0.3-0.1,0.6-0.4
	c1.7-2.7,3.7-2.6,4.4-2.6h2c-1.1,4.2-3,8.4-4.5,11.5c-0.3,0.5-0.3,0.6-0.3,0.8c0,0.7,0.6,0.9,1,0.9c1,0,1.3-1,1.7-2.3
	c0.5-1.6,0.5-1.7,0.9-3.4"/>
<g id="g3620" class="st0">
	<path id="path490" class="st7" d="M204,333.7c0-0.6,0.2-0.5-0.4-0.5c-1.5,1.4-3.7,1.4-4.4,1.4v0.7c0.5,0,1.9,0.1,3.1-0.6v12.6
		c0,0.9-0.1,1.2-2.1,1.2h-0.8v0.7c0.9-0.1,3-0.1,4-0.1c1,0,3.1,0,4,0.1v-0.7h-0.8c-2.2,0-2.4-0.3-2.4-1.2"/>
	<path id="path492" class="st7" d="M213.6,338.2c-1.1-0.7-1.2-1.6-1.2-2c0-1.5,1.6-2.3,3.3-2.3c1.8,0,3.4,1.2,3.4,2.8
		c0,1.4-1,2.6-2.4,3.4L213.6,338.2z M217.1,340.5c1.8-0.9,3-2.2,3-3.8c0-2.2-2.2-3.5-4.4-3.5c-2.4,0-4.3,1.7-4.3,3.9
		c0,0.4,0,1.5,1,2.7c0.3,0.3,1.2,0.9,1.8,1.3c-1.4,0.7-3.5,2.1-3.5,4.5c0,2.6,2.5,4.2,5,4.2c2.8,0,5.1-2,5.1-4.6c0-0.9-0.3-2-1.2-3
		C219.1,341.7,218.7,341.5,217.1,340.5L217.1,340.5z M214.7,341.5c0.7,0.4,1.8,1.1,3,1.9c0.7,0.5,2,1.2,2,2.7c0,1.8-1.9,3.1-4,3.1
		c-2.1,0-4-1.5-4-3.5C211.7,344.2,212.5,342.7,214.7,341.5"/>
	<path id="path494" class="st7" d="M233,341.5c0-2-0.1-3.9-0.9-5.7c-1.1-2.3-3.1-2.6-4.1-2.6c-1.5,0-3.2,0.6-4.2,2.7
		c-0.8,1.7-0.8,3.6-0.8,5.5c0,1.8,0.1,4,1,5.9c1,2,2.8,2.5,4,2.5c1.3,0,3.2-0.5,4.2-2.8C232.9,345.4,233,343.5,233,341.5z
		 M227.9,349.2c-1,0-2.4-0.6-2.8-2.8c-0.3-1.5-0.1-3.7-0.1-5.1c0-1.6-0.2-3.2,0-4.5c0.5-2.9,2.3-2.8,2.9-2.8c0.8,0,2.4,0.4,2.9,2.5
		c0.2,1.4,0.1,3.2,0.1,4.8c0,1.8,0.1,3.5-0.2,5C230.4,348.6,229,349.2,227.9,349.2"/>
	<path id="path496" class="st7" d="M242.8,336.3c0-2.1-1.7-3.8-3.8-3.8c-2,0-3.6,1.7-3.6,3.8c0,2.1,1.6,3.6,3.6,3.6
		C241.1,339.9,242.8,338.3,242.8,336.3z M239.1,339.2c-1.6,0-2.9-1.3-2.9-2.9c0-1.6,1.3-3.1,2.9-3.1c1.6,0,3.1,1.4,3.1,3.1
		C242.1,337.9,240.8,339.2,239.1,339.2"/>
</g>
<g id="g3703" class="st0">
	<path id="path504" class="st6" d="M243.2,424.1l-0.5,0.3c0.3,0.7,0.7,1.7,0.6,2.1c0,0.3-1.4,1.1-1.9,1.3l-3.8,2.2l1-3.5
		c1.6-4.8,2.2-6.7,1-8.8c-1.4-2.4-4.3-3-6.8-1.5c-2.4,1.4-2.8,4.2-1.7,6.1c0.7,1.2,1.7,0.6,1.8,0.5c0.4-0.2,1-0.9,0.5-1.8
		c-0.3-0.5-1-0.9-1.8-0.5c-0.2,0.1-0.2,0.1-0.3,0.2c-0.3-1.7,0.4-3.1,1.6-3.8c1.9-1.1,3.8,0.1,4.8,1.8c1,1.7,0.9,4,0.5,5.9l-1.4,6.9
		c-0.1,0.4-0.1,0.4,0.2,0.9l7.8-4.5"/>
	<path id="path506" class="st6" d="M245.1,410.2c-0.3-0.5-0.3-0.5-0.8-0.3c-0.5,2.1-2.4,3.2-3.1,3.6l0.4,0.7c0.4-0.2,1.7-1,2.5-2.1
		l6.3,10.9c0.4,0.8,0.5,1-1.4,2.1l-0.7,0.4l0.4,0.7c0.7-0.5,2.5-1.5,3.4-2s2.7-1.5,3.5-1.9l-0.4-0.7l-0.7,0.4
		c-1.9,1.1-2.1,0.9-2.5,0.1"/>
	<path id="path508" class="st6" d="M263,408.6c-1-1.7-2.1-3.3-3.7-4.5c-2.1-1.5-4.1-0.8-5-0.3c-1.3,0.7-2.5,2.2-2.2,4.6
		c0.2,1.8,1,3.6,2,5.2c0.9,1.6,2.1,3.4,3.9,4.5c1.9,1.2,3.7,0.7,4.7,0.1c1.1-0.7,2.5-2,2.3-4.6C264.8,412,263.9,410.3,263,408.6
		L263,408.6z M262.4,418c-0.8,0.5-2.4,0.7-3.9-1.1c-1-1.1-2.1-3.1-2.8-4.3c-0.8-1.4-1.6-2.7-2.1-4c-1-2.7,0.4-3.8,1-4.2
		c0.7-0.4,2.3-0.8,3.9,1c0.9,1.1,1.8,2.7,2.6,4c0.9,1.6,1.7,3,2.3,4.5C264.2,416.1,263.4,417.4,262.4,418"/>
	<path id="path510" class="st6" d="M268.8,399.4c-1-1.8-3.3-2.3-5-1.4c-1.8,1-2.3,3.3-1.3,5c1,1.8,3.3,2.3,5,1.4
		C269.2,403.3,269.8,401.1,268.8,399.4z M267,403.6c-1.4,0.8-3.1,0.3-3.8-1c-0.8-1.4-0.3-3.1,1-3.9c1.4-0.8,3.1-0.3,3.8,1
		C268.9,401.1,268.4,402.8,267,403.6"/>
</g>
<g id="g3679" class="st0">
	<path id="path546" class="st7" d="M372,498.2h-0.6c-0.1,0.7-0.3,1.8-0.5,2.2c-0.2,0.2-1.8,0.3-2.3,0.3h-4.4l2.6-2.6
		c3.8-3.4,5.2-4.7,5.2-7.1c0-2.8-2.1-4.6-5.1-4.6c-2.8,0-4.4,2.2-4.4,4.3c0,1.4,1,1.3,1.1,1.3c0.4,0,1.3-0.3,1.3-1.3
		c0-0.6-0.5-1.2-1.4-1.2c-0.2,0-0.2-0.1-0.3-0.1c0.6-1.6,1.9-2.4,3.3-2.4c2.2,0,3.3,1.9,3.3,3.9c0,2-1.2,3.9-2.6,5.4l-4.7,5.2
		c-0.3,0.3-0.1,0.3-0.1,0.9h8.9"/>
	<path id="path548" class="st7" d="M384.9,487.6c0.2-0.3,0.2-0.4,0.2-0.9h-5.9c-3,0-3-0.3-3.1-0.7h-0.6l-0.8,5h0.6
		c0.1-0.4,0.3-1.9,0.6-2.2c0.2-0.1,2.1-0.3,2.4-0.3h5c-0.3,0.4-2.2,3.2-2.7,4c-2.2,3.3-3.1,6.7-3.1,9.2c0,0.2,0.1,1.3,1.2,1.3
		c1.1,0,0.9-1.1,0.9-1.3v-1.2c0-1.3,0.1-2.7,0.5-4c0.1-0.6,0.4-2.7,1.5-4.2"/>
	<path id="path550" class="st7" d="M396.7,494.7c0-2-0.1-3.9-0.9-5.7c-1.1-2.3-3.1-2.6-4.1-2.6c-1.5,0-3.2,0.6-4.2,2.7
		c-0.8,1.7-0.8,3.6-0.8,5.5c0,1.8,0.1,4,1,5.9c1,2,2.8,2.5,4,2.5c1.3,0,3.2-0.5,4.2-2.8C396.6,498.5,396.7,496.6,396.7,494.7z
		 M391.6,502.3c-1,0-2.4-0.6-2.8-2.8c-0.3-1.5-0.1-3.7-0.1-5.1c0-1.6-0.2-3.2,0-4.5c0.5-2.9,2.3-2.8,2.9-2.8c0.8,0,2.4,0.4,2.9,2.5
		c0.2,1.4,0.1,3.2,0.1,4.8c0,1.8,0.1,3.5-0.2,5C394,501.8,392.7,502.3,391.6,502.3"/>
	<path id="path552" class="st7" d="M406.8,489.5c0-2.1-1.7-3.8-3.8-3.8c-2,0-3.6,1.7-3.6,3.8c0,2.1,1.6,3.6,3.6,3.6
		C405.1,493,406.8,491.4,406.8,489.5z M403.1,492.3c-1.6,0-2.9-1.3-2.9-2.9c0-1.6,1.3-3.1,2.9-3.1c1.6,0,3.1,1.4,3.1,3.1
		C406.1,491,404.8,492.3,403.1,492.3"/>
</g>
<g id="g3661" class="st0">
	<path id="path590" class="st6" d="M453.6,409.8c2.1,0.4,4.1-0.3,5.1-2c1-1.7-0.2-4-2.2-5.2c-2.1-1.2-4.5-0.9-5.4,0.7
		c-0.4,0.7-0.2,1.4,0.4,1.7c0.7,0.4,1.3,0.2,1.7-0.5c0.6-1.1-0.4-1.6-0.7-1.8c1.3-0.7,2.8-0.1,3.6,0.3c0.9,0.5,1.8,1.6,0.7,3.5
		c-0.1,0.3-0.9,1.5-2,2.1c-1.2,0.6-2,0.3-2.5,0c-0.2-0.1-0.7-0.3-0.9-0.4c-0.2-0.1-0.3-0.1-0.5,0.1c-0.1,0.2,0,0.3,0.4,0.5l0.9,0.5
		c1.7,1,1.7,2.9,0.5,5c-1.7,2.9-3.5,2.6-4.4,2.1c-0.9-0.5-2.3-1.8-2.3-3.5c0.7,0.5,1.6,0.4,2.1-0.4c0.4-0.8,0.1-1.5-0.5-1.9
		c-0.5-0.3-1.4-0.4-1.9,0.5c-1.1,1.9,0,4.4,2.4,5.8c2.6,1.5,5.6,0.7,6.9-1.5C455.9,413.9,455.5,411.5,453.6,409.8"/>
	<path id="path592" class="st6" d="M464.1,416.1c2.1,0.4,4.1-0.3,5.1-2c1-1.7-0.2-4-2.2-5.2c-2.1-1.2-4.5-0.9-5.4,0.7
		c-0.4,0.7-0.2,1.4,0.4,1.7c0.7,0.4,1.3,0.2,1.7-0.5c0.6-1.1-0.4-1.6-0.7-1.8c1.3-0.7,2.8-0.1,3.6,0.3c0.9,0.5,1.8,1.6,0.7,3.5
		c-0.1,0.3-0.9,1.5-2,2.1c-1.2,0.6-2,0.3-2.5,0c-0.2-0.1-0.7-0.3-0.9-0.4c-0.2-0.1-0.3-0.1-0.5,0.1c-0.1,0.2,0,0.3,0.4,0.5l0.9,0.5
		c1.7,1,1.7,2.9,0.5,5c-1.7,2.9-3.5,2.6-4.4,2.1c-0.9-0.5-2.3-1.8-2.3-3.5c0.7,0.5,1.6,0.4,2.1-0.4c0.4-0.8,0.1-1.5-0.5-1.9
		c-0.5-0.3-1.4-0.4-1.9,0.5c-1.1,1.9,0,4.4,2.4,5.8c2.6,1.5,5.6,0.7,6.9-1.5C466.4,420.2,466,417.8,464.1,416.1"/>
	<path id="path594" class="st6" d="M478.1,425.1c1-1.7,1.8-3.4,2-5.4c0.2-2.6-1.3-3.9-2.2-4.4c-1.3-0.7-3.1-1.1-5.1,0.4
		c-1.5,1.1-2.6,2.7-3.5,4.3c-0.9,1.6-1.9,3.5-2,5.6c-0.1,2.2,1.2,3.5,2.3,4.1c1.1,0.7,3,1.1,5.1-0.3
		C476.1,428.4,477.2,426.8,478.1,425.1L478.1,425.1z M469.8,429.3c-0.8-0.5-1.8-1.7-1-4c0.5-1.4,1.6-3.3,2.3-4.6
		c0.8-1.4,1.6-2.7,2.4-3.8c1.9-2.3,3.5-1.6,4.1-1.3c0.7,0.4,1.9,1.6,1.1,3.9c-0.5,1.3-1.4,2.9-2.2,4.2c-0.9,1.6-1.7,3-2.8,4.2
		C472.3,429.9,470.7,429.8,469.8,429.3"/>
	<path id="path596" class="st6" d="M489.2,425.1c1-1.8,0.4-4-1.3-5c-1.8-1-4-0.4-5,1.3c-1,1.8-0.4,4,1.3,5
		C485.9,427.5,488.2,426.9,489.2,425.1z M484.6,425.7c-1.4-0.8-1.8-2.5-1-3.8c0.8-1.4,2.5-1.8,3.9-1c1.4,0.8,1.8,2.5,1,3.8
		C487.7,426.1,485.9,426.5,484.6,425.7"/>
</g>
<path id="path598" class="st0" d="M403.1,30.8c0.1-0.5,0.1-0.6,0.1-0.8c0-0.6-0.5-1-1-1c-0.3,0-0.9,0.2-1.2,0.8
	c-0.1,0.2-0.3,1.3-0.5,1.9c-0.2,0.9-0.5,1.8-0.7,2.8l-1.6,6.3c-0.1,0.5-1.6,3-3.9,3c-1.8,0-2.2-1.6-2.2-2.9c0-1.6,0.6-3.8,1.8-6.8
	c0.6-1.4,0.6-1.8,0.6-2.5c0-1.6-1.1-2.9-2.8-2.9c-3.3,0-4.6,5.1-4.6,5.4c0,0.3,0.3,0.3,0.4,0.3c0.3,0,0.4-0.1,0.6-0.6
	c0.9-3.3,2.3-4.4,3.5-4.4c0.3,0,0.8,0.1,0.8,1.2c0,0.9-0.3,1.8-0.5,2.4c-1.4,3.7-1.9,5.7-1.9,7.3c0,3.1,2.2,4.1,4.2,4.1
	c1.4,0,2.5-0.6,3.5-1.6c-0.5,1.8-0.9,3.5-2.3,5.4c-0.9,1.2-2.2,2.1-3.8,2.1c-0.5,0-2.1-0.1-2.6-1.4c0.6,0,1,0,1.5-0.4
	c0.3-0.3,0.7-0.8,0.7-1.4c0-1.1-0.9-1.3-1.2-1.3c-0.8,0-2,0.6-2,2.4c0,1.7,1.5,2.9,3.7,2.9c3.6,0,7.2-3.1,8.2-7"/>
<g id="g3344" class="st0">
	<path id="path176" class="st6" d="M579.2,253.4c-0.1-0.1-0.2-0.1-0.3-0.2c-2.2-0.7-5.7-1.9-9.8-6.1c-2.3-2.3-4.3-5.3-6-8.1
		c-4.6-7.9-5.9-14.6-4.5-20.6c0.1-0.4,0.1-0.5,0-0.5c-0.2-0.3-0.4-0.2-0.5-0.1c-0.4,0.3-1,3-1.2,3.7c-1,5.4,0.2,12,4.1,18.7
		c2.5,4.3,6.7,9.9,13.6,12.7c0.5,0.2,3.8,1.3,4.3,1C579.1,253.8,579.3,253.7,579.2,253.4"/>
	<path id="path186" class="st6" d="M574.6,212.2c-0.3-0.6-0.4-0.6-1-0.2c-0.6,2.1-2.5,3.2-3.4,3.7l0.4,0.8c0.5-0.3,1.9-1.1,2.7-2.4
		l6.2,10.8c0.4,0.7,0.6,1-1.6,2.2l-0.8,0.5l0.4,0.8c0.4-0.2,2.9-1.8,3.7-2.3c0.7-0.4,3.4-1.9,3.8-2.1l-0.4-0.8l-0.8,0.5
		c-2.1,1.2-2.3,0.9-2.7,0.2"/>
	<path id="path188" class="st6" d="M596.7,242.1l-0.7,0.4c0.2,0.5,0.7,1.9,0.6,2.2c-0.1,0.2-1.7,1.2-2,1.3l-3.9,2.2
		c1.1-3.2,1.5-4.3,2.2-6c0.8-2.1,1.5-4.3,0.4-6.3c-1.5-2.6-4.6-2.8-7.3-1.3c-2.6,1.5-3.3,4.4-2.2,6.3c0.6,1.1,1.6,0.7,1.8,0.5
		c0.5-0.3,0.9-1,0.5-1.8c-0.2-0.4-0.8-1-1.9-0.4c-0.2-1.9,1-3.2,1.9-3.7c2.1-1.2,4.2-0.2,5.1,1.5c1.1,1.8,0.6,4,0.4,5.2l-2.2,8
		c-0.1,0.3-0.1,0.3,0.3,0.9l8.7-5"/>
	<path id="path190" class="st6" d="M602.7,219.6c-2.5-4.3-6.7-9.9-13.6-12.7c-0.5-0.2-3.8-1.3-4.3-1c-0.2,0.1-0.3,0.3-0.2,0.5
		c0.1,0.1,0.2,0.2,0.4,0.2c2.4,0.7,5.7,2,9.7,6.1c2.3,2.3,4.3,5.3,6,8.1c1.8,3,3.3,6.3,4.2,9.7c1.3,4.9,0.9,8.3,0.3,10.9
		c-0.1,0.4-0.1,0.5,0,0.5c0.1,0.2,0.4,0.2,0.5,0.1c0.5-0.3,1-3.1,1.2-3.7C607.7,232.9,606.5,226.3,602.7,219.6"/>
	<polyline id="polyline7606" class="st6" points="578.3,235.6 590.7,228.5 589.8,227.1 577.5,234.2 	"/>
</g>
<g id="g3790" class="st0">
	<path id="path264" class="st8" d="M105.6,236.4c0.1-0.1,0-0.2,0-0.3c-0.5-2.3-1.2-5.9,0.4-11.6c0.9-3.1,2.4-6.4,4-9.2
		c4.6-7.9,9.7-12.4,15.6-14.2c0.4-0.1,0.5-0.2,0.5-0.2c0.2-0.3-0.1-0.4-0.2-0.5c-0.5-0.3-3.1,0.6-3.8,0.8
		c-5.2,1.9-10.3,6.2-14.2,12.9c-2.5,4.3-5.2,10.8-4.2,18.2c0.1,0.5,0.7,4,1.3,4.3C105.2,236.5,105.4,236.7,105.6,236.4"/>
	<path id="path276" class="st8" d="M141.6,210.6c0.3-0.6,0.3-0.6-0.3-1c-2.1,0.5-4.1-0.5-4.9-1l-0.4,0.8c0.5,0.3,1.9,1.1,3.4,1.2
		l-6.2,10.8c-0.4,0.7-0.6,1-2.7-0.2l-0.8-0.5l-0.4,0.8c0.4,0.2,3,1.6,3.8,2.1c0.7,0.4,3.3,2,3.7,2.3l0.4-0.8l-0.8-0.5
		c-2.1-1.2-2-1.5-1.5-2.2"/>
	<path id="path278" class="st8" d="M127,244.6l-0.7-0.4c-0.3,0.4-1.3,1.6-1.7,1.6c-0.2,0-1.9-0.9-2.2-1.1l-3.9-2.2
		c3.3-0.7,4.4-0.8,6.3-1.1c2.3-0.3,4.5-0.8,5.7-2.8c1.5-2.6,0.1-5.4-2.6-7c-2.6-1.5-5.5-0.7-6.6,1.2c-0.6,1.1,0.2,1.7,0.4,1.8
		c0.5,0.3,1.3,0.3,1.8-0.5c0.2-0.4,0.5-1.2-0.6-1.8c1.5-1.1,3.2-0.8,4.2-0.2c2.1,1.2,2.3,3.5,1.3,5.2c-1.1,1.8-3.2,2.5-4.3,2.9
		l-8,2.1c-0.3,0.1-0.3,0.1-0.7,0.7l8.7,5"/>
	<path id="path280" class="st8" d="M149.3,238.7c2.5-4.3,5.2-10.8,4.2-18.2c-0.1-0.5-0.7-4-1.3-4.3c-0.2-0.1-0.4-0.2-0.5,0.1
		c-0.1,0.1-0.1,0.2,0,0.4c0.5,2.4,1.1,6-0.4,11.5c-0.9,3.1-2.4,6.4-4,9.2c-1.8,3-3.8,6-6.3,8.5c-3.6,3.6-6.8,4.9-9.3,5.7
		c-0.4,0.1-0.5,0.2-0.5,0.2c-0.1,0.2,0,0.4,0.2,0.5c0.5,0.3,3.2-0.6,3.8-0.8C140.3,249.7,145.4,245.4,149.3,238.7"/>
	<polyline id="polyline7704" class="st6" points="122.6,224.4 135,231.6 135.8,230.1 123.5,223 	"/>
</g>
<g id="g3534" class="st0">
	<path id="path282" class="st6" d="M112.8,523.3c-0.1-0.1-0.2-0.1-0.3-0.2c-2.2-0.7-5.7-1.9-9.8-6.1c-2.3-2.3-4.3-5.3-6-8.1
		c-4.6-7.9-5.9-14.6-4.5-20.6c0.1-0.4,0.1-0.5,0-0.5c-0.2-0.3-0.4-0.2-0.5-0.1c-0.5,0.3-1,3-1.2,3.7c-1,5.4,0.2,12,4.1,18.7
		c2.5,4.3,6.7,9.9,13.6,12.7c0.5,0.2,3.8,1.3,4.3,1C112.7,523.7,113,523.6,112.8,523.3"/>
	<path id="path294" class="st6" d="M119.5,482.7c0.3-0.2,0.8-0.5,0.5-1c-0.3-0.5-0.8-0.2-1.1-0.1l-12.7,7.3c-0.3,0.2-0.8,0.5-0.5,1
		c0.3,0.5,0.8,0.2,1.1,0.1"/>
	<path id="path296" class="st6" d="M124.7,468.2c-0.3-0.6-0.4-0.6-1-0.2c-0.6,2.1-2.5,3.2-3.4,3.7l0.4,0.8c0.5-0.3,1.9-1.1,2.7-2.4
		l6.2,10.8c0.4,0.7,0.6,1-1.6,2.2l-0.8,0.5l0.4,0.8c0.4-0.2,2.9-1.8,3.7-2.3c0.7-0.4,3.4-1.8,3.8-2.1l-0.4-0.8l-0.8,0.5
		c-2.1,1.2-2.3,0.9-2.7,0.2"/>
	<path id="path298" class="st6" d="M137.3,503.7l-0.7,0.4c0.2,0.5,0.7,1.9,0.6,2.2c-0.1,0.2-1.7,1.2-2,1.3l-3.9,2.2
		c1.1-3.2,1.5-4.3,2.2-6c0.8-2.1,1.5-4.3,0.4-6.3c-1.5-2.6-4.6-2.8-7.3-1.3c-2.6,1.5-3.3,4.4-2.2,6.3c0.6,1.1,1.6,0.7,1.8,0.5
		c0.5-0.3,0.9-1,0.5-1.8c-0.2-0.4-0.8-1-1.9-0.4c-0.2-1.9,1-3.2,1.9-3.7c2.1-1.2,4.2-0.2,5.1,1.5c1.1,1.8,0.6,4,0.4,5.2l-2.2,8
		c-0.1,0.3-0.1,0.3,0.3,0.9l8.7-5"/>
	<path id="path300" class="st6" d="M152.7,476c-2.5-4.3-6.7-9.9-13.6-12.7c-0.5-0.2-3.8-1.3-4.3-1c-0.2,0.1-0.3,0.3-0.2,0.5
		c0.1,0.1,0.2,0.2,0.4,0.2c2.4,0.7,5.7,2,9.7,6.1c2.3,2.3,4.3,5.3,6,8.1c1.8,3,3.3,6.3,4.2,9.7c1.3,4.9,0.9,8.3,0.3,10.9
		c-0.1,0.4-0.1,0.5,0,0.5c0.1,0.2,0.4,0.2,0.5,0.1c0.5-0.3,1-3.1,1.2-3.7C157.7,489.2,156.6,482.7,152.7,476"/>
	<polyline id="polyline7722" class="st6" points="108.7,500.2 139.5,482.4 138.7,480.9 107.8,498.7 	"/>
</g>
<g id="g3430" class="st0">
	<path id="path382" class="st6" d="M558,498.2c0.1-0.1,0-0.2,0-0.3c-0.5-2.3-1.2-5.9,0.4-11.6c0.9-3.1,2.4-6.4,4-9.2
		c4.6-7.9,9.7-12.4,15.6-14.2c0.4-0.1,0.5-0.2,0.5-0.2c0.2-0.3-0.1-0.4-0.2-0.5c-0.5-0.3-3.1,0.6-3.8,0.8
		c-5.2,1.9-10.3,6.2-14.2,12.9c-2.5,4.3-5.2,10.8-4.2,18.2c0.1,0.5,0.7,4,1.3,4.3C557.6,498.4,557.8,498.5,558,498.2"/>
	<path id="path392" class="st6" d="M596,483.2c0.3,0.2,0.8,0.5,1.1-0.1c0.3-0.5-0.2-0.8-0.5-1l-12.7-7.3c-0.3-0.2-0.8-0.5-1.1,0.1
		c-0.3,0.5,0.2,0.8,0.5,1"/>
	<path id="path394" class="st6" d="M611.2,480.3c0.3-0.6,0.3-0.6-0.3-1c-2.1,0.5-4.1-0.5-4.9-1l-0.4,0.8c0.5,0.3,1.9,1.1,3.4,1.2
		l-6.2,10.8c-0.4,0.7-0.6,1-2.7-0.2l-0.8-0.5l-0.4,0.8c0.4,0.2,3,1.6,3.8,2.1c0.7,0.4,3.3,2,3.7,2.3l0.4-0.8l-0.8-0.5
		c-2.1-1.2-2-1.5-1.5-2.2"/>
	<path id="path396" class="st6" d="M586.1,509.1l-0.7-0.4c-0.3,0.4-1.3,1.6-1.7,1.6c-0.2,0-1.9-0.9-2.2-1.1l-3.9-2.2
		c3.3-0.7,4.4-0.8,6.3-1.1c2.3-0.3,4.5-0.8,5.7-2.8c1.5-2.6,0.1-5.4-2.6-7c-2.6-1.5-5.5-0.7-6.6,1.2c-0.6,1.1,0.2,1.7,0.4,1.8
		c0.5,0.3,1.3,0.3,1.8-0.5c0.2-0.4,0.5-1.2-0.6-1.8c1.5-1.1,3.2-0.8,4.2-0.2c2.1,1.2,2.3,3.5,1.3,5.2c-1.1,1.8-3.2,2.5-4.3,2.9
		l-8,2.1c-0.3,0.1-0.3,0.1-0.7,0.7l8.7,5"/>
	<path id="path398" class="st6" d="M618.2,508.4c2.5-4.3,5.2-10.8,4.2-18.2c-0.1-0.5-0.7-4-1.3-4.3c-0.2-0.1-0.4-0.2-0.5,0.1
		c-0.1,0.1-0.1,0.2,0,0.4c0.5,2.4,1.1,6-0.4,11.5c-0.9,3.1-2.4,6.4-4,9.2c-1.8,3-3.8,6-6.3,8.5c-3.6,3.6-6.8,4.9-9.3,5.7
		c-0.4,0.1-0.5,0.2-0.5,0.2c-0.1,0.2,0,0.4,0.2,0.5c0.5,0.3,3.2-0.6,3.8-0.8C609.2,519.4,614.3,515.1,618.2,508.4"/>
	<polyline id="polyline7820" class="st6" points="573.9,482.8 604.7,500.6 605.5,499.2 574.7,481.4 	"/>
</g>
<g id="g3392" class="st0">
	<path id="path412" class="st6" d="M511.1,249.1l2.5-1.5c0.4,1.5,1.1,3.6,2,5.3c0.5,0.8,0.9,1.4,1.3,1.7c0.9,0.9,1.3,0.8,1.6,0.6
		c0.5-0.3,0.7-1,0.4-1.5c-0.1-0.2-0.2-0.2-0.4-0.4c-0.9-0.5-1.9-1.5-2.9-3.3c-0.2-0.4-0.7-1.2-1.3-2.9l2.6-1.5
		c0.4-0.2,0.5-0.3,0.7-0.6c0.2-0.4,0-0.8,0-0.9c-0.4-0.6-0.9-0.3-1.3-0.1l-8,4.6c-0.9,0.5-1.3,1-1.8,2.5c-0.3,0.8-0.4,2.4-0.3,2.6
		c0.1,0.2,0.4,0.1,0.5,0c0.2-0.1,0.2-0.2,0.2-0.5c0.2-2.1,1.5-2.9,2-3.1l1.3-0.7c0.7,2.7,1,5.9,1.1,7.5c0,0.3,0.1,0.9,0.1,1
		c0,0.1,0,0.2,0.1,0.4c0.2,0.3,0.6,0.5,1.1,0.2c0.8-0.5,0.5-1.6-0.1-3.8"/>
	<path id="path414" class="st6" d="M522.4,273.5c-1-1.7-1.8-3.4-1.7-5.1c0.1-1.6,0.7-3,2.1-3.8c0.6-0.4,1.6-0.7,2.3-0.4
		c-0.5,0.3-0.7,1-0.4,1.6c0.3,0.5,0.9,0.8,1.6,0.4c0.6-0.4,0.8-1,0.4-1.6c-0.7-1.2-2.2-1.8-4.3-0.6c-3,1.8-4.5,6.3-1.9,10.9
		c3.2,5.5,6.7,5.6,9,4.3c2.6-1.5,3.7-4.7,2.1-7.5c-1.5-2.7-4.8-3.4-7.3-2C522.7,270.6,522.4,272.2,522.4,273.5L522.4,273.5z
		 M529.2,278.4c-1.1,0.6-2.2,0.5-3.2-0.2c-0.7-0.5-1.5-1.4-2.2-2.7c-1.2-2-0.9-4.3,0.8-5.3c1-0.6,1.8-0.6,2.8-0.1
		c1,0.5,1.5,1.4,2.2,2.6c0.7,1.2,1.2,2.1,1.1,3.2C530.6,277.1,530.2,277.9,529.2,278.4"/>
	<polyline id="polyline7830" class="st6" points="511.7,265.3 526.6,256.7 525.7,255.2 510.9,263.8 	"/>
</g>
<g id="g3644" class="st0">
	<path id="path436" class="st7" d="M367.5,155.5h2.9c-0.4,1.5-1,3.7-1,5.6c0,1,0.2,1.6,0.4,2.2c0.4,1.2,0.7,1.4,1.1,1.4
		c0.6,0,1.1-0.6,1.1-1.2c0-0.2,0-0.3-0.2-0.5c-0.5-0.9-0.9-2.3-0.9-4.3c0-0.5,0-1.4,0.3-3.2h3c0.4,0,0.6,0,0.9-0.2
		c0.3-0.2,0.4-0.6,0.4-0.8c0-0.7-0.6-0.7-1-0.7h-9.2c-1,0-1.7,0.2-2.8,1.2c-0.6,0.6-1.6,1.9-1.6,2.1c0,0.3,0.3,0.3,0.4,0.3
		c0.3,0,0.3,0,0.4-0.3c1.2-1.7,2.8-1.7,3.3-1.7h1.5c-0.8,2.7-2.1,5.6-2.8,7c-0.1,0.3-0.4,0.8-0.5,0.9c0,0.1-0.1,0.2-0.1,0.4
		c0,0.4,0.3,0.9,0.9,0.9c1,0,1.2-1.1,1.8-3.4"/>
	<path id="path438" class="st7" d="M374,185.4h-0.8c-0.1,0.5-0.3,2-0.6,2.2c-0.2,0.1-2.1,0.1-2.4,0.1h-4.5c2.6-2.3,3.4-2.9,4.9-4.1
		c1.8-1.4,3.4-3,3.4-5.3c0-3-2.5-4.6-5.6-4.6c-3,0-4.9,2.1-4.9,4.3c0,1.2,0.9,1.3,1.1,1.3c0.6,0,1.4-0.4,1.4-1.3
		c0-0.4-0.2-1.2-1.5-1.2c0.8-1.8,2.4-2.1,3.6-2.1c2.4,0,3.5,1.8,3.5,3.6c0,2.1-1.4,3.8-2.1,4.7l-5.9,5.8c-0.2,0.2,0,0.3,0,1h9.8"/>
	<polyline id="polyline7846" class="st7" points="360.3,169.7 377.5,169.7 377.5,168 360.3,168 	"/>
</g>
<g id="g3842" class="st0">
	<path id="path474" class="st6" d="M197,240.8c0.9,0.9,1.6,1.3,1.9,1.5c2.8,1.6,5.5,0.7,5.7,0.3c0.1-0.2,0-0.4-0.1-0.4
		c0,0-0.1,0-0.2,0c-0.6-0.1-2-0.3-3.5-1.2c-0.6-0.3-1.7-1-2.8-2.3c-0.2-0.2-0.2-0.3-0.2-0.3c-0.3-0.2-0.4,0.1-0.6,0.4l-3.6,6.2
		c-0.2,0.4-0.4,0.6,0,0.8c0.2,0.1,0.2,0.1,0.6,0c1.6-0.6,3-0.1,3.7,0.4c1.3,0.7,1.3,2.1,1.3,2.3c0,0.9-0.4,1.8-1.1,3
		c-0.4,0.6-1.1,1.9-2.3,2.4c-1,0.5-2.2,0.4-3.2-0.2c-1.4-0.8-2.3-2.4-2.1-4.1c0.8,0.5,1.5,0.2,1.8-0.3c0.5-0.9-0.2-1.5-0.4-1.7
		c0,0-1.1-0.6-1.7,0.5c-1.1,1.9-0.5,4.8,2.1,6.3c2.7,1.6,6.2,0.9,7.8-1.7c1.4-2.4,0.8-5.6-1.8-7.1c-0.9-0.5-2.2-0.9-3.6-0.7"/>
	<path id="path476" class="st6" d="M209.8,253.8l2.5,1.5c-1,1.1-2.6,2.7-3.6,4.4c-0.5,0.8-0.7,1.5-0.9,2c-0.3,1.3,0,1.5,0.3,1.7
		c0.5,0.3,1.2,0.1,1.5-0.4c0.1-0.2,0.1-0.3,0.1-0.6c0-1,0.4-2.4,1.4-4.2c0.2-0.4,0.7-1.2,1.9-2.6l2.6,1.5c0.4,0.2,0.5,0.3,0.9,0.3
		c0.4,0,0.7-0.3,0.7-0.4c0.4-0.6-0.2-0.9-0.6-1.1l-8-4.6c-0.9-0.5-1.6-0.7-3-0.3c-0.8,0.2-2.3,0.8-2.4,1c-0.1,0.3,0.1,0.4,0.2,0.5
		c0.2,0.1,0.3,0.1,0.5,0c1.9-0.9,3.2-0.1,3.7,0.2l1.3,0.7c-2,1.9-4.6,3.8-5.9,4.7c-0.3,0.2-0.8,0.5-0.9,0.6
		c-0.1,0.1-0.2,0.1-0.2,0.3c-0.2,0.3-0.1,0.8,0.3,1.1c0.8,0.5,1.6-0.3,3.2-1.9"/>
	<path id="path478" class="st6" d="M188.8,272.2c1-1.7,2-3.2,3.6-4c1.4-0.7,3-0.8,4.3-0.1c0.6,0.4,1.4,1,1.5,1.8
		c-0.6-0.3-1.2-0.2-1.6,0.5c-0.3,0.5-0.2,1.2,0.4,1.6c0.6,0.4,1.3,0.2,1.6-0.5c0.7-1.2,0.5-2.8-1.6-4c-3-1.8-7.8-0.8-10.4,3.8
		c-3.2,5.5-1.5,8.6,0.8,9.9c2.6,1.5,5.9,0.8,7.5-1.9c1.5-2.7,0.6-5.9-1.9-7.3C191.4,270.9,189.8,271.5,188.8,272.2L188.8,272.2z
		 M187.8,280.5c-1.1-0.6-1.5-1.7-1.4-2.9c0-0.8,0.5-2,1.2-3.2c1.2-2,3.3-2.9,5-2c1,0.6,1.4,1.3,1.5,2.4c0,1.1-0.4,2-1.2,3.2
		c-0.7,1.2-1.2,2.1-2.3,2.6C189.8,281.1,188.8,281.1,187.8,280.5"/>
	<polyline id="polyline7870" class="st6" points="185.2,256.4 212.4,272.1 213.2,270.7 186,255 	"/>
</g>
<g id="g3588" class="st0">
	<path id="path498" class="st6" d="M187.7,428.7c0.1-0.4,0-0.4-0.3-1l-5.5,3.2c-0.8,0.5-1.1,0.6-1.9,1c-1.1,0.5-1.3,0.4-1.5,0.1
		l-0.7,0.4l1.9,4.9l0.7-0.4c-0.1-0.3-0.7-1.9-0.5-2.3c0.1-0.2,1.8-1.2,2.1-1.4l4.6-2.7c-0.2,1.3-0.5,3.2-0.6,4.1
		c-0.7,5.2,1,8.7,1.7,10c0.1,0.2,0.7,1.2,1.7,0.6c1-0.6,0.5-1.5,0.3-1.8l-0.5-0.8c-2.4-4.1-2.6-6.5-2.4-8.1"/>
	<path id="path500" class="st6" d="M197.8,429.8l2.5-1.5c0.4,1.5,1.1,3.6,2,5.3c0.5,0.8,0.9,1.4,1.3,1.7c0.9,0.9,1.3,0.8,1.6,0.6
		c0.5-0.3,0.7-1,0.4-1.5c-0.1-0.2-0.2-0.2-0.4-0.4c-0.9-0.5-1.9-1.5-2.9-3.3c-0.2-0.4-0.7-1.2-1.3-2.9l2.6-1.5
		c0.4-0.2,0.5-0.3,0.7-0.6c0.2-0.4,0-0.8,0-0.9c-0.4-0.6-0.9-0.3-1.3-0.1l-8,4.6c-0.9,0.5-1.3,1-1.8,2.5c-0.3,0.8-0.4,2.4-0.3,2.6
		c0.1,0.2,0.4,0.1,0.5,0c0.2-0.1,0.2-0.2,0.2-0.4c0.2-2.1,1.5-2.9,2-3.1l1.3-0.7c0.7,2.7,1,5.9,1.1,7.5c0,0.3,0.1,0.9,0.1,1
		c0,0.1,0,0.2,0.1,0.3c0.2,0.3,0.6,0.5,1.1,0.2c0.8-0.5,0.5-1.6-0.1-3.8"/>
	<path id="path502" class="st6" d="M203.5,457.4c-1-1.7-1.8-3.4-1.7-5.1c0.1-1.6,0.7-3,2.1-3.8c0.6-0.4,1.6-0.7,2.3-0.4
		c-0.5,0.3-0.7,1-0.4,1.6c0.3,0.5,0.9,0.8,1.6,0.4c0.6-0.4,0.8-1,0.4-1.6c-0.7-1.2-2.2-1.8-4.3-0.6c-3,1.8-4.5,6.3-1.9,10.9
		c3.2,5.5,6.7,5.6,9,4.3c2.6-1.5,3.7-4.7,2.1-7.5c-1.5-2.7-4.8-3.4-7.3-2C203.7,454.5,203.5,456.2,203.5,457.4L203.5,457.4z
		 M210.2,462.4c-1.1,0.6-2.2,0.5-3.2-0.2c-0.7-0.5-1.5-1.4-2.2-2.7c-1.2-2-0.9-4.3,0.8-5.3c1-0.6,1.8-0.6,2.8-0.1
		c1,0.5,1.5,1.4,2.2,2.6c0.7,1.2,1.2,2.1,1.1,3.2C211.7,461,211.3,461.8,210.2,462.4"/>
	<polyline id="polyline7880" class="st6" points="187.5,452.6 214.7,436.8 213.9,435.4 186.7,451.1 	"/>
</g>
<g id="g3685" class="st0">
	<path id="path540" class="st7" d="M367,525.6c1.9,0,3.5,1.3,3.5,3.8c0,3-1.9,3.7-3.4,3.7c-1,0-3.1-0.2-4.1-1.5
		c1.1,0,1.4-0.8,1.4-1.3c0-0.8-0.6-1.5-1.3-1.5c-0.7,0-1.4,0.5-1.4,1.6c0,2.3,2.5,3.8,5.5,3.8c3.4,0,5.8-2.3,5.8-4.7
		c0-1.9-1.6-3.8-4.3-4.4c2.6-0.9,3.5-2.8,3.5-4.2c0-1.9-2.2-3.3-5-3.3c-2.7,0-4.8,1.3-4.8,3.2c0,0.8,0.5,1.4,1.2,1.4
		c0.8,0,1.2-0.6,1.2-1.3c0-0.7-0.5-1.2-1.2-1.3c0.9-1.1,2.5-1.2,3.4-1.2c1.1,0,2.6,0.5,2.6,2.6c0,1-0.3,2.1-1,2.9
		c-0.8,0.9-1.5,1-2.7,1c-0.6,0.1-0.7,0.1-0.8,0.2c0,0-0.2,0-0.2,0.2c0,0.3,0.2,0.4,0.6,0.4"/>
	<path id="path542" class="st7" d="M381.9,524.8h2.9c-0.4,1.5-1,3.7-1,5.6c0,1,0.2,1.6,0.4,2.2c0.4,1.2,0.7,1.4,1.1,1.4
		c0.6,0,1.1-0.6,1.1-1.2c0-0.2,0-0.3-0.2-0.5c-0.5-0.9-0.9-2.3-0.9-4.3c0-0.5,0-1.4,0.3-3.2h3c0.4,0,0.6,0,0.9-0.2
		c0.3-0.2,0.4-0.6,0.4-0.8c0-0.7-0.6-0.7-1-0.7h-9.2c-1,0-1.7,0.2-2.8,1.2c-0.6,0.6-1.6,1.9-1.6,2.1c0,0.3,0.3,0.3,0.4,0.3
		c0.3,0,0.3,0,0.4-0.3c1.2-1.7,2.8-1.7,3.3-1.7h1.5c-0.8,2.7-2.1,5.6-2.8,7c-0.1,0.3-0.4,0.8-0.5,0.9c0,0.1-0.1,0.2-0.1,0.4
		c0,0.4,0.3,0.9,0.9,0.9c1,0,1.2-1.1,1.8-3.4"/>
	<path id="path544" class="st7" d="M381.7,555h-0.8c-0.1,0.5-0.3,2-0.6,2.2c-0.2,0.1-2.1,0.1-2.4,0.1h-4.5c2.6-2.3,3.4-2.9,4.9-4.1
		c1.8-1.4,3.4-3,3.4-5.3c0-3-2.5-4.6-5.6-4.6c-3,0-4.9,2.1-4.9,4.3c0,1.2,0.9,1.3,1.1,1.3c0.6,0,1.4-0.4,1.4-1.3
		c0-0.4-0.2-1.2-1.5-1.2c0.8-1.8,2.4-2.1,3.6-2.1c2.4,0,3.5,1.8,3.5,3.6c0,2.1-1.4,3.8-2.1,4.7l-5.9,5.8c-0.2,0.2,0,0.3,0,1h9.8"/>
	<polyline id="polyline7904" class="st7" points="360,538.6 391.4,538.6 391.4,536.9 360,536.9 	"/>
</g>
<g id="g3549" class="st0">
	<path id="path582" class="st6" d="M512.9,420.8c0.3-0.6,0.3-0.6-0.3-1c-2.1,0.5-4.1-0.5-4.9-1l-0.4,0.8c0.5,0.3,1.9,1.1,3.4,1.2
		l-6.2,10.8c-0.4,0.7-0.6,1-2.7-0.2l-0.8-0.5l-0.4,0.8c0.4,0.2,3,1.6,3.8,2.1c0.7,0.4,3.3,2,3.7,2.3l0.4-0.8l-0.8-0.5
		c-2.1-1.2-2-1.5-1.6-2.2"/>
	<path id="path584" class="st6" d="M525.2,427.8c0.3-0.6,0.3-0.6-0.3-1c-2.1,0.5-4.1-0.5-4.9-1l-0.4,0.8c0.5,0.3,1.9,1.1,3.4,1.2
		l-6.2,10.8c-0.4,0.7-0.6,1-2.7-0.2l-0.8-0.5l-0.4,0.8c0.4,0.2,3,1.6,3.8,2.1c0.7,0.4,3.3,2,3.7,2.3l0.4-0.8l-0.8-0.5
		c-2.1-1.2-2-1.5-1.6-2.2"/>
	<path id="path586" class="st6" d="M533.2,439.9l2.5,1.5c-1,1.1-2.6,2.7-3.6,4.4c-0.5,0.8-0.7,1.5-0.9,2c-0.3,1.3,0,1.5,0.3,1.7
		c0.5,0.3,1.2,0.1,1.5-0.4c0.1-0.2,0.1-0.3,0.1-0.6c0-1,0.4-2.4,1.4-4.2c0.2-0.4,0.7-1.2,1.9-2.6l2.6,1.5c0.4,0.2,0.5,0.3,0.9,0.3
		c0.4,0,0.7-0.3,0.7-0.4c0.4-0.6-0.2-0.9-0.6-1.1l-8-4.6c-0.9-0.5-1.6-0.7-3-0.3c-0.8,0.2-2.3,0.8-2.4,1c-0.1,0.3,0.1,0.4,0.2,0.5
		c0.2,0.1,0.3,0.1,0.5,0c1.9-0.9,3.2-0.1,3.7,0.2l1.3,0.7c-2,1.9-4.6,3.8-5.9,4.7c-0.3,0.2-0.8,0.5-0.9,0.6
		c-0.1,0.1-0.2,0.1-0.2,0.3c-0.2,0.3-0.1,0.8,0.3,1.1c0.8,0.5,1.6-0.3,3.2-1.9"/>
	<path id="path588" class="st6" d="M505.9,455.1c1-1.7,2-3.2,3.6-4c1.4-0.7,3-0.8,4.3-0.1c0.6,0.4,1.4,1,1.5,1.8
		c-0.6-0.3-1.2-0.2-1.6,0.5c-0.3,0.5-0.2,1.2,0.4,1.6c0.6,0.4,1.3,0.2,1.6-0.5c0.7-1.2,0.5-2.8-1.6-4c-3-1.8-7.8-0.8-10.4,3.8
		c-3.2,5.5-1.5,8.6,0.8,9.9c2.6,1.5,5.9,0.8,7.5-2c1.5-2.7,0.6-5.9-1.9-7.3C508.5,453.8,507,454.4,505.9,455.1L505.9,455.1z
		 M505,463.4c-1.1-0.6-1.5-1.7-1.4-2.9c0-0.8,0.5-2,1.2-3.2c1.2-2,3.3-2.9,5-2c1,0.6,1.4,1.3,1.5,2.4c0,1.1-0.4,2-1.2,3.2
		c-0.7,1.2-1.2,2.1-2.3,2.6C506.9,464,506,464,505,463.4"/>
	<polyline id="polyline7928" class="st6" points="495.3,435 534.5,457.7 535.3,456.2 496.1,433.6 	"/>
</g>
<text transform="matrix(1 0 0 1 29.4258 76.7871)" class="st9 st10">Sine Values (y coordinates) only</text>
<text transform="matrix(1 0 0 1 580.7881 299.1624)" class="st9 st10">sin(0) = 0</text>
<polygon class="st11" points="296.2,354.4 685.7,463.8 685.7,245.1 "/>
<line class="st12" x1="356.3" y1="354.1" x2="572.9" y2="354.1"/>
</svg>
