<svg id="Layer_1" data-name="Layer 1" xmlns="http://www.w3.org/2000/svg" viewBox="0 0 1366 768"><defs><style>.cls-1{fill:#ff931e;stroke:#ff931e;}.cls-1,.cls-2,.cls-3,.cls-4{stroke-miterlimit:10;stroke-width:14px;}.cls-2{fill:#3fa9f5;stroke:#3fa9f5;}.cls-3{fill:#7ac943;stroke:#7ac943;}.cls-4{fill:#ff7bac;stroke:#ff7bac;}</style></defs><ellipse class="cls-1" cx="164.5" cy="181.5" rx="151.5" ry="96.5"/><ellipse class="cls-2" cx="457" cy="484.5" rx="248" ry="227.5"/><ellipse class="cls-3" cx="914.5" cy="187.5" rx="238.5" ry="153.5"/><ellipse class="cls-4" cx="1204.5" cy="542" rx="139.5" ry="155"/><g id="Ebene_1" data-name="Ebene 1"><path id="path2050" d="M120,251.08c-19.71,40.72,3.69,98.46,55.91,137.37,9.41-7.36,19.42-14.49,29.89-21.28,2,22.55,11.49,44.33,29,60.77-33.12,0-66-1.15-98.41-3.61a328.72,328.72,0,0,1,24-23c-57.07-38-85.19-97.48-70-142.8Q105,254.4,120,251.08Z"/></g><g id="Ebene_1-2" data-name="Ebene 1"><path id="path2050-2" data-name="path2050" d="M691.67,469.79c32.45,73.09,122.35,52.9,174.83-39.42-8.11-7.9-16.42-16.05-24.68-24.37,30.69-17.56,57.57-49,69.43-94.31-.84,54.63-3.8,106-8.87,153.62-6.86-6.83-14.34-14.07-22.15-21.64-48.59,99.09-141,126.08-183.25,59.79Q693.72,486.59,691.67,469.79Z"/></g><g id="Ebene_1-3" data-name="Ebene 1"><path id="path2050-3" data-name="path2050" d="M1122.47,227.16C1170,237.51,1218.06,277.7,1231,333.38a262,262,0,0,0,48.91-18.5c-12,32-35.28,59.68-67.12,77.91a366.35,366.35,0,0,0-63.46-50.16,280.5,280.5,0,0,0,52.19-3.06c-8.52-50.43-51.11-87.88-92-97.95A108.71,108.71,0,0,0,1122.47,227.16Z"/></g></svg>