<svg id="Layer_1" data-name="Layer 1" xmlns="http://www.w3.org/2000/svg" viewBox="0 0 1340 372"><defs><style>.cls-1{fill:#fff;}.cls-2{fill:#666;}.cls-3,.cls-4{font-size:46px;font-family:AvenirNext-Regular, Avenir Next;}.cls-3{letter-spacing:0.4em;}.cls-4{letter-spacing:-0.11em;}.cls-5{fill:#29abe2;}.cls-6{fill:#ed1e79;}.cls-7{fill:#f15a24;}.cls-8{fill:lime;}.cls-9{fill:#3fa9f5;}.cls-10{fill:#7ac943;}.cls-11{fill:#ff931e;}.cls-12{fill:#ff1d25;}.cls-13{fill:#ff7bac;}.cls-14{fill:#bdccd4;}.cls-15{fill:aqua;}.cls-16{fill:blue;}.cls-17{fill:#f0f;}.cls-18{fill:#ff0;}.cls-19{fill:red;}.cls-20{fill:#22b573;}</style></defs><rect class="cls-1" x="2.5" y="2.5" width="656" height="367"/><path class="cls-2" d="M672,40V402H21V40H672m5-5H16V407H677V35Z" transform="translate(-16 -35)"/><rect class="cls-1" x="681.5" y="2.5" width="656" height="367"/><path class="cls-2" d="M1351,40V402H700V40h651m5-5H695V407h661V35Z" transform="translate(-16 -35)"/><text class="cls-3" transform="translate(203.95 55.47)">Sparse</text><text class="cls-4" transform="translate(953.95 55.47)">Dense</text><rect class="cls-5" x="25" y="94" width="211" height="39" rx="14.88"/><rect class="cls-6" x="252" y="297" width="211" height="39" rx="14.88"/><path class="cls-7" d="M623.26,189.44l249.48-32.88c9-1.86,36.44,8,38.77,30.84a44.61,44.61,0,0,1,0,10.2c-2.33,22.84-29.79,32.7-38.77,30.84L623.26,195.56c-9.27-1.39-17.49-2.69-17.7-3a.67.67,0,0,1,0-.2C605.77,192.13,614,190.83,623.26,189.44Z" transform="translate(-16 -35)"/><rect class="cls-8" x="489" y="210" width="26" height="39" rx="5.22"/><rect class="cls-8" x="857" y="62" width="26" height="39" rx="5.22"/><rect class="cls-9" x="1163" y="64" width="9" height="39" rx="2.12"/><rect class="cls-10" x="1163" y="112" width="9" height="39" rx="2.12"/><rect class="cls-11" x="1168" y="160" width="9" height="39" rx="2.12"/><rect class="cls-12" x="1173" y="210" width="9" height="39" rx="2.12"/><rect class="cls-13" x="1178" y="254" width="9" height="39" rx="2.12"/><rect class="cls-14" x="1183" y="302" width="9" height="39" rx="2.12"/><rect class="cls-14" x="1110" y="345" width="22" height="13" rx="1.91"/><rect class="cls-14" x="1137" y="346" width="22" height="13" rx="1.91"/><rect class="cls-14" x="1162" y="346" width="22" height="13" rx="1.91"/><rect class="cls-14" x="1188" y="345" width="22" height="13" rx="1.91"/><rect class="cls-14" x="1214" y="345" width="22" height="13" rx="1.91"/><rect class="cls-14" x="1243" y="345" width="22" height="13" rx="1.91"/><rect class="cls-14" x="1276" y="345" width="22" height="13" rx="1.91"/><rect class="cls-14" x="1265" y="324" width="22" height="13" rx="1.91"/><rect class="cls-14" x="1276" y="307" width="22" height="13" rx="1.91"/><rect class="cls-14" x="1287" y="290" width="22" height="13" rx="1.91"/><rect class="cls-14" x="1270" y="273" width="22" height="13" rx="1.91"/><rect class="cls-14" x="1270" y="256" width="22" height="13" rx="1.91"/><rect class="cls-14" x="1276" y="242" width="22" height="13" rx="1.91"/><rect class="cls-14" x="1265" y="222" width="22" height="13" rx="1.91"/><rect class="cls-14" x="1270" y="209" width="22" height="13" rx="1.91"/><rect class="cls-14" x="1270" y="203" width="22" height="13" rx="1.91"/><rect class="cls-14" x="1259" y="179" width="22" height="13" rx="1.91"/><rect class="cls-14" x="1254" y="155" width="22" height="13" rx="1.91"/><rect class="cls-14" x="1281" y="155" width="22" height="13" rx="1.91"/><rect class="cls-14" x="1281" y="131" width="22" height="13" rx="1.91"/><rect class="cls-14" x="1265" y="138" width="22" height="13" rx="1.91"/><rect class="cls-14" x="1248" y="116" width="22" height="13" rx="1.91"/><rect class="cls-14" x="1232" y="105" width="22" height="13" rx="1.91"/><rect class="cls-14" x="1229" y="76" width="14" height="35" rx="2.51"/><rect class="cls-14" x="1252" y="66" width="14" height="35" rx="2.51"/><rect class="cls-14" x="1274" y="66" width="14" height="35" rx="2.51"/><rect class="cls-14" x="1291" y="83" width="14" height="35" rx="2.51"/><rect class="cls-15" x="856" y="205" width="134" height="39" rx="11.85"/><rect class="cls-16" x="856" y="249" width="109" height="19" rx="7.46"/><rect class="cls-17" x="856" y="273" width="109" height="19" rx="7.46"/><rect class="cls-18" x="856" y="297" width="109" height="19" rx="7.46"/><rect class="cls-19" x="856" y="321" width="109" height="19" rx="7.46"/><rect class="cls-20" x="856" y="345" width="159" height="15" rx="7.5"/><rect class="cls-20" x="982" y="316" width="22" height="22" rx="3.38"/><rect class="cls-20" x="993" y="287" width="22" height="22" rx="3.38"/><rect class="cls-20" x="999" y="258" width="22" height="22" rx="3.38"/><rect class="cls-11" x="900" y="79" width="22" height="22" rx="3.38"/><rect class="cls-20" x="1010" y="233" width="22" height="22" rx="3.38"/><rect class="cls-20" x="1015" y="205" width="22" height="22" rx="3.38"/><rect class="cls-20" x="1021" y="177" width="22" height="22" rx="3.38"/><rect class="cls-20" x="1026" y="149" width="22" height="22" rx="3.38"/><rect class="cls-20" x="1032" y="121" width="22" height="22" rx="3.38"/><rect class="cls-20" x="1037" y="93" width="22" height="22" rx="3.38"/><rect class="cls-20" x="1043" y="65" width="22" height="22" rx="3.38"/><rect class="cls-18" x="1154" y="313" width="22" height="22" rx="3.38"/><rect class="cls-18" x="1143" y="284" width="22" height="22" rx="3.38"/><rect class="cls-18" x="1137" y="255" width="22" height="22" rx="3.38"/><rect class="cls-18" x="1126" y="230" width="22" height="22" rx="3.38"/><rect class="cls-18" x="1115" y="174" width="22" height="22" rx="3.38"/><rect class="cls-18" x="1110" y="146" width="22" height="22" rx="3.38"/><rect class="cls-18" x="1104" y="118" width="22" height="22" rx="3.38"/><rect class="cls-18" x="1099" y="90" width="22" height="22" rx="3.38"/><rect class="cls-18" x="1093" y="62" width="22" height="22" rx="3.38"/><path class="cls-5" d="M1077.67,201.06c2.52-14.07,5.14-27.64,7.66-40.7,12.43-59.84,14.34-87.47,13.49-76.44l-11.64,303c-.3,11.27-1.3,2.58-4.63-15.48-.69-3.86-1.41-7.57-2.1-11.15-3.33-17.08-4.33-27.21-4.63-26.54l-11.64-6.19C1063.33,328.42,1065.25,265.21,1077.67,201.06Z" transform="translate(-16 -35)"/></svg>