<svg id="Layer_1" data-name="Layer 1" xmlns="http://www.w3.org/2000/svg" xmlns:xlink="http://www.w3.org/1999/xlink" viewBox="0 0 1340 462"><defs><style>.cls-1{fill:#fff;}.cls-2{fill:#666;}.cls-3,.cls-5{font-size:46px;font-family:AvenirNext-Regular, Avenir Next;}.cls-3{letter-spacing:0.09em;}.cls-4,.cls-5{letter-spacing:0.1em;}.cls-6{letter-spacing:0.08em;}.cls-7{letter-spacing:0.09em;}.cls-8{letter-spacing:0.1em;}.cls-9{fill:#29abe2;}.cls-10{fill:#ff1d25;}.cls-11{fill:#ff931e;}.cls-12{fill:#7ac943;}.cls-13{fill:#ff7bac;}</style><image id="image" width="512" height="512" xlink:href="../../../../../../Downloads/listen-icon-png-14.jpg.png"/></defs><rect class="cls-1" x="2.5" y="2.5" width="656" height="367"/><path class="cls-2" d="M672,40V402H21V40H672m5-5H16V407H677V35Z" transform="translate(-16 -35)"/><rect class="cls-1" x="681.5" y="2.5" width="656" height="367"/><path class="cls-2" d="M1351,40V402H700V40h651m5-5H695V407h661V35Z" transform="translate(-16 -35)"/><text class="cls-3" transform="translate(238.95 55.47)">C<tspan class="cls-4" x="37.17" y="0">enter</tspan></text><text class="cls-5" transform="translate(798.95 55.47)">Sp<tspan class="cls-6" x="64.35" y="0">r</tspan><tspan class="cls-7" x="84.69" y="0">e</tspan><tspan class="cls-8" x="115.32" y="0">ad Soundfield</tspan></text><rect class="cls-9" x="225" y="88" width="211" height="39" rx="14.88"/><rect class="cls-10" x="269" y="184" width="123" height="39" rx="11.36"/><rect class="cls-11" x="225" y="232" width="211" height="39" rx="14.88"/><rect class="cls-12" x="225" y="280" width="211" height="39" rx="14.88"/><rect class="cls-13" x="269" y="136" width="123" height="39" rx="11.36"/><rect class="cls-9" x="857" y="88" width="211" height="39" rx="14.88"/><rect class="cls-10" x="1039" y="184" width="123" height="39" rx="11.36"/><rect class="cls-11" x="739" y="232" width="211" height="39" rx="14.88"/><rect class="cls-12" x="904" y="280" width="211" height="39" rx="14.88"/><rect class="cls-13" x="1151" y="136" width="123" height="39" rx="11.36"/><use transform="translate(261 339) scale(0.27 0.24)" xlink:href="#image"/><use transform="translate(940 339) scale(0.27 0.24)" xlink:href="#image"/></svg>