<svg id="Layer_1" data-name="Layer 1" xmlns="http://www.w3.org/2000/svg" viewBox="0 0 711 338"><defs><style>.cls-1{fill:aqua;}.cls-10,.cls-2{font-size:12.65px;}.cls-2,.cls-5{font-family:ArialMT, Arial;}.cls-3{fill:#fff;}.cls-4{fill:#f2f2f2;}.cls-5{font-size:25.3px;}.cls-6{fill:#7ac943;}.cls-7{fill:#ff7bac;}.cls-8{fill:#ff0;}.cls-9{font-size:28.46px;font-family:Arial-BoldMT, Arial;font-weight:700;}.cls-10{font-family:Arial-ItalicMT, Arial;font-style:italic;}.cls-11{letter-spacing:-0.04em;}.cls-12,.cls-13,.cls-15,.cls-16,.cls-17,.cls-18{fill:none;stroke-miterlimit:10;}.cls-12,.cls-13,.cls-15,.cls-16{stroke:#4d4d4d;stroke-linecap:round;}.cls-13{stroke-dasharray:4.03 4.03;}.cls-14{fill:#4d4d4d;}.cls-15{stroke-dasharray:4.06 4.06;}.cls-16{stroke-dasharray:3.97 3.97;}.cls-17,.cls-18{stroke:#000;}.cls-17{stroke-width:2px;}</style></defs><rect class="cls-1" x="11.5" y="63.05" width="113.13" height="64.36"/><path d="M124.13,63.55v63.36H12V63.55H124.13m1-1H11v65.36H125.13V62.55Z"/><text class="cls-2" transform="translate(19.32 79.24) scale(0.98 1)">Audio Input Signal</text><polygon class="cls-3" points="81.98 95.02 89.87 103.1 66.48 119 81.98 95.02"/><path d="M82.06,95.81l7,7.21L68.24,117.2,82.06,95.81m-.15-1.59L64.72,120.8l25.93-17.62-8.74-9Z"/><path class="cls-3" d="M88.11,104.22a7.94,7.94,0,1,1,7.73-7.94A7.84,7.84,0,0,1,88.11,104.22Z"/><path d="M88.11,88.85a7.44,7.44,0,1,1-7.22,7.43,7.34,7.34,0,0,1,7.22-7.43m0-1a8.44,8.44,0,1,0,8.23,8.43,8.33,8.33,0,0,0-8.23-8.43Z"/><rect class="cls-4" x="139" y="13.5" width="481.22" height="310"/><path d="M619.72,14V323H139.5V14H619.72m1-1H138.5V324H620.72V13Z"/><text class="cls-5" transform="translate(310.6 40.74) scale(0.98 1)">Delay Unit</text><rect class="cls-6" x="267.52" y="71.48" width="143.97" height="48.55"/><path d="M411,72v47.55H268V72H411m1-1H267v49.55H412V71Z"/><path d="M275.31,93.87V84.81h3a7.57,7.57,0,0,1,1.57.13,3,3,0,0,1,1.3.65,3.76,3.76,0,0,1,1,1.55,6.25,6.25,0,0,1,.35,2.15,6.34,6.34,0,0,1-.24,1.83,4.25,4.25,0,0,1-.6,1.32,3.13,3.13,0,0,1-.8.82,3.43,3.43,0,0,1-1.06.46,6,6,0,0,1-1.42.15Zm1.17-1.07h1.88a4.2,4.2,0,0,0,1.37-.17,1.81,1.81,0,0,0,.79-.47,2.74,2.74,0,0,0,.65-1.14,5.58,5.58,0,0,0,.23-1.75,4.35,4.35,0,0,0-.45-2.18,2.25,2.25,0,0,0-1.11-1,4.24,4.24,0,0,0-1.51-.19h-1.85Z"/><path d="M284.07,93.87V87.31h1v1a2.8,2.8,0,0,1,.69-.92,1.26,1.26,0,0,1,.7-.22,2.05,2.05,0,0,1,1.11.36l-.37,1a1.54,1.54,0,0,0-.8-.24,1,1,0,0,0-.63.22,1.21,1.21,0,0,0-.41.61,4.44,4.44,0,0,0-.18,1.3v3.43Z"/><path d="M288.14,96.4,288,95.35a2.2,2.2,0,0,0,.62.1,1.22,1.22,0,0,0,.58-.12,1,1,0,0,0,.35-.35,5.15,5.15,0,0,0,.33-.83c0-.06.06-.15.1-.27l-2.43-6.57h1.17l1.33,3.8c.18.48.33,1,.47,1.52a15.2,15.2,0,0,1,.44-1.5l1.37-3.82h1.09L291,94a12,12,0,0,1-.61,1.49,2.2,2.2,0,0,1-.66.81,1.55,1.55,0,0,1-.89.25A2.13,2.13,0,0,1,288.14,96.4Z"/><path d="M297.53,91l1.1-.1A2.55,2.55,0,0,0,299,92a2,2,0,0,0,.89.7,3.27,3.27,0,0,0,1.36.27,3.32,3.32,0,0,0,1.18-.2,1.74,1.74,0,0,0,.76-.56,1.32,1.32,0,0,0,.25-.78,1.19,1.19,0,0,0-.24-.74,1.78,1.78,0,0,0-.8-.54,16.24,16.24,0,0,0-1.57-.44,8.24,8.24,0,0,1-1.7-.56,2.41,2.41,0,0,1-.95-.85,2.14,2.14,0,0,1-.31-1.12,2.4,2.4,0,0,1,.38-1.29,2.43,2.43,0,0,1,1.11-.9,4.07,4.07,0,0,1,1.62-.31,4.41,4.41,0,0,1,1.73.32,2.57,2.57,0,0,1,1.16,1,2.76,2.76,0,0,1,.43,1.43l-1.12.08a1.89,1.89,0,0,0-.61-1.3,2.36,2.36,0,0,0-1.54-.43,2.43,2.43,0,0,0-1.54.39,1.2,1.2,0,0,0-.49,1,1,1,0,0,0,.34.81,4.7,4.7,0,0,0,1.77.64,11.59,11.59,0,0,1,1.95.58,2.74,2.74,0,0,1,1.14.92,2.37,2.37,0,0,1,.37,1.29,2.49,2.49,0,0,1-.41,1.36,2.66,2.66,0,0,1-1.16,1,3.89,3.89,0,0,1-1.7.35,5.14,5.14,0,0,1-2-.35A2.85,2.85,0,0,1,298,92.59,3,3,0,0,1,297.53,91Z"/><path d="M306,86.09V84.81h1.08v1.28Zm0,7.78V87.31h1.08v6.56Z"/><path d="M308.56,94.41l1.05.16a1,1,0,0,0,.37.73,1.75,1.75,0,0,0,1.1.31,1.86,1.86,0,0,0,1.16-.31,1.49,1.49,0,0,0,.56-.86,8.21,8.21,0,0,0,.08-1.43,2.23,2.23,0,0,1-1.77.86,2.41,2.41,0,0,1-2.05-1,3.83,3.83,0,0,1-.72-2.34,4.48,4.48,0,0,1,.33-1.73,2.71,2.71,0,0,1,1-1.23,2.6,2.6,0,0,1,1.48-.43,2.26,2.26,0,0,1,1.87.94v-.79h1V93a5.33,5.33,0,0,1-.31,2.17,2.23,2.23,0,0,1-1,1,3.23,3.23,0,0,1-1.62.37,3,3,0,0,1-1.85-.53A1.79,1.79,0,0,1,308.56,94.41Zm.89-3.94a3,3,0,0,0,.5,1.89,1.61,1.61,0,0,0,1.26.59,1.59,1.59,0,0,0,1.25-.59,3.53,3.53,0,0,0,0-3.67,1.63,1.63,0,0,0-1.26-.61,1.56,1.56,0,0,0-1.23.6A2.73,2.73,0,0,0,309.45,90.47Z"/><path d="M315.62,93.87V87.31h1v.93a2.29,2.29,0,0,1,2-1.08,2.61,2.61,0,0,1,1.06.21,1.71,1.71,0,0,1,.73.56,2.33,2.33,0,0,1,.34.82,6.67,6.67,0,0,1,.06,1.09v4h-1.09v-4a3.29,3.29,0,0,0-.12-1,1.1,1.1,0,0,0-.45-.53,1.37,1.37,0,0,0-.76-.2,1.71,1.71,0,0,0-1.19.45,2.24,2.24,0,0,0-.51,1.71v3.58Z"/><path d="M326.65,93.06a3.81,3.81,0,0,1-1.16.74,3.15,3.15,0,0,1-1.19.22,2.31,2.31,0,0,1-1.62-.53,1.88,1.88,0,0,1-.35-2.23,1.66,1.66,0,0,1,.56-.64,2.53,2.53,0,0,1,.78-.36,6.4,6.4,0,0,1,1-.17,10.43,10.43,0,0,0,1.93-.38c0-.16,0-.25,0-.29a1.22,1.22,0,0,0-.31-1,1.78,1.78,0,0,0-1.23-.38,1.83,1.83,0,0,0-1.13.28,1.69,1.69,0,0,0-.54,1l-1.06-.15a2.86,2.86,0,0,1,.47-1.13,2.22,2.22,0,0,1,1-.66,4.28,4.28,0,0,1,1.45-.23,3.86,3.86,0,0,1,1.34.2,1.73,1.73,0,0,1,.75.5,1.85,1.85,0,0,1,.34.75,7.49,7.49,0,0,1,.05,1v1.48a15.25,15.25,0,0,0,.07,2,2.74,2.74,0,0,0,.27.79h-1.13A2.66,2.66,0,0,1,326.65,93.06Zm-.09-2.48a8.22,8.22,0,0,1-1.77.42,3.81,3.81,0,0,0-.94.22.9.9,0,0,0-.43.36,1,1,0,0,0-.15.53,1,1,0,0,0,.33.74,1.38,1.38,0,0,0,1,.3,2.23,2.23,0,0,0,1.11-.28,1.72,1.72,0,0,0,.72-.77,2.71,2.71,0,0,0,.17-1.12Z"/><path d="M329.32,93.87V84.81h1.08v9.06Z"/><path d="M276.8,100H278l-1.13,5.56a6,6,0,0,0-.14,1,1.44,1.44,0,0,0,.56,1.17,2.18,2.18,0,0,0,1.41.44,2.61,2.61,0,0,0,1.26-.31,2.45,2.45,0,0,0,.92-.94,7.63,7.63,0,0,0,.6-2l1-5h1.18l-1.08,5.31a7.37,7.37,0,0,1-.72,2.15,3.49,3.49,0,0,1-1.26,1.27,3.53,3.53,0,0,1-1.86.48,4,4,0,0,1-1.73-.34,2.44,2.44,0,0,1-1.1-.94,2.58,2.58,0,0,1-.36-1.36,8.8,8.8,0,0,1,.25-1.63Z"/><path d="M283.68,109.05l1.33-6.56h1l-.23,1.14a5.39,5.39,0,0,1,1.2-1,2.42,2.42,0,0,1,1.15-.31,1.73,1.73,0,0,1,1.22.43,1.58,1.58,0,0,1,.44,1.16,6.17,6.17,0,0,1-.16,1.15l-.81,4h-1.09l.85-4.16a5.08,5.08,0,0,0,.12-.89.67.67,0,0,0-.22-.53.86.86,0,0,0-.63-.21,2.11,2.11,0,0,0-1.49.62,3.92,3.92,0,0,0-1,2.12l-.62,3Z"/><path d="M290.7,106.33l.23-1.12h3.32l-.22,1.12Z"/><path d="M294.11,111.56l1.85-9.07h1l-.19.91a4.43,4.43,0,0,1,1-.83,2.07,2.07,0,0,1,.94-.23,2,2,0,0,1,1.52.68,2.89,2.89,0,0,1,.6,2,5.1,5.1,0,0,1-.33,1.87,4,4,0,0,1-.82,1.35,3.27,3.27,0,0,1-1,.76,2.3,2.3,0,0,1-1,.24,2,2,0,0,1-1.79-1.2l-.72,3.56Zm2.16-5.19a3.4,3.4,0,0,0,.1,1,1.32,1.32,0,0,0,1.29.89,1.73,1.73,0,0,0,1.52-1.08,4.69,4.69,0,0,0,.57-2.21,1.91,1.91,0,0,0-.38-1.29,1.25,1.25,0,0,0-1-.46,1.42,1.42,0,0,0-.77.23,2.22,2.22,0,0,0-.66.67,4.15,4.15,0,0,0-.5,1.1A3.69,3.69,0,0,0,296.27,106.37Z"/><path d="M301.51,109.05l1.34-6.56h1l-.27,1.34a4.31,4.31,0,0,1,1-1.12,1.51,1.51,0,0,1,1-.37,1.82,1.82,0,0,1,.8.24l-.44,1a1,1,0,0,0-.62-.21,1.67,1.67,0,0,0-1.18.66,5,5,0,0,0-.94,2.35l-.55,2.63Z"/><path d="M305.81,106.56a4.68,4.68,0,0,1,1.1-3.18,3,3,0,0,1,2.39-1,2.46,2.46,0,0,1,1.86.74,2.81,2.81,0,0,1,.71,2,5,5,0,0,1-.45,2.11,3.37,3.37,0,0,1-1.26,1.49,3.18,3.18,0,0,1-1.74.52,2.78,2.78,0,0,1-1.35-.33,2.28,2.28,0,0,1-.94-.93A2.9,2.9,0,0,1,305.81,106.56Zm1.09-.11a2,2,0,0,0,.43,1.41,1.46,1.46,0,0,0,1.11.47,1.7,1.7,0,0,0,.69-.14,2.22,2.22,0,0,0,.64-.44,3.41,3.41,0,0,0,.5-.68,3.7,3.7,0,0,0,.33-.82,3.86,3.86,0,0,0,.19-1.17,2,2,0,0,0-.44-1.38,1.38,1.38,0,0,0-1.09-.49,1.76,1.76,0,0,0-.94.25,2.49,2.49,0,0,0-.76.73,3.27,3.27,0,0,0-.5,1.12A4.64,4.64,0,0,0,306.9,106.45Z"/><path d="M316.9,106.66l1.09.12a3.79,3.79,0,0,1-1.17,1.82,2.69,2.69,0,0,1-1.72.6,2.2,2.2,0,0,1-1.69-.69,2.74,2.74,0,0,1-.65-1.94,5.59,5.59,0,0,1,.42-2.11,3.41,3.41,0,0,1,1.19-1.58,3,3,0,0,1,1.77-.54,2.21,2.21,0,0,1,1.63.6,2.13,2.13,0,0,1,.6,1.58l-1.07.07a1.39,1.39,0,0,0-.35-1,1.25,1.25,0,0,0-.92-.35,1.63,1.63,0,0,0-1.13.43,2.69,2.69,0,0,0-.76,1.29,5.67,5.67,0,0,0-.28,1.67,1.89,1.89,0,0,0,.37,1.26,1.12,1.12,0,0,0,.89.42,1.51,1.51,0,0,0,1-.41A2.77,2.77,0,0,0,316.9,106.66Z"/><path d="M323.35,106.82l1.06.11a3.43,3.43,0,0,1-1.05,1.54,2.86,2.86,0,0,1-2,.73,2.56,2.56,0,0,1-1.31-.34,2.15,2.15,0,0,1-.9-1,3.23,3.23,0,0,1-.31-1.46,4.84,4.84,0,0,1,.48-2.09,3.57,3.57,0,0,1,1.26-1.5,3.1,3.1,0,0,1,1.67-.49,2.42,2.42,0,0,1,1.83.73,2.82,2.82,0,0,1,.68,2,5.69,5.69,0,0,1-.09,1H320c0,.13,0,.24,0,.34a2.14,2.14,0,0,0,.41,1.41,1.29,1.29,0,0,0,1,.48,1.91,1.91,0,0,0,1.1-.37A2.41,2.41,0,0,0,323.35,106.82Zm-3.17-1.62h3.59V105a1.86,1.86,0,0,0-.4-1.29,1.38,1.38,0,0,0-1.06-.45,1.89,1.89,0,0,0-1.27.5A2.92,2.92,0,0,0,320.18,105.2Z"/><path d="M325.61,106.81l1.09-.07a2,2,0,0,0,.15.82,1.14,1.14,0,0,0,.53.56,1.88,1.88,0,0,0,.91.21,1.66,1.66,0,0,0,1.08-.29.89.89,0,0,0,.36-.7.86.86,0,0,0-.21-.55,3.53,3.53,0,0,0-1.09-.64,10.26,10.26,0,0,1-1.11-.53,1.84,1.84,0,0,1-.61-.6,1.57,1.57,0,0,1-.2-.79,1.74,1.74,0,0,1,.6-1.33,2.41,2.41,0,0,1,1.69-.56,2.64,2.64,0,0,1,1.83.57,2,2,0,0,1,.66,1.51l-1.07.07a1.25,1.25,0,0,0-.41-.94,1.58,1.58,0,0,0-1.09-.34,1.36,1.36,0,0,0-.88.26.76.76,0,0,0-.31.58.71.71,0,0,0,.27.54,4.28,4.28,0,0,0,.93.49,6.67,6.67,0,0,1,1.58.88,1.68,1.68,0,0,1,.52,1.25,1.85,1.85,0,0,1-.29,1,2.08,2.08,0,0,1-.89.75,3.3,3.3,0,0,1-1.42.28,3.15,3.15,0,0,1-1.88-.56A2,2,0,0,1,325.61,106.81Z"/><path d="M331.78,106.81l1.09-.07a2,2,0,0,0,.15.82,1.14,1.14,0,0,0,.53.56,1.88,1.88,0,0,0,.91.21,1.66,1.66,0,0,0,1.08-.29.89.89,0,0,0,.36-.7.86.86,0,0,0-.21-.55,3.53,3.53,0,0,0-1.09-.64,10.26,10.26,0,0,1-1.11-.53,1.84,1.84,0,0,1-.61-.6,1.57,1.57,0,0,1-.2-.79,1.74,1.74,0,0,1,.6-1.33,2.41,2.41,0,0,1,1.69-.56,2.64,2.64,0,0,1,1.83.57,2,2,0,0,1,.66,1.51l-1.07.07a1.29,1.29,0,0,0-.41-.94,1.58,1.58,0,0,0-1.09-.34,1.36,1.36,0,0,0-.88.26.76.76,0,0,0-.31.58.71.71,0,0,0,.27.54,4.28,4.28,0,0,0,.93.49,6.67,6.67,0,0,1,1.58.88,1.68,1.68,0,0,1,.52,1.25,1.85,1.85,0,0,1-.29,1,2.11,2.11,0,0,1-.9.75,3.23,3.23,0,0,1-1.41.28,3.13,3.13,0,0,1-1.88-.56A2,2,0,0,1,331.78,106.81Z"/><path d="M342.55,106.82l1.06.11a3.35,3.35,0,0,1-1.05,1.54,2.86,2.86,0,0,1-2,.73,2.56,2.56,0,0,1-1.31-.34,2.15,2.15,0,0,1-.9-1,3.23,3.23,0,0,1-.31-1.46,4.84,4.84,0,0,1,.48-2.09,3.57,3.57,0,0,1,1.26-1.5,3.1,3.1,0,0,1,1.67-.49,2.42,2.42,0,0,1,1.83.73,2.82,2.82,0,0,1,.68,2,6.83,6.83,0,0,1-.08,1H339.2c0,.13,0,.24,0,.34a2.14,2.14,0,0,0,.41,1.41,1.29,1.29,0,0,0,1,.48,1.89,1.89,0,0,0,1.1-.37A2.41,2.41,0,0,0,342.55,106.82Zm-3.17-1.62H343c0-.12,0-.2,0-.25a1.87,1.87,0,0,0-.41-1.29,1.38,1.38,0,0,0-1.06-.45,1.89,1.89,0,0,0-1.27.5A2.92,2.92,0,0,0,339.38,105.2Z"/><path d="M349,108.1a2.61,2.61,0,0,1-1.95,1.1,1.91,1.91,0,0,1-1.51-.69,2.9,2.9,0,0,1-.61-2,5,5,0,0,1,.48-2.19,3.69,3.69,0,0,1,1.2-1.48,2.54,2.54,0,0,1,1.44-.5,1.93,1.93,0,0,1,1.8,1.18l.73-3.52h1.08l-1.84,9h-1Zm-3-1.8a3.45,3.45,0,0,0,.13,1.08,1.4,1.4,0,0,0,.45.66,1.13,1.13,0,0,0,.76.26,1.69,1.69,0,0,0,1.35-.79,4.11,4.11,0,0,0,.81-2.59,1.77,1.77,0,0,0-.4-1.22,1.31,1.31,0,0,0-1-.44,1.48,1.48,0,0,0-.72.18,2.1,2.1,0,0,0-.63.61,3.82,3.82,0,0,0-.54,1.09A3.91,3.91,0,0,0,346,106.3Z"/><path d="M355.19,106.56a4.63,4.63,0,0,1,1.11-3.18,3,3,0,0,1,2.38-1,2.46,2.46,0,0,1,1.86.74,2.77,2.77,0,0,1,.71,2,5,5,0,0,1-.44,2.11,3.39,3.39,0,0,1-1.27,1.49,3.18,3.18,0,0,1-1.73.52,2.82,2.82,0,0,1-1.36-.33,2.2,2.2,0,0,1-.93-.93A2.79,2.79,0,0,1,355.19,106.56Zm1.09-.11a2,2,0,0,0,.44,1.41,1.44,1.44,0,0,0,1.1.47,1.7,1.7,0,0,0,.69-.14,2.22,2.22,0,0,0,.64-.44,2.78,2.78,0,0,0,.5-.68,4.28,4.28,0,0,0,.34-.82,4.2,4.2,0,0,0,.19-1.17,2,2,0,0,0-.44-1.38,1.4,1.4,0,0,0-1.1-.49,1.75,1.75,0,0,0-.93.25,2.41,2.41,0,0,0-.77.73,3.47,3.47,0,0,0-.5,1.12A5.18,5.18,0,0,0,356.28,106.45Z"/><path d="M361.86,109.05l1.34-6.56h1l-.27,1.34a4.31,4.31,0,0,1,1-1.12,1.53,1.53,0,0,1,1-.37,1.9,1.9,0,0,1,.8.24l-.45,1a1,1,0,0,0-.62-.21,1.66,1.66,0,0,0-1.17.66,4.93,4.93,0,0,0-.95,2.35l-.54,2.63Z"/><path d="M365.93,109.05l1.34-6.56h1.09L367,109.05Zm1.59-7.79.26-1.26h1.08l-.26,1.26Z"/><path d="M368.65,109.64l1.1.11a1.38,1.38,0,0,0,.09.57.69.69,0,0,0,.33.3,1.84,1.84,0,0,0,.76.14,1.76,1.76,0,0,0,1.43-.53,4.15,4.15,0,0,0,.52-1.53l.11-.53a2.5,2.5,0,0,1-1.81.88,2.07,2.07,0,0,1-1.62-.73,3,3,0,0,1-.66-2.07,4.18,4.18,0,0,1,.52-2,4,4,0,0,1,1.23-1.4,2.63,2.63,0,0,1,1.46-.47,2.12,2.12,0,0,1,1.94,1.23l.22-1.08h1L374,108.82a5.29,5.29,0,0,1-.56,1.63,2.29,2.29,0,0,1-.95.9,3,3,0,0,1-1.42.33,3.73,3.73,0,0,1-1.32-.21,1.64,1.64,0,0,1-.83-.59,1.52,1.52,0,0,1-.28-.9A2,2,0,0,1,368.65,109.64Zm1.36-3.49a2.9,2.9,0,0,0,.13,1,1.6,1.6,0,0,0,.51.73,1.27,1.27,0,0,0,.75.25,1.76,1.76,0,0,0,1.06-.39,2.68,2.68,0,0,0,.86-1.19,4.12,4.12,0,0,0,.33-1.55,1.81,1.81,0,0,0-.44-1.29,1.4,1.4,0,0,0-1.08-.48,1.58,1.58,0,0,0-.77.22,2.29,2.29,0,0,0-.69.67,3.19,3.19,0,0,0-.49,1.07A4.14,4.14,0,0,0,370,106.15Z"/><path d="M375.53,109.05l1.34-6.56H378l-1.34,6.56Zm1.59-7.79.26-1.26h1.09l-.26,1.26Z"/><path d="M378.32,109.05l1.33-6.56h1l-.23,1.14a5.17,5.17,0,0,1,1.2-1,2.41,2.41,0,0,1,1.14-.31,1.69,1.69,0,0,1,1.22.43,1.54,1.54,0,0,1,.45,1.16,6.17,6.17,0,0,1-.16,1.15l-.81,4h-1.09l.85-4.16a5.08,5.08,0,0,0,.12-.89.67.67,0,0,0-.22-.53.87.87,0,0,0-.63-.21,2.11,2.11,0,0,0-1.49.62,3.92,3.92,0,0,0-1,2.12l-.62,3Z"/><path d="M389.49,108.24a4.61,4.61,0,0,1-1.09.73,2.8,2.8,0,0,1-1.12.23,1.94,1.94,0,0,1-1.43-.54,1.82,1.82,0,0,1-.54-1.36,2,2,0,0,1,.24-1,2,2,0,0,1,.65-.68,2.76,2.76,0,0,1,1-.36,10.62,10.62,0,0,1,1.39-.12,5,5,0,0,0,1.48-.22,3.16,3.16,0,0,0,.12-.76.73.73,0,0,0-.27-.61,1.73,1.73,0,0,0-1.11-.31,1.91,1.91,0,0,0-1.13.31,1.73,1.73,0,0,0-.63.89l-1.1-.1a2.94,2.94,0,0,1,1.07-1.5,3.13,3.13,0,0,1,1.84-.52,2.87,2.87,0,0,1,1.88.58,1.41,1.41,0,0,1,.53,1.13,5.77,5.77,0,0,1-.15,1.21l-.35,1.64a5.7,5.7,0,0,0-.17,1.26,4.18,4.18,0,0,0,.13.89h-1.1A3.92,3.92,0,0,1,389.49,108.24Zm.4-2.51a2.34,2.34,0,0,1-.49.14c-.17,0-.46.07-.87.1a7.41,7.41,0,0,0-1.35.22,1.14,1.14,0,0,0-.59.43,1.1,1.1,0,0,0-.2.64,1,1,0,0,0,.32.77,1.25,1.25,0,0,0,.9.3,2,2,0,0,0,1-.29,2,2,0,0,0,.79-.82A4.47,4.47,0,0,0,389.89,105.73Z"/><path d="M392,109.05l1.85-9h1.09l-1.85,9Z"/><rect class="cls-7" x="267.52" y="146.33" width="143.97" height="66.47"/><path d="M411,146.83v65.48H268V146.83H411m1-1H267v67.48H412V145.83Z"/><path d="M277.85,169.35l-2.34-9h1.2l1.34,5.93c.14.62.27,1.24.37,1.85.23-1,.36-1.52.4-1.67l1.68-6.11h1.41l1.27,4.58a26,26,0,0,1,.68,3.2c.11-.57.26-1.22.44-2l1.39-5.81h1.17l-2.42,9h-1.13l-1.86-6.9c-.15-.58-.25-.93-.27-1.06-.1.41-.18.77-.26,1.06l-1.88,6.9Z"/><path d="M292,167.24l1.12.14a2.81,2.81,0,0,1-1,1.56,3.25,3.25,0,0,1-4.06-.33,3.5,3.5,0,0,1-.82-2.48,3.69,3.69,0,0,1,.83-2.57,2.79,2.79,0,0,1,2.16-.92,2.69,2.69,0,0,1,2.09.9,3.59,3.59,0,0,1,.82,2.52c0,.06,0,.16,0,.29h-4.77A2.53,2.53,0,0,0,289,168a1.74,1.74,0,0,0,1.33.57,1.59,1.59,0,0,0,1-.32A2.07,2.07,0,0,0,292,167.24Zm-3.56-1.8H292a2.17,2.17,0,0,0-.41-1.24,1.63,1.63,0,0,0-1.34-.64,1.71,1.71,0,0,0-1.26.51A2.07,2.07,0,0,0,288.41,165.44Z"/><path d="M296.82,168.36l.16,1a4.44,4.44,0,0,1-.82.1,1.91,1.91,0,0,1-.92-.19,1.13,1.13,0,0,1-.46-.51,4.34,4.34,0,0,1-.13-1.31v-3.77h-.79v-.87h.79v-1.62l1.08-.67v2.29h1.09v.87h-1.09v3.83a1.87,1.87,0,0,0,.06.61.49.49,0,0,0,.18.22.77.77,0,0,0,.38.08A3.16,3.16,0,0,0,296.82,168.36Z"/><path d="M301.05,166.44l1.1-.1a2.64,2.64,0,0,0,.37,1.12,2,2,0,0,0,.89.7,3.54,3.54,0,0,0,2.53.07,1.68,1.68,0,0,0,.76-.56,1.32,1.32,0,0,0,.25-.78,1.19,1.19,0,0,0-.24-.74,1.83,1.83,0,0,0-.79-.54c-.24-.09-.76-.24-1.57-.44a8.39,8.39,0,0,1-1.71-.56,2.37,2.37,0,0,1-.94-.85,2.05,2.05,0,0,1-.31-1.12,2.31,2.31,0,0,1,.38-1.29,2.39,2.39,0,0,1,1.11-.9,4,4,0,0,1,1.62-.31,4.27,4.27,0,0,1,1.73.33,2.46,2.46,0,0,1,1.15.95,2.8,2.8,0,0,1,.44,1.43l-1.12.08a1.85,1.85,0,0,0-.62-1.29,2.28,2.28,0,0,0-1.54-.44,2.39,2.39,0,0,0-1.54.4,1.2,1.2,0,0,0-.49,1,1,1,0,0,0,.35.8,4.55,4.55,0,0,0,1.76.64,12.65,12.65,0,0,1,1.95.58,2.64,2.64,0,0,1,1.14.93,2.24,2.24,0,0,1,.37,1.28,2.51,2.51,0,0,1-.4,1.37,2.76,2.76,0,0,1-1.16,1,3.92,3.92,0,0,1-1.7.36,5,5,0,0,1-2-.36,2.8,2.8,0,0,1-1.27-1.08A3.12,3.12,0,0,1,301.05,166.44Z"/><path d="M309.54,161.57V160.3h1.09v1.27Zm0,7.78v-6.56h1.09v6.56Z"/><path d="M312.08,169.89l1.06.17a1,1,0,0,0,.36.72,1.76,1.76,0,0,0,1.11.31,1.86,1.86,0,0,0,1.16-.31,1.47,1.47,0,0,0,.55-.86,7.28,7.28,0,0,0,.08-1.43,2.21,2.21,0,0,1-1.77.86,2.38,2.38,0,0,1-2-1,3.89,3.89,0,0,1-.73-2.35,4.31,4.31,0,0,1,.34-1.73,2.63,2.63,0,0,1,1-1.22,2.54,2.54,0,0,1,1.48-.44,2.28,2.28,0,0,1,1.86.94v-.79h1v5.67a5.55,5.55,0,0,1-.3,2.17,2.23,2.23,0,0,1-1,1,3.27,3.27,0,0,1-1.63.37,3,3,0,0,1-1.85-.52A1.84,1.84,0,0,1,312.08,169.89ZM313,166a3,3,0,0,0,.5,1.89,1.58,1.58,0,0,0,1.25.59,1.61,1.61,0,0,0,1.26-.59,2.84,2.84,0,0,0,.5-1.85,2.74,2.74,0,0,0-.52-1.82,1.63,1.63,0,0,0-1.26-.61,1.54,1.54,0,0,0-1.23.61A2.74,2.74,0,0,0,313,166Z"/><path d="M319.14,169.35v-6.56h1v.93a2.28,2.28,0,0,1,2-1.08,2.53,2.53,0,0,1,1.07.22,1.59,1.59,0,0,1,.72.56,2.09,2.09,0,0,1,.34.82,6.45,6.45,0,0,1,.06,1.08v4h-1.08v-4a3.23,3.23,0,0,0-.13-1,1,1,0,0,0-.45-.53,1.34,1.34,0,0,0-.75-.2,1.72,1.72,0,0,0-1.2.45,2.24,2.24,0,0,0-.5,1.71v3.58Z"/><path d="M330.18,168.54a3.93,3.93,0,0,1-1.16.74,3.16,3.16,0,0,1-1.2.22,2.31,2.31,0,0,1-1.62-.53,1.78,1.78,0,0,1-.56-1.35,1.87,1.87,0,0,1,.21-.88,1.83,1.83,0,0,1,.56-.64,2.53,2.53,0,0,1,.78-.36,6.4,6.4,0,0,1,1-.17,9.94,9.94,0,0,0,1.94-.38v-.29a1.27,1.27,0,0,0-.3-1,1.8,1.8,0,0,0-1.24-.38,1.84,1.84,0,0,0-1.13.28,1.72,1.72,0,0,0-.54,1l-1.06-.15a2.75,2.75,0,0,1,.48-1.12,2.1,2.1,0,0,1,1-.67,4.24,4.24,0,0,1,1.45-.23,3.8,3.8,0,0,1,1.33.2,1.57,1.57,0,0,1,1.09,1.25,5.91,5.91,0,0,1,.06,1v1.48a18.44,18.44,0,0,0,.06,2,2.49,2.49,0,0,0,.28.79H330.4A2.19,2.19,0,0,1,330.18,168.54Zm-.09-2.48a8.54,8.54,0,0,1-1.77.42,3.92,3.92,0,0,0-.95.22,1,1,0,0,0-.43.36,1,1,0,0,0-.15.53,1,1,0,0,0,.33.74,1.38,1.38,0,0,0,1,.3,2.3,2.3,0,0,0,1.12-.28,1.76,1.76,0,0,0,.71-.77,2.66,2.66,0,0,0,.18-1.11Z"/><path d="M332.84,169.35v-9h1.09v9Z"/><path d="M275.9,184.53l1.85-9.05h2.66a5.45,5.45,0,0,1,1.46.14,2.74,2.74,0,0,1,1.24.68,3.11,3.11,0,0,1,.77,1.23,5,5,0,0,1,.26,1.65,5.73,5.73,0,0,1-1.17,3.57,4.57,4.57,0,0,1-1.09,1.07,4,4,0,0,1-1.34.57,6.69,6.69,0,0,1-1.46.14Zm1.4-1h1.39a7.09,7.09,0,0,0,1.68-.18,2.72,2.72,0,0,0,.79-.33,3.3,3.3,0,0,0,.77-.73,5,5,0,0,0,1-3.15,3.16,3.16,0,0,0-.37-1.69,1.81,1.81,0,0,0-1-.78,4.68,4.68,0,0,0-1.33-.14h-1.56Z"/><path d="M289.37,182.3l1.06.11a3.23,3.23,0,0,1-1.05,1.54,2.82,2.82,0,0,1-2,.73,2.52,2.52,0,0,1-1.3-.34,2.17,2.17,0,0,1-.91-1,3.37,3.37,0,0,1-.31-1.46,4.77,4.77,0,0,1,.49-2.08,3.47,3.47,0,0,1,1.26-1.51,3.09,3.09,0,0,1,1.66-.49,2.39,2.39,0,0,1,1.83.73,2.78,2.78,0,0,1,.69,2,5.69,5.69,0,0,1-.09,1H286a2.18,2.18,0,0,0,0,.35,2.07,2.07,0,0,0,.41,1.4,1.28,1.28,0,0,0,1,.49,1.93,1.93,0,0,0,1.1-.38A2.41,2.41,0,0,0,289.37,182.3Zm-3.16-1.62h3.59v-.25a1.82,1.82,0,0,0-.41-1.29,1.35,1.35,0,0,0-1.05-.45,1.93,1.93,0,0,0-1.28.5A2.91,2.91,0,0,0,286.21,180.68Z"/><path d="M291.45,184.53l1.85-9.05h1.09l-1.85,9.05Z"/><path d="M298.59,183.72a4.61,4.61,0,0,1-1.09.73,2.8,2.8,0,0,1-1.12.23,2,2,0,0,1-1.43-.53,1.86,1.86,0,0,1-.54-1.37,1.89,1.89,0,0,1,.89-1.65,2.59,2.59,0,0,1,1-.37,10.84,10.84,0,0,1,1.4-.12,4.93,4.93,0,0,0,1.47-.22,3.16,3.16,0,0,0,.12-.76.75.75,0,0,0-.27-.61,1.73,1.73,0,0,0-1.11-.31,1.86,1.86,0,0,0-1.12.31,1.69,1.69,0,0,0-.64.89l-1.1-.1a2.94,2.94,0,0,1,1.07-1.5,3.13,3.13,0,0,1,1.84-.52,2.87,2.87,0,0,1,1.88.58,1.38,1.38,0,0,1,.53,1.13,5.93,5.93,0,0,1-.15,1.22l-.35,1.63a5.77,5.77,0,0,0-.17,1.26,4.1,4.1,0,0,0,.13.89h-1.1A4.57,4.57,0,0,1,298.59,183.72Zm.41-2.51a2.63,2.63,0,0,1-.5.14c-.17,0-.46.07-.87.11a6.08,6.08,0,0,0-1.35.22,1.08,1.08,0,0,0-.59.42,1.12,1.12,0,0,0-.19.64,1,1,0,0,0,.31.77,1.26,1.26,0,0,0,.9.31,2,2,0,0,0,1-.3,2,2,0,0,0,.79-.82A4.61,4.61,0,0,0,299,181.21Z"/><path d="M300.73,187.06l.07-1.05a2.14,2.14,0,0,0,.65.1A.91.91,0,0,0,302,186a2.53,2.53,0,0,0,.58-.77l.35-.64L301.85,178h1.07l.49,3.32c.09.65.17,1.31.24,2l2.86-5.28h1.14l-4.08,7.43a4.65,4.65,0,0,1-1,1.44,1.67,1.67,0,0,1-1.06.35A2.1,2.1,0,0,1,300.73,187.06Z"/><path d="M310.74,184.53l1.84-9.05h1.09l-.65,3.23A3.91,3.91,0,0,1,314,178a2,2,0,0,1,.87-.2,1.91,1.91,0,0,1,1.5.69,2.94,2.94,0,0,1,.6,2,5,5,0,0,1-.24,1.6,4.41,4.41,0,0,1-.6,1.21,3.75,3.75,0,0,1-.73.79,3,3,0,0,1-.78.44,2.36,2.36,0,0,1-.76.14,1.86,1.86,0,0,1-1.12-.34,2.23,2.23,0,0,1-.75-1.05l-.25,1.24Zm1.61-2.69v.21a1.87,1.87,0,0,0,.39,1.28,1.25,1.25,0,0,0,1,.44,1.61,1.61,0,0,0,1.06-.41,3.06,3.06,0,0,0,.78-1.29,4.7,4.7,0,0,0,.31-1.6,2,2,0,0,0-.39-1.29,1.22,1.22,0,0,0-1-.45,1.57,1.57,0,0,0-1.09.46,3.59,3.59,0,0,0-.82,1.44A3.72,3.72,0,0,0,312.35,181.84Z"/><path d="M317.19,187.06l.07-1.05a2.14,2.14,0,0,0,.65.1.91.91,0,0,0,.54-.15,2.53,2.53,0,0,0,.58-.77l.35-.64L318.31,178h1.07l.48,3.32c.1.65.18,1.31.25,2L323,178h1.14L320,185.4a4.65,4.65,0,0,1-1,1.44,1.67,1.67,0,0,1-1.06.35A2.1,2.1,0,0,1,317.19,187.06Z"/><path d="M324.06,184.53l.26-1.26h1.24l-.27,1.26Zm1.08-5.29.26-1.27h1.23l-.25,1.27Z"/><path d="M333.17,183.62l-.18.92a2.89,2.89,0,0,1-.76.1,1.57,1.57,0,0,1-1-.32.83.83,0,0,1-.29-.68,7.29,7.29,0,0,1,.15-1l.78-3.81H331l.17-.87H332l.33-1.61,1.24-.77-.48,2.38h1.07l-.18.87h-1.07l-.74,3.62a7.69,7.69,0,0,0-.14.83.41.41,0,0,0,.11.3.54.54,0,0,0,.37.11A2.49,2.49,0,0,0,333.17,183.62Z"/><path d="M344,179.21h-5.83v-1H344Zm0,2.75h-5.83v-1H344Z"/><path d="M347.31,184.53l4.22-4.57-2.5-4.48h1.3l1.14,2.05.52.94c.1.2.22.45.34.73a18,18,0,0,1,1.38-1.63l1.94-2.09h1.54l-4.27,4.67,2.42,4.38h-1.28l-1.43-2.65c-.14-.26-.31-.59-.49-1a10.14,10.14,0,0,1-.8,1l-2.46,2.69Z"/><path d="M277.34,202.38a10.68,10.68,0,0,1-.94-4.37,9.83,9.83,0,0,1,.38-2.78,10.38,10.38,0,0,1,1.17-2.55,18,18,0,0,1,1.65-2.18h.85a12.29,12.29,0,0,0-1.49,2.18,12,12,0,0,0-1.14,2.75,10.53,10.53,0,0,0-.36,2.72,13.77,13.77,0,0,0,.7,4.23Z"/><path d="M280,199.71l1.84-9.05H283l-1.63,8h4.58l-.21,1Z"/><path d="M286.69,199.71l1.34-6.56h1.09l-1.34,6.56Zm1.59-7.79.26-1.26h1.09l-.26,1.26Z"/><path d="M292,198.8l-.19.92a2.87,2.87,0,0,1-.75.1,1.6,1.6,0,0,1-1-.32.86.86,0,0,1-.29-.68,6.4,6.4,0,0,1,.16-1l.77-3.81h-.86l.18-.87h.86l.33-1.61,1.25-.77-.49,2.38H293l-.18.87h-1.07l-.74,3.62a7.69,7.69,0,0,0-.14.83.38.38,0,0,0,.12.3.5.5,0,0,0,.36.11A2.57,2.57,0,0,0,292,198.8Z"/><path d="M297.6,197.48l1.06.11a3.23,3.23,0,0,1-1.05,1.54,2.84,2.84,0,0,1-2,.73,2.52,2.52,0,0,1-1.3-.34,2.19,2.19,0,0,1-.91-1,3.45,3.45,0,0,1-.31-1.47,4.77,4.77,0,0,1,.49-2.08,3.39,3.39,0,0,1,1.26-1.5,3,3,0,0,1,1.66-.5,2.39,2.39,0,0,1,1.83.73,2.78,2.78,0,0,1,.69,2,5.69,5.69,0,0,1-.09,1h-4.71a2.18,2.18,0,0,0,0,.35,2.07,2.07,0,0,0,.41,1.4,1.25,1.25,0,0,0,1,.49,1.93,1.93,0,0,0,1.1-.38A2.41,2.41,0,0,0,297.6,197.48Zm-3.16-1.62H298v-.25a1.82,1.82,0,0,0-.41-1.29,1.34,1.34,0,0,0-1.05-.44,1.92,1.92,0,0,0-1.28.49A3,3,0,0,0,294.44,195.86Z"/><path d="M299.77,199.71l1.33-6.56h1l-.27,1.34a4.68,4.68,0,0,1,1-1.12,1.62,1.62,0,0,1,1-.37,1.73,1.73,0,0,1,.8.25l-.44,1a1,1,0,0,0-.62-.21,1.66,1.66,0,0,0-1.18.66,4.94,4.94,0,0,0-.94,2.35l-.55,2.63Z"/><path d="M308.19,198.9a4.32,4.32,0,0,1-1.09.73,2.8,2.8,0,0,1-1.12.23,2,2,0,0,1-1.43-.53A1.86,1.86,0,0,1,304,198a1.91,1.91,0,0,1,.24-1,1.85,1.85,0,0,1,.65-.68,2.76,2.76,0,0,1,1-.37,10.62,10.62,0,0,1,1.39-.12,5,5,0,0,0,1.48-.22,3.16,3.16,0,0,0,.12-.76.73.73,0,0,0-.28-.61,1.68,1.68,0,0,0-1.1-.31,1.89,1.89,0,0,0-1.13.31,1.73,1.73,0,0,0-.63.89l-1.11-.1a3.06,3.06,0,0,1,1.07-1.5,3.18,3.18,0,0,1,1.85-.52,2.87,2.87,0,0,1,1.88.58,1.41,1.41,0,0,1,.53,1.13,5.85,5.85,0,0,1-.15,1.22l-.36,1.63a6.32,6.32,0,0,0-.16,1.26,4.1,4.1,0,0,0,.13.89h-1.1A3.8,3.8,0,0,1,308.19,198.9Zm.4-2.51a2.34,2.34,0,0,1-.49.14c-.17,0-.47.07-.87.11a6,6,0,0,0-1.35.22,1.09,1.09,0,0,0-.59.42,1.13,1.13,0,0,0-.2.64,1,1,0,0,0,.32.77,1.22,1.22,0,0,0,.9.31,2,2,0,0,0,1-.3,2,2,0,0,0,.79-.82A4.9,4.9,0,0,0,308.59,196.39Z"/><path d="M310.65,199.71l1.85-9.05h1.09l-1.85,9.05Z"/><path d="M313.39,199.71l1.85-9.05h1.09l-1.85,9.05Z"/><path d="M315.81,202.25l.07-1.05a2.48,2.48,0,0,0,.65.09.91.91,0,0,0,.54-.15,2.53,2.53,0,0,0,.58-.77l.35-.64-1.07-6.58H318l.48,3.32c.1.65.18,1.31.25,2l2.86-5.28h1.14l-4.08,7.43a4.65,4.65,0,0,1-1,1.44,1.68,1.68,0,0,1-1.06.36A2.35,2.35,0,0,1,315.81,202.25Z"/><path d="M325.82,199.71l1.84-9.05h1.09l-.7,3.47a4.39,4.39,0,0,1,1.13-.86,2.33,2.33,0,0,1,1.08-.27,1.7,1.7,0,0,1,1.23.43,1.51,1.51,0,0,1,.44,1.14,7.34,7.34,0,0,1-.19,1.27l-.79,3.87h-1.09l.81-4a7.66,7.66,0,0,0,.18-1.09.69.69,0,0,0-.22-.52.86.86,0,0,0-.63-.21,2.16,2.16,0,0,0-1.12.32,2.34,2.34,0,0,0-.84.87,6.64,6.64,0,0,0-.56,1.79l-.57,2.81Z"/><path d="M332.87,197.22A4.68,4.68,0,0,1,334,194a3,3,0,0,1,2.39-1,2.43,2.43,0,0,1,1.86.75,2.73,2.73,0,0,1,.71,2,5.1,5.1,0,0,1-.44,2.1,3.34,3.34,0,0,1-1.27,1.49,3.18,3.18,0,0,1-1.73.52,2.82,2.82,0,0,1-1.36-.33,2.2,2.2,0,0,1-.94-.92A2.94,2.94,0,0,1,332.87,197.22Zm1.09-.11a2,2,0,0,0,.44,1.41,1.41,1.41,0,0,0,1.1.48,1.72,1.72,0,0,0,.69-.15,2,2,0,0,0,.64-.44,2.85,2.85,0,0,0,.5-.68,4.32,4.32,0,0,0,.52-2,2,2,0,0,0-.43-1.38,1.4,1.4,0,0,0-1.1-.49,1.81,1.81,0,0,0-.94.25,2.61,2.61,0,0,0-.76.73,3.57,3.57,0,0,0-.5,1.12A5.18,5.18,0,0,0,334,197.11Z"/><path d="M339.46,199.71l1.84-9.05h1.09l-1.84,9.05Z"/><path d="M346.6,198.76a2.65,2.65,0,0,1-2,1.1,1.93,1.93,0,0,1-1.51-.69,3,3,0,0,1-.61-2A5,5,0,0,1,343,195a3.69,3.69,0,0,1,1.2-1.48,2.54,2.54,0,0,1,1.44-.5,2,2,0,0,1,1.81,1.18l.72-3.52h1.08l-1.84,9.05h-1Zm-3-1.8a3.45,3.45,0,0,0,.13,1.08,1.4,1.4,0,0,0,.45.66,1.15,1.15,0,0,0,.77.27,1.7,1.7,0,0,0,1.34-.8,4.11,4.11,0,0,0,.81-2.59,1.74,1.74,0,0,0-.4-1.22,1.3,1.3,0,0,0-1-.44,1.41,1.41,0,0,0-.71.18,2.13,2.13,0,0,0-.64.61,4.1,4.1,0,0,0-.54,1.09A3.91,3.91,0,0,0,343.61,197Z"/><path d="M355.12,198.8l-.18.92a2.89,2.89,0,0,1-.76.1,1.61,1.61,0,0,1-1-.32.86.86,0,0,1-.29-.68,8.06,8.06,0,0,1,.16-1l.78-3.81h-.86l.17-.87H354l.33-1.61,1.25-.77-.49,2.38h1.08L356,194h-1.07l-.74,3.62a7.69,7.69,0,0,0-.14.83.41.41,0,0,0,.11.3.54.54,0,0,0,.37.11A2.49,2.49,0,0,0,355.12,198.8Z"/><path d="M356,199.71l1.84-9.05h1.09l-.7,3.47a4.39,4.39,0,0,1,1.13-.86,2.33,2.33,0,0,1,1.08-.27,1.74,1.74,0,0,1,1.24.43,1.54,1.54,0,0,1,.44,1.14,7.69,7.69,0,0,1-.2,1.27l-.79,3.87H360l.82-4a8.71,8.71,0,0,0,.17-1.09.66.66,0,0,0-.22-.52.85.85,0,0,0-.62-.21,2.2,2.2,0,0,0-1.13.32,2.34,2.34,0,0,0-.84.87,7,7,0,0,0-.56,1.79l-.57,2.81Z"/><path d="M367.56,197.48l1.06.11a3.23,3.23,0,0,1-1.05,1.54,2.84,2.84,0,0,1-2,.73,2.56,2.56,0,0,1-1.31-.34,2.23,2.23,0,0,1-.9-1,3.31,3.31,0,0,1-.31-1.47,4.64,4.64,0,0,1,.49-2.08,3.44,3.44,0,0,1,1.25-1.5,3.05,3.05,0,0,1,1.67-.5,2.42,2.42,0,0,1,1.83.73,2.78,2.78,0,0,1,.68,2,6.83,6.83,0,0,1-.08,1h-4.71a2.26,2.26,0,0,0,0,.35,2.07,2.07,0,0,0,.42,1.4,1.25,1.25,0,0,0,1,.49,1.93,1.93,0,0,0,1.1-.38A2.41,2.41,0,0,0,367.56,197.48Zm-3.17-1.62H368c0-.12,0-.2,0-.25a1.87,1.87,0,0,0-.41-1.29,1.36,1.36,0,0,0-1.06-.44,1.9,1.9,0,0,0-1.27.49A3,3,0,0,0,364.39,195.86Z"/><path d="M373.25,197.47l1.09-.07a2,2,0,0,0,.15.82,1.14,1.14,0,0,0,.53.56,1.88,1.88,0,0,0,.91.22,1.66,1.66,0,0,0,1.08-.3.83.83,0,0,0,.15-1.25,3.6,3.6,0,0,0-1.09-.64,11.36,11.36,0,0,1-1.11-.53,1.81,1.81,0,0,1-.6-.6,1.48,1.48,0,0,1-.21-.79,1.76,1.76,0,0,1,.6-1.33,2.43,2.43,0,0,1,1.69-.56,2.62,2.62,0,0,1,1.84.58,2,2,0,0,1,.65,1.5l-1.07.07a1.23,1.23,0,0,0-.41-.93,1.52,1.52,0,0,0-1.09-.35,1.38,1.38,0,0,0-.88.26.76.76,0,0,0-.31.58.68.68,0,0,0,.27.54,4.52,4.52,0,0,0,.94.5,6.27,6.27,0,0,1,1.57.87,1.69,1.69,0,0,1,.52,1.25,1.82,1.82,0,0,1-.29,1,2.08,2.08,0,0,1-.89.75,3.26,3.26,0,0,1-1.41.28,3.18,3.18,0,0,1-1.89-.56A2,2,0,0,1,373.25,197.47Z"/><path d="M379.28,199.71l1.34-6.56h1.09l-1.34,6.56Zm1.59-7.79.26-1.26h1.08l-.26,1.26Z"/><path d="M382,200.31l1.1.1a1.43,1.43,0,0,0,.09.58.73.73,0,0,0,.33.29,1.86,1.86,0,0,0,.77.14,1.76,1.76,0,0,0,1.42-.53,4,4,0,0,0,.52-1.53l.11-.53a2.5,2.5,0,0,1-1.81.88,2.07,2.07,0,0,1-1.62-.73,3,3,0,0,1-.66-2.07,4.11,4.11,0,0,1,.52-2,3.78,3.78,0,0,1,1.23-1.4,2.57,2.57,0,0,1,1.46-.48,2.12,2.12,0,0,1,1.94,1.23l.22-1.08h1l-1.29,6.33a5.29,5.29,0,0,1-.56,1.63,2.38,2.38,0,0,1-.95.91,3.05,3.05,0,0,1-1.41.32,3.75,3.75,0,0,1-1.33-.21,1.64,1.64,0,0,1-.83-.59,1.48,1.48,0,0,1-.28-.9A2,2,0,0,1,382,200.31Zm1.36-3.5a3.12,3.12,0,0,0,.13,1,1.6,1.6,0,0,0,.51.73,1.23,1.23,0,0,0,.75.25,1.81,1.81,0,0,0,1.07-.39,2.56,2.56,0,0,0,.85-1.19,4.12,4.12,0,0,0,.33-1.55,1.8,1.8,0,0,0-.43-1.28,1.43,1.43,0,0,0-1.09-.48,1.48,1.48,0,0,0-.77.22,2.14,2.14,0,0,0-.69.66,3.19,3.19,0,0,0-.49,1.07A4.23,4.23,0,0,0,383.36,196.81Z"/><path d="M388.92,199.71l1.34-6.56h1L391,194.3a5.49,5.49,0,0,1,1.21-1,2.38,2.38,0,0,1,1.14-.31,1.66,1.66,0,0,1,1.22.44,1.52,1.52,0,0,1,.45,1.15,7.18,7.18,0,0,1-.16,1.15l-.81,4H393l.85-4.15a5.29,5.29,0,0,0,.12-.9.67.67,0,0,0-.22-.53.87.87,0,0,0-.63-.21,2.11,2.11,0,0,0-1.49.62,3.92,3.92,0,0,0-1,2.12l-.63,3.05Z"/><path d="M400.1,198.9a4.32,4.32,0,0,1-1.09.73,2.8,2.8,0,0,1-1.12.23,2,2,0,0,1-1.43-.53,1.86,1.86,0,0,1-.54-1.37,1.89,1.89,0,0,1,.89-1.65,2.76,2.76,0,0,1,1-.37,10.62,10.62,0,0,1,1.39-.12,5,5,0,0,0,1.48-.22,3.16,3.16,0,0,0,.12-.76.73.73,0,0,0-.28-.61,1.68,1.68,0,0,0-1.1-.31,1.89,1.89,0,0,0-1.13.31,1.73,1.73,0,0,0-.63.89l-1.11-.1a3.06,3.06,0,0,1,1.07-1.5,3.18,3.18,0,0,1,1.85-.52,2.87,2.87,0,0,1,1.88.58,1.41,1.41,0,0,1,.53,1.13,5.85,5.85,0,0,1-.15,1.22l-.36,1.63a6.32,6.32,0,0,0-.16,1.26,4.1,4.1,0,0,0,.13.89h-1.1A3.8,3.8,0,0,1,400.1,198.9Zm.4-2.51a2.34,2.34,0,0,1-.49.14c-.17,0-.47.07-.87.11a6,6,0,0,0-1.35.22,1.09,1.09,0,0,0-.59.42,1.13,1.13,0,0,0-.2.64,1,1,0,0,0,.32.77,1.22,1.22,0,0,0,.9.31,2,2,0,0,0,1-.3,2.08,2.08,0,0,0,.79-.82A4.9,4.9,0,0,0,400.5,196.39Z"/><path d="M402.56,199.71l1.85-9.05h1.09l-1.85,9.05Z"/><path d="M407.43,190.5a10.64,10.64,0,0,1,.95,4.36,10,10,0,0,1-.38,2.79,10.76,10.76,0,0,1-1.17,2.55,19.46,19.46,0,0,1-1.66,2.18h-.85a11.9,11.9,0,0,0,1.49-2.19,11.16,11.16,0,0,0,1.14-2.75,10.47,10.47,0,0,0,.35-2.72,14,14,0,0,0-.69-4.22Z"/><ellipse class="cls-8" cx="463.4" cy="95.23" rx="13.89" ry="14.26"/><path d="M463.4,81.47A13.77,13.77,0,1,1,450,95.23,13.6,13.6,0,0,1,463.4,81.47m0-1a14.76,14.76,0,1,0,14.4,14.76,14.58,14.58,0,0,0-14.4-14.76Z"/><ellipse class="cls-8" cx="463.4" cy="172.19" rx="13.89" ry="14.26"/><path d="M463.4,158.43A13.77,13.77,0,1,1,450,172.19a13.6,13.6,0,0,1,13.39-13.76m0-1a14.76,14.76,0,1,0,14.4,14.76,14.58,14.58,0,0,0-14.4-14.76Z"/><path class="cls-3" d="M231.55,119c-13.05,0-23.67-10.89-23.67-24.28s10.62-24.27,23.67-24.27,23.66,10.89,23.66,24.27S244.59,119,231.55,119Z"/><path d="M231.55,70.93c12.77,0,23.16,10.66,23.16,23.77s-10.39,23.78-23.16,23.78-23.17-10.67-23.17-23.78,10.39-23.77,23.17-23.77m0-1c-13.35,0-24.17,11.09-24.17,24.77s10.82,24.78,24.17,24.78,24.16-11.09,24.16-24.78-10.82-24.77-24.16-24.77Z"/><path class="cls-3" d="M181.68,108.44a14.26,14.26,0,1,1,13.89-14.26A14.1,14.1,0,0,1,181.68,108.44Z"/><path d="M181.68,80.42a13.76,13.76,0,1,1-13.4,13.76,13.59,13.59,0,0,1,13.4-13.76m0-1a14.76,14.76,0,1,0,14.39,14.76,14.58,14.58,0,0,0-14.39-14.76Z"/><ellipse class="cls-3" cx="585.76" cy="132.13" rx="23.15" ry="23.75"/><path d="M585.76,108.88c12.49,0,22.65,10.43,22.65,23.25s-10.16,23.25-22.65,23.25S563.11,145,563.11,132.13s10.16-23.25,22.65-23.25m0-1c-13.06,0-23.65,10.86-23.65,24.25s10.59,24.25,23.65,24.25,23.65-10.86,23.65-24.25-10.59-24.25-23.65-24.25Z"/><ellipse class="cls-3" cx="529.21" cy="131.07" rx="13.89" ry="14.26"/><path d="M529.21,117.32a13.76,13.76,0,1,1-13.4,13.75,13.59,13.59,0,0,1,13.4-13.75m0-1a14.76,14.76,0,1,0,14.39,14.75,14.58,14.58,0,0,0-14.39-14.75Z"/><text class="cls-9" transform="translate(458 110.83) scale(0.98 1)">*</text><text class="cls-9" transform="translate(521.1 140.35) scale(0.98 1)">+</text><text class="cls-9" transform="translate(173.57 103.45) scale(0.98 1)">+</text><text class="cls-9" transform="translate(458 187.79) scale(0.98 1)">*</text><path class="cls-8" d="M584.73,247.59a14.26,14.26,0,1,1,13.89-14.25A14.1,14.1,0,0,1,584.73,247.59Z"/><path d="M584.73,219.58a13.76,13.76,0,1,1-13.39,13.76,13.59,13.59,0,0,1,13.39-13.76m0-1a14.76,14.76,0,1,0,14.39,14.76,14.57,14.57,0,0,0-14.39-14.76Z"/><text class="cls-9" transform="translate(579.33 248.93) scale(0.98 1)">*</text><path d="M478.16,50.24l5-9.05h1.39L486,50.24h-1.14l-.43-2.6h-3.57l-1.42,2.6Zm3.22-3.54h2.92L484,44.43c-.13-.9-.21-1.65-.25-2.25a15.39,15.39,0,0,1-.88,1.84Z"/><path d="M487,50.24l1.34-6.56h1.09l-.22,1.08a4.62,4.62,0,0,1,1.09-1,2.06,2.06,0,0,1,1-.26,1.49,1.49,0,0,1,1,.32,1.53,1.53,0,0,1,.53.9,3.62,3.62,0,0,1,1-.92,2.3,2.3,0,0,1,1.13-.3,1.68,1.68,0,0,1,1.2.38,1.46,1.46,0,0,1,.41,1.1,6.3,6.3,0,0,1-.14,1l-.86,4.22h-1.09l.87-4.33a4.08,4.08,0,0,0,.12-.76.66.66,0,0,0-.2-.51.8.8,0,0,0-.56-.18,1.9,1.9,0,0,0-1,.3,2.14,2.14,0,0,0-.79.79,5.31,5.31,0,0,0-.49,1.51l-.65,3.18H490.8l.9-4.43a3.13,3.13,0,0,0,.1-.64.73.73,0,0,0-.2-.52.69.69,0,0,0-.51-.19,1.91,1.91,0,0,0-1,.3,2.31,2.31,0,0,0-.83.84,5.09,5.09,0,0,0-.52,1.54l-.64,3.1Z"/><path d="M496.79,52.76l1.85-9.08h1l-.19.92a4,4,0,0,1,1-.83,2,2,0,0,1,.94-.23,1.92,1.92,0,0,1,1.52.68,2.84,2.84,0,0,1,.6,2,5.06,5.06,0,0,1-.33,1.87,4.23,4.23,0,0,1-.81,1.36,3.42,3.42,0,0,1-1,.75,2.3,2.3,0,0,1-1,.24,1.94,1.94,0,0,1-1.78-1.2l-.73,3.57Zm2.16-5.2a3.4,3.4,0,0,0,.1,1,1.35,1.35,0,0,0,.5.65,1.26,1.26,0,0,0,.79.25,1.72,1.72,0,0,0,1.52-1.09,4.59,4.59,0,0,0,.58-2.21,1.91,1.91,0,0,0-.39-1.29,1.23,1.23,0,0,0-1-.45,1.41,1.41,0,0,0-.77.22,2.26,2.26,0,0,0-.66.68,3.94,3.94,0,0,0-.5,1.09A4,4,0,0,0,499,47.56Z"/><path d="M504.11,50.24,506,41.19H507l-1.84,9.05Z"/><path d="M506.89,50.24l1.34-6.56h1.09L508,50.24Zm1.59-7.79.26-1.26h1.08l-.26,1.26Z"/><path d="M512.22,49.34l-.18.91a2.89,2.89,0,0,1-.76.1,1.51,1.51,0,0,1-1-.32.83.83,0,0,1-.29-.68,7.29,7.29,0,0,1,.15-1l.78-3.81H510l.17-.87h.86l.34-1.61,1.24-.77-.49,2.38h1.08l-.18.87H512l-.74,3.62a8.14,8.14,0,0,0-.14.83.41.41,0,0,0,.11.3.5.5,0,0,0,.37.11A2.51,2.51,0,0,0,512.22,49.34Z"/><path d="M517.47,49.06a3.19,3.19,0,0,1-2.36,1.33,1.64,1.64,0,0,1-1.19-.43,1.41,1.41,0,0,1-.46-1.07,8.2,8.2,0,0,1,.21-1.42l.77-3.79h1.09l-.86,4.2a4.56,4.56,0,0,0-.11.81.78.78,0,0,0,.22.58.92.92,0,0,0,.65.21,1.94,1.94,0,0,0,.9-.23,2.35,2.35,0,0,0,.75-.62,3.13,3.13,0,0,0,.51-.92,7.29,7.29,0,0,0,.31-1.19l.58-2.84h1.09l-1.34,6.56h-1Z"/><path d="M524.28,49.29a2.61,2.61,0,0,1-2,1.1,1.93,1.93,0,0,1-1.51-.69,2.94,2.94,0,0,1-.61-2,5,5,0,0,1,.48-2.19,3.66,3.66,0,0,1,1.2-1.49,2.52,2.52,0,0,1,1.44-.49,1.92,1.92,0,0,1,1.8,1.17l.73-3.52h1.08l-1.84,9.05h-1Zm-3-1.8a3.56,3.56,0,0,0,.13,1.09,1.42,1.42,0,0,0,.45.65,1.15,1.15,0,0,0,.77.27,1.71,1.71,0,0,0,1.34-.79,4.14,4.14,0,0,0,.81-2.6,1.74,1.74,0,0,0-.4-1.22,1.3,1.3,0,0,0-1-.43,1.52,1.52,0,0,0-.71.17,2.13,2.13,0,0,0-.64.61,4.1,4.1,0,0,0-.54,1.09A3.91,3.91,0,0,0,521.29,47.49Z"/><path d="M531.52,48l1.06.12a3.26,3.26,0,0,1-1.05,1.53,2.84,2.84,0,0,1-2,.73,2.62,2.62,0,0,1-1.3-.33,2.27,2.27,0,0,1-.91-1,3.45,3.45,0,0,1-.31-1.47,4.67,4.67,0,0,1,.49-2.08,3.44,3.44,0,0,1,1.25-1.5,3.06,3.06,0,0,1,1.67-.49,2.39,2.39,0,0,1,1.83.72,2.78,2.78,0,0,1,.69,2,5.69,5.69,0,0,1-.09,1h-4.71a2.18,2.18,0,0,0,0,.35,2.07,2.07,0,0,0,.41,1.4,1.25,1.25,0,0,0,1,.49,1.93,1.93,0,0,0,1.1-.38A2.41,2.41,0,0,0,531.52,48Zm-3.17-1.62H532v-.25a1.82,1.82,0,0,0-.41-1.29,1.37,1.37,0,0,0-1-.44,1.92,1.92,0,0,0-1.28.49A3,3,0,0,0,528.35,46.39Z"/><path d="M541.43,49.43a4.32,4.32,0,0,1-1.09.73,2.8,2.8,0,0,1-1.12.23,2,2,0,0,1-1.43-.53,1.85,1.85,0,0,1-.54-1.37,1.91,1.91,0,0,1,.24-1,1.85,1.85,0,0,1,.65-.68,2.76,2.76,0,0,1,1-.37,10.62,10.62,0,0,1,1.39-.12,5,5,0,0,0,1.48-.22,3.16,3.16,0,0,0,.12-.76.73.73,0,0,0-.28-.61,1.68,1.68,0,0,0-1.1-.31,1.89,1.89,0,0,0-1.13.31,1.73,1.73,0,0,0-.63.89l-1.11-.1a3.06,3.06,0,0,1,1.07-1.5,3.18,3.18,0,0,1,1.85-.51,2.82,2.82,0,0,1,1.88.58,1.37,1.37,0,0,1,.53,1.12,5.85,5.85,0,0,1-.15,1.22l-.36,1.63a6.46,6.46,0,0,0-.17,1.26,4.24,4.24,0,0,0,.14.89h-1.11A3.88,3.88,0,0,1,541.43,49.43Zm.4-2.51a2.34,2.34,0,0,1-.49.14,8.46,8.46,0,0,1-.88.11,6.61,6.61,0,0,0-1.34.22,1.14,1.14,0,0,0-.59.42,1.13,1.13,0,0,0-.2.64,1,1,0,0,0,.32.77,1.22,1.22,0,0,0,.9.31,2,2,0,0,0,1-.3,2.05,2.05,0,0,0,.79-.81A5,5,0,0,0,541.83,46.92Z"/><path d="M548.29,49.29a2.58,2.58,0,0,1-1.95,1.1,2,2,0,0,1-1.52-.69,2.94,2.94,0,0,1-.6-2,5,5,0,0,1,.48-2.19A3.73,3.73,0,0,1,545.89,44a2.57,2.57,0,0,1,1.45-.49,1.94,1.94,0,0,1,1.8,1.17l.72-3.52H551l-1.85,9.05h-1Zm-3-1.8a3.9,3.9,0,0,0,.13,1.09,1.37,1.37,0,0,0,.46.65,1.12,1.12,0,0,0,.76.27,1.71,1.71,0,0,0,1.34-.79,4.14,4.14,0,0,0,.81-2.6,1.74,1.74,0,0,0-.4-1.22,1.27,1.27,0,0,0-1-.43,1.55,1.55,0,0,0-.71.17,2.25,2.25,0,0,0-.64.61,3.82,3.82,0,0,0-.53,1.09A3.66,3.66,0,0,0,545.3,47.49Z"/><path d="M548.93,52.71l.2-1a2.46,2.46,0,0,0,.66.1.71.71,0,0,0,.56-.24,3.47,3.47,0,0,0,.43-1.31l1.34-6.63h1.09l-1.38,6.83a4.9,4.9,0,0,1-.6,1.74,1.48,1.48,0,0,1-1.26.62A4.12,4.12,0,0,1,548.93,52.71Zm3.46-10.26.26-1.26h1.07l-.26,1.26Z"/><path d="M558,49.06a3.19,3.19,0,0,1-2.36,1.33A1.64,1.64,0,0,1,554.4,50a1.41,1.41,0,0,1-.46-1.07,8.2,8.2,0,0,1,.21-1.42l.77-3.79H556l-.86,4.2a4.56,4.56,0,0,0-.11.81.78.78,0,0,0,.22.58.92.92,0,0,0,.65.21,2,2,0,0,0,.9-.23,2.35,2.35,0,0,0,.75-.62,3.13,3.13,0,0,0,.51-.92,8.53,8.53,0,0,0,.31-1.19l.58-2.84h1.09l-1.34,6.56h-1Z"/><path d="M560.54,48l1.09-.07a2,2,0,0,0,.15.82,1.14,1.14,0,0,0,.53.56,1.78,1.78,0,0,0,.91.22,1.66,1.66,0,0,0,1.08-.3.85.85,0,0,0,.15-1.25,3.6,3.6,0,0,0-1.09-.64,11.36,11.36,0,0,1-1.11-.53,1.81,1.81,0,0,1-.6-.6,1.47,1.47,0,0,1-.21-.78,1.76,1.76,0,0,1,.6-1.34,2.42,2.42,0,0,1,1.69-.55,2.62,2.62,0,0,1,1.83.57,2,2,0,0,1,.66,1.5l-1.07.08a1.23,1.23,0,0,0-.41-.94,1.57,1.57,0,0,0-1.09-.35,1.3,1.3,0,0,0-.88.27.72.72,0,0,0-.31.57.68.68,0,0,0,.27.54,4.15,4.15,0,0,0,.93.5,5.83,5.83,0,0,1,1.58.88,1.65,1.65,0,0,1,.52,1.24,1.82,1.82,0,0,1-.29,1,2.08,2.08,0,0,1-.89.75,3.27,3.27,0,0,1-1.42.28,3.15,3.15,0,0,1-1.88-.56A2,2,0,0,1,560.54,48Z"/><path d="M569.16,49.34l-.18.91a2.94,2.94,0,0,1-.76.1,1.56,1.56,0,0,1-1-.32.86.86,0,0,1-.29-.68,8.06,8.06,0,0,1,.16-1l.78-3.81H567l.17-.87H568l.33-1.61,1.25-.77-.49,2.38h1.08l-.19.87h-1.06l-.74,3.62A5.87,5.87,0,0,0,568,49a.41.41,0,0,0,.11.3.47.47,0,0,0,.36.11A2.54,2.54,0,0,0,569.16,49.34Z"/><path d="M570,50.24l1.34-6.56h1.09l-.22,1.08a4.43,4.43,0,0,1,1.09-1,2,2,0,0,1,1-.26,1.52,1.52,0,0,1,1,.32,1.58,1.58,0,0,1,.53.9,3.49,3.49,0,0,1,1-.92,2.28,2.28,0,0,1,1.13-.3,1.69,1.69,0,0,1,1.2.38,1.46,1.46,0,0,1,.4,1.1,6,6,0,0,1-.13,1l-.87,4.22h-1.09l.88-4.33a4.08,4.08,0,0,0,.12-.76.66.66,0,0,0-.2-.51.8.8,0,0,0-.56-.18,2,2,0,0,0-1,.3,2.19,2.19,0,0,0-.78.79,5.31,5.31,0,0,0-.49,1.51l-.65,3.18h-1.09l.9-4.43a4.06,4.06,0,0,0,.1-.64.73.73,0,0,0-.2-.52.69.69,0,0,0-.51-.19,1.91,1.91,0,0,0-1,.3,2.31,2.31,0,0,0-.83.84,5.09,5.09,0,0,0-.52,1.54l-.64,3.1Z"/><path d="M585,48l1.07.12A3.36,3.36,0,0,1,585,49.66a2.82,2.82,0,0,1-2,.73,2.62,2.62,0,0,1-1.3-.33,2.19,2.19,0,0,1-.9-1,3.31,3.31,0,0,1-.32-1.47,4.81,4.81,0,0,1,.49-2.08,3.39,3.39,0,0,1,1.26-1.5,3,3,0,0,1,1.67-.49,2.38,2.38,0,0,1,1.82.72,2.78,2.78,0,0,1,.69,2,5.69,5.69,0,0,1-.09,1h-4.71c0,.13,0,.24,0,.35a2.13,2.13,0,0,0,.41,1.4,1.25,1.25,0,0,0,1,.49,1.93,1.93,0,0,0,1.1-.38A2.41,2.41,0,0,0,585,48Zm-3.16-1.62h3.59v-.25a1.82,1.82,0,0,0-.41-1.29,1.37,1.37,0,0,0-1-.44,1.88,1.88,0,0,0-1.27.49A3,3,0,0,0,581.85,46.39Z"/><path d="M587.18,50.24l1.34-6.56h1l-.23,1.15a5.47,5.47,0,0,1,1.2-1,2.44,2.44,0,0,1,1.15-.3,1.67,1.67,0,0,1,1.22.43,1.55,1.55,0,0,1,.44,1.15,6.07,6.07,0,0,1-.16,1.15l-.81,4h-1.09l.85-4.15a5.58,5.58,0,0,0,.13-.9.72.72,0,0,0-.22-.53.89.89,0,0,0-.64-.2,2.11,2.11,0,0,0-1.49.61,4,4,0,0,0-1,2.12l-.62,3.05Z"/><path d="M596.59,49.34l-.18.91a2.94,2.94,0,0,1-.76.1,1.54,1.54,0,0,1-1-.32.86.86,0,0,1-.29-.68,8.06,8.06,0,0,1,.16-1l.78-3.81h-.86l.17-.87h.86l.33-1.61L597,41.3l-.49,2.38h1.07l-.18.87h-1.06l-.74,3.62a5.87,5.87,0,0,0-.14.83.41.41,0,0,0,.11.3.47.47,0,0,0,.36.11A2.54,2.54,0,0,0,596.59,49.34Z"/><path d="M506.35,65.42l-.55-9.05H507l.21,4.48q0,.32.06,1.74c0,.26,0,.45,0,.56s0,.27,0,.61c.49-1,.85-1.76,1.06-2.18L511,56.37h1.22l.29,5.29c0,.61.06,1.34.07,2.19.07-.21.2-.52.39-.94.29-.67.51-1.15.65-1.44l2.51-5.1h1.21l-4.49,9.05H511.6l-.3-5.48c0-.47-.05-1-.06-1.73-.25.57-.45,1-.62,1.33l-3.06,5.88Z"/><path d="M520.79,63.19l1.06.12a3.21,3.21,0,0,1-1.05,1.53,2.84,2.84,0,0,1-2,.73,2.62,2.62,0,0,1-1.3-.33,2.22,2.22,0,0,1-.91-1,3.45,3.45,0,0,1-.31-1.47,4.67,4.67,0,0,1,.49-2.08,3.49,3.49,0,0,1,1.25-1.5,3,3,0,0,1,1.67-.49,2.36,2.36,0,0,1,1.83.73,2.74,2.74,0,0,1,.69,2,5.61,5.61,0,0,1-.09,1h-4.71a2.24,2.24,0,0,0,0,.35,2.07,2.07,0,0,0,.41,1.4,1.25,1.25,0,0,0,1,.49,1.93,1.93,0,0,0,1.1-.38A2.41,2.41,0,0,0,520.79,63.19Zm-3.17-1.62h3.59c0-.11,0-.2,0-.25a1.82,1.82,0,0,0-.41-1.28,1.35,1.35,0,0,0-1-.45,1.92,1.92,0,0,0-1.28.49A3,3,0,0,0,517.62,61.57Z"/><path d="M525.5,64.52l-.18.91a2.91,2.91,0,0,1-.76.11,1.53,1.53,0,0,1-1-.33.82.82,0,0,1-.29-.67,6.28,6.28,0,0,1,.16-1l.77-3.81h-.86l.18-.87h.86l.33-1.61,1.25-.77-.49,2.38h1.07l-.18.87h-1.07l-.74,3.63a7.71,7.71,0,0,0-.14.82.4.4,0,0,0,.12.31.5.5,0,0,0,.36.1A2.46,2.46,0,0,0,525.5,64.52Z"/><path d="M525.35,65.57l4.75-9.36H531l-4.75,9.36Z"/><path d="M530,65.42l1.84-9.05h2.67a6,6,0,0,1,1.46.14,3,3,0,0,1,1.24.68,3.22,3.22,0,0,1,.77,1.23,5,5,0,0,1,.26,1.65,5.73,5.73,0,0,1-.33,2,5.53,5.53,0,0,1-.84,1.58,4.76,4.76,0,0,1-1.09,1.07,3.93,3.93,0,0,1-1.35.57,6,6,0,0,1-1.45.14Zm1.39-1h1.4a7.09,7.09,0,0,0,1.68-.18,2.14,2.14,0,0,0,.78-.33,3,3,0,0,0,.78-.73,5.05,5.05,0,0,0,.73-1.38A5.14,5.14,0,0,0,537,60a3.18,3.18,0,0,0-.38-1.69,1.79,1.79,0,0,0-1-.78,4.73,4.73,0,0,0-1.33-.14h-1.56Z"/><path d="M538.72,65.42l1.34-6.56h1l-.27,1.35a4.38,4.38,0,0,1,1-1.13,1.58,1.58,0,0,1,1-.36,1.9,1.9,0,0,1,.8.24L543,60a1,1,0,0,0-.62-.21,1.64,1.64,0,0,0-1.17.65,5,5,0,0,0-1,2.35l-.54,2.63Z"/><path d="M542.42,68l.07-1a2.5,2.5,0,0,0,.65.1.91.91,0,0,0,.54-.16,2.46,2.46,0,0,0,.58-.76l.35-.65-1.07-6.58h1.07l.49,3.32c.09.66.17,1.31.24,2l2.86-5.29h1.14l-4.08,7.44a4.71,4.71,0,0,1-1,1.43,1.68,1.68,0,0,1-1.06.36A2.35,2.35,0,0,1,542.42,68Z"/><path d="M552.42,65.42l1.34-6.56h1.09L554.63,60a4.46,4.46,0,0,1,1.08-1,2.2,2.2,0,0,1,1-.26,1.52,1.52,0,0,1,1,.32,1.58,1.58,0,0,1,.53.91,3.54,3.54,0,0,1,1-.93,2.28,2.28,0,0,1,1.13-.3,1.65,1.65,0,0,1,1.2.39,1.43,1.43,0,0,1,.4,1.09,6,6,0,0,1-.13,1L561,65.42H560l.88-4.33a4.08,4.08,0,0,0,.12-.76.68.68,0,0,0-.2-.51.8.8,0,0,0-.56-.18,2,2,0,0,0-1,.3,2.19,2.19,0,0,0-.78.79,5.31,5.31,0,0,0-.49,1.51l-.65,3.18h-1.09l.9-4.42a4.14,4.14,0,0,0,.1-.65.73.73,0,0,0-.2-.52.69.69,0,0,0-.51-.19,1.91,1.91,0,0,0-1,.3,2.31,2.31,0,0,0-.83.84,5.09,5.09,0,0,0-.52,1.54l-.64,3.1Z"/><path d="M562.66,65.42,564,58.86h1.09l-1.34,6.56Zm1.59-7.78.26-1.27h1.09l-.26,1.27Z"/><path d="M565,65.42l2.78-3.32-1.59-3.24h1.2L568,60c.2.44.38.86.55,1.26l1.84-2.43h1.33L569,62.18l1.62,3.24h-1.21l-.64-1.33c-.13-.28-.29-.64-.46-1.06l-1.9,2.39Z"/><text class="cls-10" transform="translate(485.84 291.66) scale(0.98 1)">Feedback<tspan class="cls-11" x="55.56" y="0"> </tspan><tspan x="58.6" y="0">Amount</tspan></text><line class="cls-12" x1="538.46" y1="65.71" x2="536.56" y2="66.33"/><line class="cls-13" x1="532.73" y1="67.58" x2="481.07" y2="84.42"/><line class="cls-12" x1="479.15" y1="85.04" x2="477.25" y2="85.66"/><polygon class="cls-14" points="478.62 81.71 478.31 85.31 480.69 88.05 472.14 87.32 478.62 81.71"/><line class="cls-12" x1="538.46" y1="65.71" x2="537.36" y2="67.38"/><line class="cls-15" x1="535.11" y1="70.76" x2="477.86" y2="156.98"/><line class="cls-12" x1="476.74" y1="158.67" x2="475.63" y2="160.33"/><polygon class="cls-14" points="474.25 156.38 476.24 159.41 479.8 160.07 472.66 164.81 474.25 156.38"/><line class="cls-12" x1="535.89" y1="282.36" x2="537.33" y2="280.97"/><line class="cls-16" x1="540.17" y1="278.2" x2="567.22" y2="251.97"/><line class="cls-12" x1="568.64" y1="250.59" x2="570.08" y2="249.2"/><polygon class="cls-14" points="570.58 253.35 569.28 249.97 565.94 248.57 573.93 245.46 570.58 253.35"/><line class="cls-17" x1="110.73" y1="94.18" x2="155.86" y2="93.76"/><polygon points="150.31 101.22 153.39 93.78 150.18 86.41 167.8 93.65 150.31 101.22"/><line class="cls-17" x1="196.07" y1="94.18" x2="219.09" y2="94.18"/><polygon points="213.48 101.58 216.62 94.18 213.48 86.77 231.03 94.18 213.48 101.58"/><line class="cls-17" x1="404.8" y1="94.18" x2="437.07" y2="94.95"/><polygon points="431.28 102.22 434.6 94.89 431.63 87.41 449.01 95.23 431.28 102.22"/><line class="cls-17" x1="474.71" y1="95.23" x2="510.81" y2="117.44"/><polygon points="502.15 120.8 508.71 116.14 509.91 108.19 520.98 123.69 502.15 120.8"/><line class="cls-17" x1="401.71" y1="169.03" x2="437.07" y2="169.82"/><polygon points="431.29 177.1 434.6 169.76 431.62 162.29 449.01 170.08 431.29 177.1"/><line class="cls-17" x1="474.71" y1="172.19" x2="511.44" y2="144.58"/><polygon points="511.4 153.87 509.46 146.06 502.5 142.03 520.98 137.4 511.4 153.87"/><line class="cls-17" x1="543.6" y1="131.07" x2="573.82" y2="131.07"/><polygon points="568.2 138.48 571.35 131.07 568.2 123.67 585.76 131.07 568.2 138.48"/><line class="cls-17" x1="583.7" y1="131.07" x2="692.06" y2="131.07"/><polygon points="686.44 138.48 689.59 131.07 686.44 123.67 704 131.07 686.44 138.48"/><line class="cls-17" x1="181.68" y1="233.34" x2="181.68" y2="120.88"/><polygon points="189.09 126.49 181.68 123.35 174.27 126.49 181.68 108.94 189.09 126.49"/><line class="cls-17" x1="230" y1="169.03" x2="255.08" y2="169.03"/><polygon points="249.46 176.43 252.61 169.03 249.46 161.62 267.02 169.03 249.46 176.43"/><line class="cls-17" x1="230" y1="94.18" x2="254.05" y2="94.18"/><polygon points="248.43 101.58 251.58 94.18 248.43 86.77 265.99 94.18 248.43 101.58"/><line class="cls-17" x1="180.65" y1="233.34" x2="574.45" y2="233.34"/><line class="cls-17" x1="230" y1="94.18" x2="231.03" y2="169.03"/><line class="cls-17" x1="585.76" y1="131.07" x2="585.76" y2="211.91"/><polygon points="578.35 206.29 585.76 209.44 593.16 206.29 585.76 223.85 578.35 206.29"/><line class="cls-17" x1="110.73" y1="157.43" x2="110.73" y2="157.43"/><rect class="cls-18" x="0.5" y="0.5" width="710" height="337"/></svg>