<svg id="Layer_1" data-name="Layer 1" xmlns="http://www.w3.org/2000/svg" viewBox="0 0 698 414"><defs><style>.cls-1{font-size:332.74px;letter-spacing:0.09em;}.cls-1,.cls-11,.cls-14,.cls-17,.cls-21,.cls-24,.cls-28,.cls-4,.cls-7{fill:#671d25;font-family:ChalkboardSE-Light, Chalkboard SE;font-weight:300;}.cls-2{letter-spacing:0.07em;}.cls-3{letter-spacing:0.05em;}.cls-4{opacity:0.9;font-size:167.07px;letter-spacing:0.09em;}.cls-5{letter-spacing:0.07em;}.cls-6{letter-spacing:0.05em;}.cls-7{opacity:0.8;font-size:80px;letter-spacing:0.16em;}.cls-8{letter-spacing:0.15em;}.cls-9{letter-spacing:0.12em;}.cls-10{letter-spacing:0.16em;}.cls-11{opacity:0.7;font-size:44.06px;letter-spacing:0.16em;}.cls-12{letter-spacing:0.15em;}.cls-13{letter-spacing:0.12em;}.cls-14{opacity:0.6;font-size:37.63px;letter-spacing:0.16em;}.cls-15{letter-spacing:0.15em;}.cls-16{letter-spacing:0.12em;}.cls-17{opacity:0.5;font-size:28.13px;letter-spacing:0.16em;}.cls-18{letter-spacing:0.15em;}.cls-19{letter-spacing:0.12em;}.cls-20{letter-spacing:0.16em;}.cls-21{opacity:0.4;font-size:18.49px;letter-spacing:0.16em;}.cls-22{letter-spacing:0.15em;}.cls-23{letter-spacing:0.12em;}.cls-24{opacity:0.3;font-size:12.06px;letter-spacing:0.16em;}.cls-25{letter-spacing:0.15em;}.cls-26{letter-spacing:0.12em;}.cls-27{letter-spacing:0.16em;}.cls-28{opacity:0.2;font-size:5.63px;letter-spacing:0.16em;}.cls-29{letter-spacing:0.15em;}.cls-30{letter-spacing:0.12em;}</style></defs><text class="cls-1" transform="translate(0 276.86) scale(0.18 1)">He<tspan class="cls-2" x="441.23" y="0">l</tspan><tspan class="cls-3" x="565.71" y="0">l</tspan><tspan x="682.47" y="0">o!</tspan></text><text class="cls-4" transform="translate(198 272.01) scale(0.27 1)">He<tspan class="cls-5" x="221.54" y="0">l</tspan><tspan class="cls-6" x="284.04" y="0">l</tspan><tspan x="342.66" y="0">o!</tspan></text><text class="cls-7" transform="translate(356 227.01) scale(0.27 1)">He<tspan class="cls-8" x="117.6" y="0">l</tspan><tspan class="cls-9" x="153.29" y="0">l</tspan><tspan class="cls-10" x="187.12" y="0">o!</tspan></text><text class="cls-11" transform="translate(445.5 186.66) scale(0.33 1)">He<tspan class="cls-12" x="64.77" y="0">l</tspan><tspan class="cls-13" x="84.43" y="0">l</tspan><tspan x="103.06" y="0">o!</tspan></text><text class="cls-14" transform="translate(515.5 206.31) scale(0.26 1)">He<tspan class="cls-15" x="55.32" y="0">l</tspan><tspan class="cls-16" x="72.11" y="0">l</tspan><tspan x="88.02" y="0">o!</tspan></text><text class="cls-17" transform="translate(569.5 221.4) scale(0.24 1)">He<tspan class="cls-18" x="41.35" y="0">l</tspan><tspan class="cls-19" x="53.9" y="0">l</tspan><tspan class="cls-20" x="65.8" y="0">o!</tspan></text><text class="cls-21" transform="translate(615 236.38) scale(0.32 1)">He<tspan class="cls-22" x="27.18" y="0">l</tspan><tspan class="cls-23" x="35.42" y="0">l</tspan><tspan x="43.24" y="0">o!</tspan></text><text class="cls-24" transform="translate(656 242.03) scale(0.39 1)">He<tspan class="cls-25" x="17.72" y="0">l</tspan><tspan class="cls-26" x="23.1" y="0">l</tspan><tspan class="cls-27" x="28.2" y="0">o!</tspan></text><text class="cls-28" transform="translate(686 248.68) scale(0.63 1)">He<tspan class="cls-29" x="8.27" y="0">l</tspan><tspan class="cls-30" x="10.78" y="0">l</tspan><tspan x="13.16" y="0">o!</tspan></text></svg>