<svg id="Layer_1" data-name="Layer 1" xmlns="http://www.w3.org/2000/svg" viewBox="0 0 1339 562"><defs><style>.cls-1{fill:#fff;}.cls-2{fill:#666;}.cls-3{font-size:46px;font-family:AvenirNext-Regular, Avenir Next;letter-spacing:0.1em;}.cls-4{letter-spacing:0.09em;}.cls-5{letter-spacing:0.08em;}.cls-6{letter-spacing:0.1em;}.cls-7{letter-spacing:0.08em;}.cls-8{letter-spacing:0.08em;}.cls-9{letter-spacing:0.1em;}.cls-10{fill:#7ac943;}.cls-11{fill:#3fa9f5;}.cls-12{fill:#ff931e;}.cls-13{fill:#ff1d25;}.cls-14{fill:#ff7bac;}.cls-15{fill:#bdccd4;}.cls-16{fill:#fcee21;}.cls-17{fill:aqua;}</style></defs><rect class="cls-1" x="2.5" y="295.5" width="1334" height="264"/><path class="cls-2" d="M1350,327V586H21V327H1350m5-5H16V591H1355V322Z" transform="translate(-16 -29)"/><text class="cls-3" transform="translate(378.95 355.47)">Multi<tspan class="cls-4" x="128.15" y="0">-</tspan><tspan x="146.92" y="0">Sou</tspan><tspan class="cls-5" x="241.5" y="0">r</tspan><tspan x="261.83" y="0">ce C</tspan><tspan class="cls-5" x="374.16" y="0">r</tspan><tspan class="cls-6" x="394.49" y="0">escedno</tspan></text><rect class="cls-1" x="2.5" y="2.5" width="1334" height="264"/><path class="cls-2" d="M1350,34V293H21V34H1350m5-5H16V298H1355V29Z" transform="translate(-16 -29)"/><text class="cls-3" transform="translate(171.95 62.47)">Single Sou<tspan class="cls-5" x="269.42" y="0">r</tspan><tspan x="289.75" y="0">ce C</tspan><tspan class="cls-7" x="402.08" y="0">r</tspan><tspan x="422.41" y="0">escendo / Dec</tspan><tspan class="cls-8" x="786.55" y="0">r</tspan><tspan class="cls-9" x="806.88" y="0">escendo</tspan></text><path class="cls-10" d="M76.72,560.3,1293.4,551c13.15-.1,24.6.65,24.6,1.61V571.2c0,1-11.45,1.71-24.6,1.61L76.72,563.53C50.1,563.32,50.1,560.5,76.72,560.3Z" transform="translate(-16 -29)"/><path class="cls-11" d="M368.27,520.41,1299.18,506c10.06-.15,18.82,1,18.82,2.51v28.79c0,1.49-8.76,2.65-18.82,2.5l-930.91-14.4C347.91,525.1,347.91,520.72,368.27,520.41Z" transform="translate(-16 -29)"/><path class="cls-12" d="M686.1,488l615.46-5c6.65-.05,12.44.36,12.44.88v10.06c0,.52-5.79.93-12.44.88l-615.46-5C672.63,489.68,672.63,488.15,686.1,488Z" transform="translate(-16 -29)"/><path class="cls-13" d="M859.31,466.05,1305,461.77c4.82,0,9,.3,9,.74v8.56c0,.45-4.19.79-9,.75l-445.68-4.28C849.56,467.44,849.56,466.14,859.31,466.05Z" transform="translate(-16 -29)"/><path class="cls-14" d="M961.67,444.58,1307,440c3.73-.05,7,.32,7,.8V450c0,.48-3.25.86-7,.81l-345.35-4.63C954.11,446.09,954.11,444.68,961.67,444.58Z" transform="translate(-16 -29)"/><path class="cls-15" d="M1063,422.58,1309,418c2.65-.05,5,.32,5,.8V428c0,.48-2.32.86-5,.81l-246-4.63C1057.65,424.09,1057.65,422.68,1063,422.58Z" transform="translate(-16 -29)"/><path class="cls-16" d="M1137.83,400.11l172.68-5.72c1.86-.06,3.49.4,3.49,1v11.44c0,.6-1.62,1.06-3.49,1l-172.68-5.72C1134.06,402,1134.06,400.23,1137.83,400.11Z" transform="translate(-16 -29)"/><path class="cls-17" d="M1188,363.64l123.47-12.75a2.26,2.26,0,0,1,2.5,2.22V378.6a2.24,2.24,0,0,1-2.5,2.21L1188,368.07A2.22,2.22,0,0,1,1188,363.64Z" transform="translate(-16 -29)"/><path class="cls-10" d="M1265.52,209.18,733.75,264.87A9.73,9.73,0,0,1,723,255.19V143.81a9.73,9.73,0,0,1,10.75-9.68l531.77,55.68C1277.15,191,1277.15,208,1265.52,209.18Z" transform="translate(-16 -29)"/><path class="cls-10" d="M101.48,189.81l531.77-55.68A9.73,9.73,0,0,1,644,143.81V255.19a9.73,9.73,0,0,1-10.75,9.68L101.48,209.18C89.85,208,89.85,191,101.48,189.81Z" transform="translate(-16 -29)"/></svg>