<?xml version="1.0" encoding="utf-8"?>
<!-- Generator: Adobe Illustrator 24.1.2, SVG Export Plug-In . SVG Version: 6.00 Build 0)  -->
<svg version="1.1" id="Layer_1" xmlns="http://www.w3.org/2000/svg" xmlns:xlink="http://www.w3.org/1999/xlink" x="0px" y="0px"
	 viewBox="0 0 1332 320.5" style="enable-background:new 0 0 1332 320.5;" xml:space="preserve">
<style type="text/css">
	.st0{fill:#EA00F4;}
	.st1{fill:none;}
	.st2{fill:#FFFFFF;}
	.st3{font-family:'FiraSans-Regular';}
	.st4{font-size:96px;}
	.st5{fill:#00A7D4;}
	.st6{fill:#5F4000;stroke:#940021;stroke-width:15;stroke-miterlimit:10;}
	.st7{fill:none;stroke:#940021;stroke-width:15;stroke-miterlimit:10;}
</style>
<g>
	<rect x="0.5" y="0.5" class="st0" width="433" height="190"/>
	<path d="M433,1v189H1V1H433 M434,0H0v191h434V0L434,0z"/>
</g>
<rect x="129.3" y="53" class="st1" width="174.7" height="84.2"/>
<text transform="matrix(1 0 0 1 189.1807 125)" class="st2 st3 st4">A</text>
<g>
	<rect x="898.5" y="0.5" class="st0" width="433" height="190"/>
	<path d="M1331,1v189H899V1H1331 M1332,0H898v191h434V0L1332,0z"/>
</g>
<rect x="1027.3" y="53" class="st1" width="174.7" height="84.2"/>
<text transform="matrix(1 0 0 1 1087.1807 125)" class="st2 st3 st4">A</text>
<g>
	<rect x="450.5" y="0.5" class="st5" width="433" height="190"/>
	<path d="M883,1v189H451V1H883 M884,0H450v191h434V0L884,0z"/>
</g>
<rect x="579.3" y="53" class="st1" width="174.7" height="84.2"/>
<text transform="matrix(1 0 0 1 637.501 125)" class="st2 st3 st4">B</text>
<line class="st6" x1="11" y1="264.5" x2="1258" y2="264.5"/>
<line class="st7" x1="1184.9" y1="314.4" x2="1254.1" y2="265.6"/>
<line class="st7" x1="1180.9" y1="220.7" x2="1254.1" y2="263.1"/>
</svg>
