<svg id="Layer_1" data-name="Layer 1" xmlns="http://www.w3.org/2000/svg" viewBox="0 0 1339 696"><defs><style>.cls-1{fill:#fff;}.cls-2{fill:#666;}.cls-10,.cls-3{font-size:46px;font-family:AvenirNext-Regular, Avenir Next;}.cls-3{letter-spacing:0.09em;}.cls-4{letter-spacing:0.1em;}.cls-5{letter-spacing:0.08em;}.cls-6{letter-spacing:0.1em;}.cls-7{fill:#29abe2;}.cls-8{fill:#ff7bac;}.cls-9{fill:#7ac943;}.cls-10{letter-spacing:0.08em;}.cls-11{letter-spacing:0.1em;}.cls-12{letter-spacing:0.05em;}.cls-13{letter-spacing:0.07em;}</style></defs><rect class="cls-1" x="2.5" y="2.5" width="656" height="337"/><path class="cls-2" d="M672,40V372H21V40H672m5-5H16V377H677V35Z" transform="translate(-16 -35)"/><text class="cls-3" transform="translate(141.95 55.47)">E<tspan class="cls-4" x="31.28" y="0">ven </tspan><tspan class="cls-5" x="136.67" y="0">L</tspan><tspan class="cls-6" x="163.9" y="0">oudness</tspan></text><rect class="cls-7" x="50" y="116" width="562" height="39" rx="19.5"/><rect class="cls-8" x="50" y="184" width="562" height="39" rx="19.5"/><rect class="cls-9" x="50" y="252" width="562" height="39" rx="19.5"/><rect class="cls-1" x="680.5" y="2.5" width="656" height="337"/><path class="cls-2" d="M1350,40V372H699V40h651m5-5H694V377h661V35Z" transform="translate(-16 -35)"/><text class="cls-10" transform="translate(819.95 55.47)">L<tspan class="cls-11" x="27.23" y="0">oudness va</tspan><tspan class="cls-12" x="309.76" y="0">r</tspan><tspan class="cls-13" x="328.71" y="0">.</tspan><tspan class="cls-11" x="343.89" y="0" xml:space="preserve"> 1</tspan></text><rect class="cls-7" x="728" y="116" width="562" height="10" rx="5"/><rect class="cls-8" x="728" y="184" width="562" height="14" rx="7"/><rect class="cls-9" x="728" y="252" width="562" height="14" rx="7"/><rect class="cls-1" x="2.5" y="356.5" width="656" height="337"/><path class="cls-2" d="M672,394V726H21V394H672m5-5H16V731H677V389Z" transform="translate(-16 -35)"/><text class="cls-10" transform="translate(141.95 409.47)">L<tspan class="cls-11" x="27.23" y="0">oudness va</tspan><tspan class="cls-12" x="309.76" y="0">r</tspan><tspan class="cls-13" x="328.71" y="0">.</tspan><tspan class="cls-11" x="343.89" y="0" xml:space="preserve"> 2</tspan></text><rect class="cls-7" x="50" y="470" width="562" height="64" rx="24.98"/><rect class="cls-8" x="50" y="558" width="562" height="34" rx="12.71"/><rect class="cls-9" x="50" y="630" width="562" height="15" rx="7.5"/><rect class="cls-1" x="680.5" y="356.5" width="656" height="337"/><path class="cls-2" d="M1350,394V726H699V394h651m5-5H694V731h661V389Z" transform="translate(-16 -35)"/><text class="cls-10" transform="translate(819.95 409.47)">L<tspan class="cls-11" x="27.23" y="0">oudness va</tspan><tspan class="cls-12" x="309.76" y="0">r</tspan><tspan class="cls-13" x="328.71" y="0">.</tspan><tspan class="cls-11" x="343.89" y="0" xml:space="preserve"> 3</tspan></text><rect class="cls-7" x="728" y="470" width="562" height="15" rx="7.5"/><rect class="cls-8" x="728" y="498" width="562" height="73" rx="26.68"/><rect class="cls-9" x="728" y="577" width="562" height="68" rx="25.75"/></svg>