<svg id="Layer_1" data-name="Layer 1" xmlns="http://www.w3.org/2000/svg" viewBox="0 0 1345 745.77"><defs><style>.cls-1,.cls-2,.cls-3,.cls-4{fill:none;stroke-miterlimit:10;stroke-width:14px;}.cls-1{stroke:#ff931e;}.cls-2{stroke:#3fa9f5;}.cls-3{stroke:#7ac943;}.cls-4{stroke:#ff7bac;}.cls-5{font-size:48px;}.cls-14,.cls-5{font-family:AvenirNext-Regular, Avenir Next;}.cls-6{letter-spacing:-0.1em;}.cls-7{fill:#7ac943;}.cls-10,.cls-7,.cls-8,.cls-9{opacity:0.8;}.cls-8{fill:#3fa9f5;}.cls-9{fill:#ff7bac;}.cls-10{fill:#ff931e;}.cls-11{letter-spacing:-0.02em;}.cls-12{letter-spacing:-0.01em;}.cls-13{letter-spacing:-0.01em;}.cls-14{font-size:24px;}.cls-15{letter-spacing:-0.01em;}.cls-16{letter-spacing:0em;}.cls-17{letter-spacing:-0.02em;}.cls-18{opacity:0.6;}.cls-19{font-size:60px;font-family:AvenirNext-DemiBoldItalic, Avenir Next;font-weight:300;font-style:italic;letter-spacing:0.15em;}.cls-20{letter-spacing:0.19em;}.cls-21{letter-spacing:0.2em;}.cls-22{letter-spacing:0.18em;}.cls-23{letter-spacing:0.2em;}</style></defs><ellipse class="cls-1" cx="158.5" cy="172.27" rx="151.5" ry="96.5"/><ellipse class="cls-2" cx="503" cy="474.77" rx="300" ry="264"/><ellipse class="cls-3" cx="908.5" cy="199.27" rx="238.5" ry="132.5"/><ellipse class="cls-4" cx="1192.5" cy="453.77" rx="145.5" ry="76"/><path d="M107.58,157h-3.46V123h3.46Z" transform="translate(-6 -9.23)"/><path d="M119.34,134.54c.06.6.11,1.28.14,2s0,1.35,0,1.83h.09a7.39,7.39,0,0,1,3.12-3.2A9.17,9.17,0,0,1,127.3,134q4.28,0,6.41,2.54a10.09,10.09,0,0,1,2.14,6.72V157h-3.27V144.57a16.64,16.64,0,0,0-.28-3.22,6.78,6.78,0,0,0-1-2.47,4.73,4.73,0,0,0-1.87-1.61,6.74,6.74,0,0,0-3-.57,6.19,6.19,0,0,0-4.71,2.13,7.93,7.93,0,0,0-1.53,2.74,11.75,11.75,0,0,0-.58,3.91V157h-3.26V139.48c0-.61,0-1.39,0-2.35s-.08-1.83-.14-2.59Z" transform="translate(-6 -9.23)"/><path d="M148.28,125.9a2.12,2.12,0,0,1-.72,1.65,2.26,2.26,0,0,1-3.17,0,2.26,2.26,0,0,1,0-3.31,2.26,2.26,0,0,1,3.17,0A2.12,2.12,0,0,1,148.28,125.9Zm-.67,31.1h-3.27V134.54h3.27Z" transform="translate(-6 -9.23)"/><path d="M166.42,137.27h-6.33v13.11a7.41,7.41,0,0,0,.24,2.06,3,3,0,0,0,.69,1.27,2.47,2.47,0,0,0,1.08.63,5.32,5.32,0,0,0,1.35.16,5.48,5.48,0,0,0,1.41-.19,6.91,6.91,0,0,0,1.42-.53l.14,2.84a9.55,9.55,0,0,1-1.8.5,11.68,11.68,0,0,1-2,.17,8.4,8.4,0,0,1-1.92-.24,4.8,4.8,0,0,1-3.28-2.74,7,7,0,0,1-.56-3v-14h-4.65v-2.73h4.65V128.2h3.27v6.34h6.33Z" transform="translate(-6 -9.23)"/><path d="M175.49,125.9a2.12,2.12,0,0,1-.72,1.65,2.25,2.25,0,0,1-3.16,0,2.26,2.26,0,0,1,0-3.31,2.25,2.25,0,0,1,3.16,0A2.12,2.12,0,0,1,175.49,125.9Zm-.67,31.1h-3.26V134.54h3.26Z" transform="translate(-6 -9.23)"/><path d="M197.67,142.46a5.61,5.61,0,0,0-1.54-4.33,6.28,6.28,0,0,0-4.46-1.43,9.62,9.62,0,0,0-3.74.72,8.88,8.88,0,0,0-2.93,1.92l-1.83-2.16a10.84,10.84,0,0,1,3.68-2.31A13.76,13.76,0,0,1,192,134a11.31,11.31,0,0,1,3.4.5A8,8,0,0,1,198.2,136a6.87,6.87,0,0,1,1.87,2.54,8.86,8.86,0,0,1,.67,3.6V152c0,.86,0,1.76.1,2.69a17.68,17.68,0,0,0,.29,2.35H198.2c-.1-.54-.18-1.14-.24-1.78a17.13,17.13,0,0,1-.1-1.87h-.09a9.46,9.46,0,0,1-3.48,3.24,10.23,10.23,0,0,1-4.68,1,10.45,10.45,0,0,1-2.67-.36,7.72,7.72,0,0,1-2.49-1.18,6.76,6.76,0,0,1-1.88-2.12,6.39,6.39,0,0,1-.74-3.18,6.05,6.05,0,0,1,1.32-4.12,7.88,7.88,0,0,1,3.53-2.26,20.86,20.86,0,0,1,5.06-1c1.91-.14,3.88-.21,5.93-.21Zm-1,3.31c-1.34,0-2.7,0-4.06.17a17.21,17.21,0,0,0-3.69.67,6.83,6.83,0,0,0-2.71,1.46,3.26,3.26,0,0,0-1.06,2.55,4,4,0,0,0,.46,2,3.6,3.6,0,0,0,1.22,1.32,5,5,0,0,0,1.7.72,8.15,8.15,0,0,0,1.9.22,7.44,7.44,0,0,0,3.07-.6,6.6,6.6,0,0,0,2.26-1.63,7.17,7.17,0,0,0,1.39-2.38,8.37,8.37,0,0,0,.48-2.83v-1.68Z" transform="translate(-6 -9.23)"/><path d="M212.5,157h-3.26V120.71h3.26Z" transform="translate(-6 -9.23)"/><path d="M68.6,209.08a14.38,14.38,0,0,1-2.09,2.45,13.27,13.27,0,0,1-2.83,2A15.53,15.53,0,0,1,60.13,215a16.73,16.73,0,0,1-4.25.51,18.36,18.36,0,0,1-7.1-1.34,16.57,16.57,0,0,1-9.29-9.36,18.91,18.91,0,0,1-1.32-7.15,18.69,18.69,0,0,1,1.34-7.15,16.86,16.86,0,0,1,9.34-9.36,18.08,18.08,0,0,1,7-1.35,17.26,17.26,0,0,1,3.67.39,17.47,17.47,0,0,1,3.39,1.1,14.66,14.66,0,0,1,2.88,1.7A9.94,9.94,0,0,1,68,185.18l-2.88,2.11a8.67,8.67,0,0,0-1.42-1.63,9.2,9.2,0,0,0-2.09-1.44,12.52,12.52,0,0,0-2.61-1,11.48,11.48,0,0,0-3-.39A14.05,14.05,0,0,0,50,184a13.38,13.38,0,0,0-4.44,3.23A14.12,14.12,0,0,0,42.78,192a16.64,16.64,0,0,0-1,5.65,16.08,16.08,0,0,0,1,5.64A14.47,14.47,0,0,0,45.61,208a13.32,13.32,0,0,0,4.44,3.23,14.07,14.07,0,0,0,5.88,1.19,13.32,13.32,0,0,0,5.57-1.2,10.52,10.52,0,0,0,4.41-3.84Z" transform="translate(-6 -9.23)"/><path d="M96.1,203.37a12.29,12.29,0,0,1-.88,4.7,11.47,11.47,0,0,1-2.48,3.75A11.21,11.21,0,0,1,89,214.29a13.52,13.52,0,0,1-9.65,0,11.31,11.31,0,0,1-3.79-2.47A11.44,11.44,0,0,1,73,208.07a12.88,12.88,0,0,1,0-9.41,11.4,11.4,0,0,1,2.47-3.74,11.16,11.16,0,0,1,3.79-2.47,13.52,13.52,0,0,1,9.65,0,11.06,11.06,0,0,1,3.79,2.47,11.42,11.42,0,0,1,2.48,3.74A12.3,12.3,0,0,1,96.1,203.37Zm-3.45,0a10.26,10.26,0,0,0-.6-3.53A8.67,8.67,0,0,0,90.34,197,8,8,0,0,0,87.66,195a8.51,8.51,0,0,0-3.56-.72,8.29,8.29,0,0,0-3.52.72A8.13,8.13,0,0,0,77.91,197a8.82,8.82,0,0,0-1.7,2.88,10.68,10.68,0,0,0,0,7.06,8.82,8.82,0,0,0,1.7,2.88,8.07,8.07,0,0,0,2.67,1.92,8.6,8.6,0,0,0,3.52.69,8.83,8.83,0,0,0,3.56-.69,7.91,7.91,0,0,0,2.68-1.92,8.67,8.67,0,0,0,1.71-2.88A10.3,10.3,0,0,0,92.65,203.37Z" transform="translate(-6 -9.23)"/><path d="M106,192.14c.06.6.11,1.28.14,2s0,1.35,0,1.83h.1a7.39,7.39,0,0,1,3.12-3.2,9.17,9.17,0,0,1,4.56-1.22c2.85,0,5,.85,6.41,2.54a10.14,10.14,0,0,1,2.13,6.72V214.6h-3.26V202.17A16.6,16.6,0,0,0,119,199a6.77,6.77,0,0,0-1-2.47,4.76,4.76,0,0,0-1.88-1.61,6.71,6.71,0,0,0-3-.57,6.15,6.15,0,0,0-4.7,2.13,8.11,8.11,0,0,0-1.54,2.74,12,12,0,0,0-.57,3.91V214.6h-3.27V197.08c0-.61,0-1.39,0-2.35s-.08-1.83-.14-2.59Z" transform="translate(-6 -9.23)"/><path d="M147.18,197.27a6.27,6.27,0,0,0-2.38-2.13,7,7,0,0,0-3.38-.84,8.83,8.83,0,0,0-3.56.69,8.24,8.24,0,0,0-2.71,1.92,8.55,8.55,0,0,0-1.73,2.88,10.47,10.47,0,0,0-.6,3.58,10.21,10.21,0,0,0,.6,3.55,8.68,8.68,0,0,0,1.71,2.86,7.86,7.86,0,0,0,2.69,1.92,8.78,8.78,0,0,0,3.55.69,7.57,7.57,0,0,0,3.65-.81,7.48,7.48,0,0,0,2.44-2.12l2.45,1.83a10.62,10.62,0,0,1-3.53,2.83,11,11,0,0,1-5,1.06,13.22,13.22,0,0,1-5-.89,11,11,0,0,1-3.76-2.47,11.34,11.34,0,0,1-2.43-3.75,13.3,13.3,0,0,1,0-9.41,11.3,11.3,0,0,1,2.43-3.74,10.84,10.84,0,0,1,3.76-2.47,13.22,13.22,0,0,1,5-.89,11.8,11.8,0,0,1,4.58,1,9,9,0,0,1,3.77,2.91Z" transform="translate(-6 -9.23)"/><path d="M175.45,202.7v.72a8,8,0,0,1,0,.81H156.78a8.64,8.64,0,0,0,.67,3.17,7.8,7.8,0,0,0,1.73,2.59,8.17,8.17,0,0,0,2.59,1.75,7.81,7.81,0,0,0,3.21.65,8.07,8.07,0,0,0,4.4-1.17,8.8,8.8,0,0,0,2.8-2.72l2.45,1.92a12,12,0,0,1-4.44,3.65,12.33,12.33,0,0,1-5.21,1.11,12,12,0,0,1-4.63-.89,10.89,10.89,0,0,1-3.67-2.47,11.81,11.81,0,0,1-2.42-3.75,12.11,12.11,0,0,1-.89-4.7,12.69,12.69,0,0,1,.86-4.71,11.54,11.54,0,0,1,2.4-3.74,11.06,11.06,0,0,1,3.6-2.47,11.25,11.25,0,0,1,4.47-.89,11.45,11.45,0,0,1,4.65.89,9.44,9.44,0,0,1,3.36,2.4,10.16,10.16,0,0,1,2,3.53A13,13,0,0,1,175.45,202.7Zm-3.31-1.06a8.17,8.17,0,0,0-2-5.26,6.94,6.94,0,0,0-5.4-2.08,7.59,7.59,0,0,0-3,.6,8,8,0,0,0-2.45,1.63,8.29,8.29,0,0,0-1.68,2.35,7.83,7.83,0,0,0-.72,2.76Z" transform="translate(-6 -9.23)"/><path d="M185.72,226.12h-3.27v-34h3.27V196h.14a8.92,8.92,0,0,1,3.72-3.33,10.77,10.77,0,0,1,4.73-1.13,12.05,12.05,0,0,1,4.78.91,10.79,10.79,0,0,1,3.64,2.5,11.18,11.18,0,0,1,2.36,3.74,13.32,13.32,0,0,1,0,9.31,11.33,11.33,0,0,1-2.36,3.75,10.77,10.77,0,0,1-3.64,2.49,12.05,12.05,0,0,1-4.78.92,10.77,10.77,0,0,1-4.73-1.13,9.13,9.13,0,0,1-3.72-3.24h-.14Zm16.75-22.75a10.5,10.5,0,0,0-.58-3.53,8.54,8.54,0,0,0-1.65-2.88,7.73,7.73,0,0,0-2.67-1.94,9.17,9.17,0,0,0-7,0,8.47,8.47,0,0,0-2.74,1.92,8.88,8.88,0,0,0-1.8,2.88,10.16,10.16,0,0,0,0,7.15,8.42,8.42,0,0,0,8,5.45,8.89,8.89,0,0,0,3.6-.69,7.68,7.68,0,0,0,2.67-1.92,8.54,8.54,0,0,0,1.65-2.88A10.54,10.54,0,0,0,202.47,203.37Z" transform="translate(-6 -9.23)"/><path d="M223.06,194.87h-6.33V208A7.41,7.41,0,0,0,217,210a3,3,0,0,0,.69,1.27,2.47,2.47,0,0,0,1.08.63,5.32,5.32,0,0,0,1.35.16,5.54,5.54,0,0,0,1.41-.19,6.91,6.91,0,0,0,1.42-.53l.14,2.84a9.55,9.55,0,0,1-1.8.5,11.68,11.68,0,0,1-2,.17,8.27,8.27,0,0,1-1.92-.24,4.84,4.84,0,0,1-3.29-2.74,7.15,7.15,0,0,1-.55-3v-14h-4.65v-2.73h4.65V185.8h3.27v6.34h6.33Z" transform="translate(-6 -9.23)"/><path d="M232.13,183.5a2.12,2.12,0,0,1-.72,1.65,2.25,2.25,0,0,1-3.16,0,2.26,2.26,0,0,1,0-3.31,2.25,2.25,0,0,1,3.16,0A2.12,2.12,0,0,1,232.13,183.5Zm-.67,31.1H228.2V192.14h3.26Z" transform="translate(-6 -9.23)"/><path d="M262.47,203.37a12.29,12.29,0,0,1-.89,4.7,11,11,0,0,1-6.26,6.22,12.92,12.92,0,0,1-4.85.89,12.77,12.77,0,0,1-4.8-.89,11,11,0,0,1-6.26-6.22,12.88,12.88,0,0,1,0-9.41,11.24,11.24,0,0,1,2.47-3.74,11.06,11.06,0,0,1,3.79-2.47,12.77,12.77,0,0,1,4.8-.89,12.92,12.92,0,0,1,4.85.89,11.07,11.07,0,0,1,6.26,6.21A12.31,12.31,0,0,1,262.47,203.37Zm-3.46,0a10.26,10.26,0,0,0-.6-3.53,8.65,8.65,0,0,0-1.7-2.88A8,8,0,0,0,254,195a8.47,8.47,0,0,0-3.55-.72,8.34,8.34,0,0,0-3.53.72,8,8,0,0,0-2.66,1.94,8.67,8.67,0,0,0-1.71,2.88,10.68,10.68,0,0,0,0,7.06,8.67,8.67,0,0,0,1.71,2.88,7.93,7.93,0,0,0,2.66,1.92,8.65,8.65,0,0,0,3.53.69,8.78,8.78,0,0,0,3.55-.69,8,8,0,0,0,2.69-1.92,8.65,8.65,0,0,0,1.7-2.88A10.3,10.3,0,0,0,259,203.37Z" transform="translate(-6 -9.23)"/><path d="M272.41,192.14c.06.6.11,1.28.14,2s.05,1.35.05,1.83h.09a7.39,7.39,0,0,1,3.12-3.2,9.17,9.17,0,0,1,4.56-1.22q4.28,0,6.41,2.54a10.09,10.09,0,0,1,2.14,6.72V214.6h-3.27V202.17a16.64,16.64,0,0,0-.28-3.22,6.78,6.78,0,0,0-1-2.47,4.73,4.73,0,0,0-1.87-1.61,6.74,6.74,0,0,0-2.95-.57,6.19,6.19,0,0,0-4.71,2.13,7.93,7.93,0,0,0-1.53,2.74,11.75,11.75,0,0,0-.58,3.91V214.6h-3.26V197.08c0-.61,0-1.39-.05-2.35s-.08-1.83-.14-2.59Z" transform="translate(-6 -9.23)"/><text class="cls-5" transform="translate(726.37 164.77)"><tspan class="cls-6">T</tspan><tspan x="22.75" y="0">echnical Mixing</tspan></text><text class="cls-5" transform="translate(1082.44 476.77)">Mastering</text><ellipse class="cls-7" cx="398" cy="438.27" rx="150" ry="96.5"/><ellipse class="cls-8" cx="403" cy="576.27" rx="145" ry="91.5"/><ellipse class="cls-9" cx="625" cy="436.27" rx="146" ry="106.5"/><ellipse class="cls-10" cx="604.5" cy="576.77" rx="146.5" ry="88"/><path d="M306.7,415.87a6.93,6.93,0,0,1-1,1.23,6.83,6.83,0,0,1-1.42,1,7.34,7.34,0,0,1-1.77.7,8.41,8.41,0,0,1-2.13.25,9.2,9.2,0,0,1-3.55-.67,8.26,8.26,0,0,1-4.64-4.68,9.46,9.46,0,0,1-.66-3.58,9.26,9.26,0,0,1,.67-3.57,8.43,8.43,0,0,1,4.67-4.68,9,9,0,0,1,3.51-.67,8.64,8.64,0,0,1,1.84.19,8.36,8.36,0,0,1,1.69.55,7.28,7.28,0,0,1,1.44.85,5,5,0,0,1,1.08,1.12L305,405a4,4,0,0,0-.71-.82,4.78,4.78,0,0,0-1-.72,6,6,0,0,0-1.31-.5,5.7,5.7,0,0,0-1.52-.2,7,7,0,0,0-3,.6,6.71,6.71,0,0,0-2.22,1.62,6.94,6.94,0,0,0-1.39,2.35,8.47,8.47,0,0,0,0,5.65,7.15,7.15,0,0,0,1.41,2.35,6.51,6.51,0,0,0,2.22,1.62,7,7,0,0,0,2.94.6,6.65,6.65,0,0,0,2.78-.6,5.27,5.27,0,0,0,2.21-1.92Z" transform="translate(-6 -9.23)"/><path d="M320.45,413a6.07,6.07,0,0,1-.44,2.35,5.71,5.71,0,0,1-1.24,1.87,5.6,5.6,0,0,1-1.89,1.24,6.6,6.6,0,0,1-2.43.44,6.52,6.52,0,0,1-2.4-.44,5.6,5.6,0,0,1-3.13-3.11,6.52,6.52,0,0,1,0-4.71,5.6,5.6,0,0,1,3.13-3.11,6.52,6.52,0,0,1,2.4-.44,6.6,6.6,0,0,1,2.43.44,5.6,5.6,0,0,1,1.89,1.24,5.71,5.71,0,0,1,1.24,1.87A6.08,6.08,0,0,1,320.45,413Zm-1.72,0a5.14,5.14,0,0,0-.3-1.77,4.35,4.35,0,0,0-.86-1.44,3.89,3.89,0,0,0-1.34-1,4.26,4.26,0,0,0-1.78-.36,4.16,4.16,0,0,0-1.76.36,4,4,0,0,0-1.33,1,4.32,4.32,0,0,0-.85,1.44,5.34,5.34,0,0,0,0,3.53,4.32,4.32,0,0,0,.85,1.44,3.88,3.88,0,0,0,1.33,1,4.32,4.32,0,0,0,1.76.35,4.42,4.42,0,0,0,1.78-.35,3.74,3.74,0,0,0,1.34-1,4.35,4.35,0,0,0,.86-1.44A5.12,5.12,0,0,0,318.73,413Z" transform="translate(-6 -9.23)"/><path d="M327,407.72a4.26,4.26,0,0,1,2.22-.61,4.52,4.52,0,0,1,.95.1,3,3,0,0,1,1,.37,3.45,3.45,0,0,1,.86.73,4,4,0,0,1,.69,1.18,4.24,4.24,0,0,1,1.57-1.77,4.48,4.48,0,0,1,2.36-.61,4,4,0,0,1,3.21,1.27,5.07,5.07,0,0,1,1.07,3.36v6.89h-1.64v-6.21a5.43,5.43,0,0,0-.66-2.86,2.41,2.41,0,0,0-2.24-1.08,2.92,2.92,0,0,0-1.5.36,2.79,2.79,0,0,0-1,1,4,4,0,0,0-.54,1.33,6.55,6.55,0,0,0-.17,1.54v6h-1.63v-6.55a8.57,8.57,0,0,0-.12-1.49,3.08,3.08,0,0,0-.42-1.14,2,2,0,0,0-.83-.72,3.1,3.1,0,0,0-1.35-.25,2.91,2.91,0,0,0-1.16.26,3.23,3.23,0,0,0-1.06.81,4.06,4.06,0,0,0-.75,1.37,6,6,0,0,0-.29,1.95v5.76H324v-8.76c0-.3,0-.69,0-1.17s-.05-.92-.08-1.3h1.56c0,.3.06.64.07,1s0,.67,0,.91h.05A3.83,3.83,0,0,1,327,407.72Z" transform="translate(-6 -9.23)"/><path d="M346.78,424.39h-1.63v-17h1.63v1.94h.07a4.51,4.51,0,0,1,1.86-1.66,5.36,5.36,0,0,1,2.37-.57,6,6,0,0,1,2.39.46,5.32,5.32,0,0,1,1.82,1.25,5.62,5.62,0,0,1,1.18,1.87,6.65,6.65,0,0,1,0,4.65,5.62,5.62,0,0,1-1.18,1.87,5.32,5.32,0,0,1-1.82,1.25,6,6,0,0,1-2.39.46,5.49,5.49,0,0,1-2.37-.56,4.71,4.71,0,0,1-1.86-1.62h-.07ZM355.16,413a5.39,5.39,0,0,0-.29-1.77,4.28,4.28,0,0,0-.83-1.44,3.85,3.85,0,0,0-1.33-1,4.56,4.56,0,0,0-3.53,0,4.14,4.14,0,0,0-1.37,1,4.62,4.62,0,0,0-.9,1.44,5,5,0,0,0-.32,1.79,4.94,4.94,0,0,0,.32,1.78,4.35,4.35,0,0,0,.9,1.43,4.26,4.26,0,0,0,1.37.95,4.31,4.31,0,0,0,1.73.35,4.48,4.48,0,0,0,1.8-.35,3.7,3.7,0,0,0,1.33-1,4.28,4.28,0,0,0,.83-1.44A5.37,5.37,0,0,0,355.16,413Z" transform="translate(-6 -9.23)"/><path d="M371.55,413a6.26,6.26,0,0,1-.44,2.35,5.71,5.71,0,0,1-1.24,1.87,5.64,5.64,0,0,1-1.9,1.24,6.82,6.82,0,0,1-4.82,0,5.52,5.52,0,0,1-3.13-3.11,6.39,6.39,0,0,1,0-4.71,5.52,5.52,0,0,1,3.13-3.11,6.82,6.82,0,0,1,4.82,0,5.64,5.64,0,0,1,1.9,1.24,5.71,5.71,0,0,1,1.24,1.87A6.27,6.27,0,0,1,371.55,413Zm-1.73,0a5.14,5.14,0,0,0-.3-1.77,4.32,4.32,0,0,0-.85-1.44,4.08,4.08,0,0,0-1.34-1,4.26,4.26,0,0,0-1.78-.36,4.13,4.13,0,0,0-1.76.36,4.08,4.08,0,0,0-1.34,1,4.5,4.5,0,0,0-.85,1.44,5.34,5.34,0,0,0,0,3.53,4.5,4.5,0,0,0,.85,1.44,3.92,3.92,0,0,0,1.34,1,4.29,4.29,0,0,0,1.76.35,4.42,4.42,0,0,0,1.78-.35,3.92,3.92,0,0,0,1.34-1,4.32,4.32,0,0,0,.85-1.44A5.12,5.12,0,0,0,369.82,413Z" transform="translate(-6 -9.23)"/><path d="M381,410.06a2.9,2.9,0,0,0-1.09-1.14,3.23,3.23,0,0,0-1.67-.44,3.55,3.55,0,0,0-.86.1,2.11,2.11,0,0,0-.77.31,1.5,1.5,0,0,0-.54.55,1.46,1.46,0,0,0-.21.79,1.36,1.36,0,0,0,.65,1.21,6.14,6.14,0,0,0,2,.71,6.76,6.76,0,0,1,2.94,1.19,2.59,2.59,0,0,1,1,2.1,3.1,3.1,0,0,1-1.34,2.7,4,4,0,0,1-1.36.6,6.51,6.51,0,0,1-1.52.18,6.14,6.14,0,0,1-2.48-.53,4.53,4.53,0,0,1-2-1.65l1.29-1a3.7,3.7,0,0,0,3.12,1.75,4.74,4.74,0,0,0,1-.1,2.24,2.24,0,0,0,.84-.33,1.91,1.91,0,0,0,.58-.62,1.82,1.82,0,0,0,.21-.92,1.41,1.41,0,0,0-.85-1.33,11.2,11.2,0,0,0-2.46-.83c-.34-.08-.69-.18-1.07-.3a3.79,3.79,0,0,1-1-.53,2.75,2.75,0,0,1-.79-.87,2.58,2.58,0,0,1-.32-1.32,3.08,3.08,0,0,1,.34-1.48,2.91,2.91,0,0,1,.9-1,4.17,4.17,0,0,1,1.28-.59,6.15,6.15,0,0,1,1.49-.19,5.22,5.22,0,0,1,2.28.53,3.67,3.67,0,0,1,1.66,1.49Z" transform="translate(-6 -9.23)"/><path d="M387.7,403.08a1.07,1.07,0,0,1-.36.83,1.14,1.14,0,0,1-1.58,0,1.14,1.14,0,0,1,0-1.66,1.14,1.14,0,0,1,1.58,0A1.07,1.07,0,0,1,387.7,403.08Zm-.33,15.55h-1.64V407.4h1.64Z" transform="translate(-6 -9.23)"/><path d="M393.17,407.4c0,.3.06.64.08,1s0,.67,0,.91h.05a3.69,3.69,0,0,1,1.56-1.6,4.64,4.64,0,0,1,2.28-.61,4,4,0,0,1,3.2,1.27,5.07,5.07,0,0,1,1.07,3.36v6.89H399.8v-6.21a7.87,7.87,0,0,0-.15-1.61,3.36,3.36,0,0,0-.49-1.24,2.34,2.34,0,0,0-.93-.8,3.42,3.42,0,0,0-1.48-.29,3.27,3.27,0,0,0-1.26.26,3.14,3.14,0,0,0-1.09.81,3.92,3.92,0,0,0-.77,1.37,6,6,0,0,0-.29,1.95v5.76h-1.63v-8.76c0-.3,0-.69,0-1.17s0-.92-.08-1.3Z" transform="translate(-6 -9.23)"/><path d="M406.25,420.89a5.49,5.49,0,0,0,1.84,1.46,5.66,5.66,0,0,0,4.5.25,3.67,3.67,0,0,0,1.36-.94,3.83,3.83,0,0,0,.75-1.41,6,6,0,0,0,.24-1.71v-2.12h-.05a4.21,4.21,0,0,1-1.83,1.63,5.41,5.41,0,0,1-2.41.58,6.28,6.28,0,0,1-2.39-.43,5.47,5.47,0,0,1-1.83-1.19,5.33,5.33,0,0,1-1.17-1.81,6.34,6.34,0,0,1,0-4.54,5.67,5.67,0,0,1,1.17-1.84,5.46,5.46,0,0,1,1.83-1.25,5.92,5.92,0,0,1,2.39-.46,5.36,5.36,0,0,1,2.4.58,4.33,4.33,0,0,1,1.84,1.65h.05V407.4h1.63v11.14a8.13,8.13,0,0,1-.25,1.94,5,5,0,0,1-.93,1.9,5.51,5.51,0,0,1-1.86,1.44,7,7,0,0,1-3,.57,7.59,7.59,0,0,1-3-.6,7.11,7.11,0,0,1-2.42-1.66Zm.32-8a4.94,4.94,0,0,0,.28,1.68,4.32,4.32,0,0,0,.83,1.39,3.89,3.89,0,0,0,1.33.95,4.48,4.48,0,0,0,1.8.35,4.84,4.84,0,0,0,1.73-.31,4,4,0,0,0,1.37-.89,4.13,4.13,0,0,0,.9-1.38,4.68,4.68,0,0,0,.32-1.79,4.33,4.33,0,0,0-.32-1.68,4.5,4.5,0,0,0-.9-1.39,4.34,4.34,0,0,0-1.37-1,4.12,4.12,0,0,0-1.73-.36,4.32,4.32,0,0,0-1.8.36,4.06,4.06,0,0,0-1.33,1,4.32,4.32,0,0,0-.83,1.39A4.94,4.94,0,0,0,406.57,412.87Z" transform="translate(-6 -9.23)"/><path d="M426.17,419.06l-1.39-.45,7.27-17.4,1.37.48Z" transform="translate(-6 -9.23)"/><path d="M331.22,444.67a7.89,7.89,0,0,1-1,1.23,7.11,7.11,0,0,1-1.42,1,7.59,7.59,0,0,1-1.78.7,8.33,8.33,0,0,1-2.12.25,9.2,9.2,0,0,1-3.55-.67,8.31,8.31,0,0,1-4.65-4.68,9.45,9.45,0,0,1-.66-3.57,9.28,9.28,0,0,1,.68-3.58,8.25,8.25,0,0,1,1.86-2.82,8.57,8.57,0,0,1,2.8-1.86,9.08,9.08,0,0,1,3.52-.67,8.71,8.71,0,0,1,1.84.19,9,9,0,0,1,1.69.55,7.28,7.28,0,0,1,1.44.85,5,5,0,0,1,1.08,1.12l-1.44,1.06a4,4,0,0,0-.71-.82,5.32,5.32,0,0,0-1-.72,6.23,6.23,0,0,0-1.31-.5,5.72,5.72,0,0,0-1.53-.2,7,7,0,0,0-3,.6,6.71,6.71,0,0,0-2.22,1.62,6.94,6.94,0,0,0-1.39,2.35,8.37,8.37,0,0,0-.48,2.83,8.08,8.08,0,0,0,.49,2.82,7.13,7.13,0,0,0,1.4,2.35,6.71,6.71,0,0,0,2.22,1.62,7,7,0,0,0,2.94.6,6.66,6.66,0,0,0,2.79-.6,5.33,5.33,0,0,0,2.21-1.92Z" transform="translate(-6 -9.23)"/><path d="M334.08,437.5c0-.48-.05-.92-.08-1.3h1.56c0,.3.06.64.07,1s0,.67,0,.91h0a3.89,3.89,0,0,1,1.44-1.6,4,4,0,0,1,2.16-.61,4.86,4.86,0,0,1,.56,0,2.47,2.47,0,0,1,.52.09l-.22,1.56a3,3,0,0,0-.48-.09,3.78,3.78,0,0,0-.67-.05,3.35,3.35,0,0,0-1.25.24,2.64,2.64,0,0,0-1,.75,3.77,3.77,0,0,0-.72,1.32,5.78,5.78,0,0,0-.28,1.93v5.74H334.1v-8.76C334.1,438.37,334.09,438,334.08,437.5Z" transform="translate(-6 -9.23)"/><path d="M352.53,441.48v.36c0,.13,0,.26,0,.41h-9.32a4.38,4.38,0,0,0,.34,1.58,4.15,4.15,0,0,0,.86,1.3,4,4,0,0,0,1.3.87,3.93,3.93,0,0,0,1.61.33,4,4,0,0,0,2.19-.59,4.29,4.29,0,0,0,1.41-1.36l1.22,1a6.08,6.08,0,0,1-2.22,1.83,6.38,6.38,0,0,1-4.92.11,5.44,5.44,0,0,1-1.83-1.24,5.82,5.82,0,0,1-1.22-1.87,6.59,6.59,0,0,1,0-4.71,5.77,5.77,0,0,1,1.2-1.87,5.34,5.34,0,0,1,1.8-1.23,5.52,5.52,0,0,1,2.23-.45,5.66,5.66,0,0,1,2.33.45,4.79,4.79,0,0,1,1.68,1.19,5.19,5.19,0,0,1,1,1.77A6.61,6.61,0,0,1,352.53,441.48Zm-1.66-.53a4,4,0,0,0-1-2.63,3.47,3.47,0,0,0-2.7-1,3.8,3.8,0,0,0-1.51.3,4.06,4.06,0,0,0-1.22.81,4.24,4.24,0,0,0-.84,1.18,3.71,3.71,0,0,0-.36,1.38Z" transform="translate(-6 -9.23)"/><path d="M363,440.16a2.84,2.84,0,0,0-.77-2.17,3.18,3.18,0,0,0-2.23-.71,4.79,4.79,0,0,0-1.87.36,4.46,4.46,0,0,0-1.47,1l-.91-1.08a5.31,5.31,0,0,1,1.84-1.15,6.78,6.78,0,0,1,2.58-.46,5.82,5.82,0,0,1,1.7.25,4,4,0,0,1,1.39.76,3.43,3.43,0,0,1,.94,1.27,4.51,4.51,0,0,1,.34,1.8v4.92c0,.43,0,.88,0,1.35a9.69,9.69,0,0,0,.15,1.17h-1.47c0-.27-.08-.57-.12-.89s0-.63,0-.93H363a4.74,4.74,0,0,1-1.74,1.62,5.25,5.25,0,0,1-2.34.49,5.19,5.19,0,0,1-1.33-.18,3.69,3.69,0,0,1-1.25-.59,3.33,3.33,0,0,1-.94-1.06,3.12,3.12,0,0,1-.37-1.59,3,3,0,0,1,.66-2.06,4,4,0,0,1,1.76-1.13,10.24,10.24,0,0,1,2.54-.48c.95-.07,1.94-.11,3-.11Zm-.48,1.65c-.67,0-1.35,0-2,.09a9.09,9.09,0,0,0-1.85.34,3.37,3.37,0,0,0-1.35.73,1.64,1.64,0,0,0-.53,1.27,2.09,2.09,0,0,0,.23,1,1.84,1.84,0,0,0,.61.66,2.57,2.57,0,0,0,.85.36,4.33,4.33,0,0,0,.95.11,3.74,3.74,0,0,0,1.54-.3,3.32,3.32,0,0,0,1.12-.82,3.47,3.47,0,0,0,.7-1.19,4.18,4.18,0,0,0,.24-1.41v-.85Z" transform="translate(-6 -9.23)"/><path d="M373.53,437.57h-3.17v6.55a3.68,3.68,0,0,0,.12,1,1.57,1.57,0,0,0,.35.64,1.22,1.22,0,0,0,.54.31,2.41,2.41,0,0,0,.67.08,3,3,0,0,0,.71-.09,3.58,3.58,0,0,0,.71-.27l.07,1.42a4.62,4.62,0,0,1-.9.25,5.38,5.38,0,0,1-1,.09,4.2,4.2,0,0,1-1-.12,2.41,2.41,0,0,1-1.64-1.37,3.45,3.45,0,0,1-.28-1.51v-7H366.4V436.2h2.33V433h1.63v3.17h3.17Z" transform="translate(-6 -9.23)"/><path d="M378.07,431.88a1.08,1.08,0,0,1-.36.83,1.15,1.15,0,0,1-1.59,0,1.08,1.08,0,0,1-.36-.83,1.07,1.07,0,0,1,.36-.83,1.15,1.15,0,0,1,1.59,0A1.07,1.07,0,0,1,378.07,431.88Zm-.34,15.55H376.1V436.2h1.63Z" transform="translate(-6 -9.23)"/><path d="M383.54,436.2c0,.3,0,.64.07,1s0,.67,0,.91h.05a3.69,3.69,0,0,1,1.56-1.6,4.64,4.64,0,0,1,2.28-.61,4,4,0,0,1,3.21,1.27,5.07,5.07,0,0,1,1.06,3.36v6.89h-1.63v-6.22a8.66,8.66,0,0,0-.14-1.6,3.46,3.46,0,0,0-.49-1.24,2.44,2.44,0,0,0-.94-.8,3.36,3.36,0,0,0-1.48-.29,3.27,3.27,0,0,0-1.26.26,3.23,3.23,0,0,0-1.09.81,4.14,4.14,0,0,0-.77,1.36,6.1,6.1,0,0,0-.28,2v5.76h-1.64v-8.76c0-.3,0-.7,0-1.17s0-.92-.07-1.3Z" transform="translate(-6 -9.23)"/><path d="M396.62,449.69a5.55,5.55,0,0,0,1.83,1.46,5.66,5.66,0,0,0,4.5.25,3.48,3.48,0,0,0,1.36-.94,3.93,3.93,0,0,0,.76-1.41,6,6,0,0,0,.24-1.72v-2.11h-.05a4.32,4.32,0,0,1-1.84,1.64,5.5,5.5,0,0,1-2.41.57,6.28,6.28,0,0,1-2.39-.43,5.47,5.47,0,0,1-1.82-1.19,5.21,5.21,0,0,1-1.18-1.81,6.34,6.34,0,0,1,0-4.54,5.53,5.53,0,0,1,1.18-1.84,5.32,5.32,0,0,1,1.82-1.25,5.92,5.92,0,0,1,2.39-.46,5.3,5.3,0,0,1,2.4.58,4.42,4.42,0,0,1,1.85,1.65h.05V436.2h1.63v11.13a8.69,8.69,0,0,1-.25,1.95,4.91,4.91,0,0,1-.94,1.9,5.51,5.51,0,0,1-1.86,1.44,7,7,0,0,1-3.05.57,7.51,7.51,0,0,1-3-.6,7.17,7.17,0,0,1-2.43-1.65Zm.31-8a4.94,4.94,0,0,0,.29,1.68,4.15,4.15,0,0,0,.83,1.39,3.8,3.8,0,0,0,1.33.95,4.48,4.48,0,0,0,1.8.35,4.67,4.67,0,0,0,1.73-.31,4.06,4.06,0,0,0,1.36-.89,3.84,3.84,0,0,0,.9-1.38,4.68,4.68,0,0,0,.33-1.79,4.34,4.34,0,0,0-.33-1.68,4.16,4.16,0,0,0-.9-1.39,4.41,4.41,0,0,0-1.36-1,4.16,4.16,0,0,0-1.73-.36,4.32,4.32,0,0,0-1.8.36,4,4,0,0,0-1.33,1,4.15,4.15,0,0,0-.83,1.39A4.94,4.94,0,0,0,396.93,441.67Z" transform="translate(-6 -9.23)"/><text class="cls-5" transform="translate(395.48 300.4)">C<tspan class="cls-11" x="34.56" y="0">r</tspan><tspan class="cls-12" x="50.98" y="0">e</tspan><tspan class="cls-13" x="78.14" y="0">a</tspan><tspan x="103.29" y="0">ting</tspan></text><text class="cls-14" transform="translate(587.3 409.4)"><tspan class="cls-15">R</tspan><tspan class="cls-16" x="14.09" y="0">eco</tspan><tspan class="cls-17" x="54.48" y="0">r</tspan><tspan x="62.69" y="0">ding</tspan></text><text class="cls-14" transform="translate(604.73 607.4)">Editing</text><ellipse class="cls-10" cx="831.5" cy="238.77" rx="87.5" ry="39"/><ellipse class="cls-8" cx="1010.5" cy="238.77" rx="87.5" ry="39"/><text class="cls-14" transform="translate(792.73 250.4)">Editing</text><text class="cls-14" transform="translate(976.85 250.4)">Mixing</text><text class="cls-14" transform="translate(318.85 622.4)">Mixing</text><g id="Ebene_1" data-name="Ebene 1" class="cls-18"><polygon id="path2050" points="354.88 572.62 347.91 484.45 335.73 485.42 348.97 453.45 367.07 482.94 354.89 483.9 361.86 572.07 354.88 572.62"/></g><g id="Ebene_1-2" data-name="Ebene 1" class="cls-18"><polygon id="path2050-2" data-name="path2050" points="354.96 488.34 360.07 572.04 372.27 571.3 358.36 601.43 340.89 573.22 353.08 572.47 347.97 488.77 354.96 488.34"/></g><g id="Ebene_1-3" data-name="Ebene 1" class="cls-18"><polygon id="path2050-3" data-name="path2050" points="448.49 606.9 555.55 592.95 553.76 580.86 593.38 591.56 558.37 611.98 556.58 599.89 449.52 613.83 448.49 606.9"/></g><g id="Ebene_1-4" data-name="Ebene 1" class="cls-18"><polygon id="path2050-4" data-name="path2050" points="551.17 600.3 449.45 612.04 450.98 624.16 413.56 612.65 447.05 592.97 448.58 605.09 550.3 593.35 551.17 600.3"/></g><g id="Ebene_1-5" data-name="Ebene 1" class="cls-18"><polygon id="path2050-5" data-name="path2050" points="878.23 239.81 938.28 237.45 938.77 225.31 959.07 240.11 937.52 256.56 938 244.41 877.95 246.78 878.23 239.81"/></g><g id="Ebene_1-6" data-name="Ebene 1"><path id="path2050-6" data-name="path2050" d="M120,251.08c-19.71,40.72,3.69,98.46,55.91,137.37,9.41-7.36,19.42-14.49,29.89-21.28,2,22.55,11.49,44.33,29,60.77-33.12,0-66-1.15-98.41-3.61a328.72,328.72,0,0,1,24-23c-57.07-38-85.19-97.48-70-142.8Q105,254.4,120,251.08Z" transform="translate(-6 -9.23)"/></g><g id="Ebene_1-7" data-name="Ebene 1"><path id="path2050-7" data-name="path2050" d="M793,505.44c22.67,46.34,84.16,17.38,121.57-72.38a186.31,186.31,0,0,1-33.94-10.61C910.36,404.75,938.89,368,949.34,313q2.71,59.91,5.4,119.58c-5.26,2.56-13.21,3.46-22.66,2.88-31.05,102-94,144.26-128.54,112.19A304.61,304.61,0,0,1,793,505.44Z" transform="translate(-6 -9.23)"/></g><g id="Ebene_1-8" data-name="Ebene 1"><path id="path2050-8" data-name="path2050" d="M1122.47,227.16C1170,237.51,1218.06,277.7,1231,333.38a262,262,0,0,0,48.91-18.5c-12,32-35.28,59.68-67.12,77.91a366.35,366.35,0,0,0-63.46-50.16,280.5,280.5,0,0,0,52.19-3.06c-8.52-50.43-51.11-87.88-92-97.95A108.71,108.71,0,0,0,1122.47,227.16Z" transform="translate(-6 -9.23)"/></g><g id="Ebene_1-9" data-name="Ebene 1" class="cls-18"><polygon id="path2050-9" data-name="path2050" points="438.76 547.51 568.24 454.26 549.19 452.47 618.82 422.28 598.2 457.08 579.15 455.29 449.68 548.53 438.76 547.51"/></g><g id="Ebene_1-10" data-name="Ebene 1" class="cls-18"><polygon id="path2050-10" data-name="path2050" points="572.22 459.92 447.14 548.1 465.86 550.12 398.18 578.25 417.69 544.92 436.41 546.94 561.49 458.76 572.22 459.92"/></g><g id="Ebene_1-11" data-name="Ebene 1" class="cls-18"><polygon id="path2050-11" data-name="path2050" points="458.53 445.47 576.71 536.05 572.86 518.11 619 572.77 582.77 564.28 578.92 546.34 460.74 455.76 458.53 445.47"/></g><g id="Ebene_1-12" data-name="Ebene 1" class="cls-18"><polygon id="path2050-12" data-name="path2050" points="572.91 541.38 460.4 453.31 463.96 471.02 420.17 417.54 454.8 425.44 458.36 443.15 570.87 531.23 572.91 541.38"/></g><text class="cls-19" transform="translate(347.85 51.24)">P<tspan class="cls-20" x="45.66" y="0">r</tspan><tspan class="cls-21" x="77.28" y="0">oject Life </tspan><tspan class="cls-22" x="475.2" y="0">C</tspan><tspan class="cls-23" x="526.98" y="0">ycle</tspan></text></svg>