<svg id="Layer_1" data-name="Layer 1" xmlns="http://www.w3.org/2000/svg" xmlns:xlink="http://www.w3.org/1999/xlink" viewBox="0 0 759 462"><defs><style>.cls-1{fill:#fff;}.cls-2{fill:#666;}.cls-3{font-size:46px;font-family:AvenirNext-Regular, Avenir Next;letter-spacing:0.1em;}.cls-4{fill:url(#linear-gradient);}.cls-5{fill:#3fa9f5;}.cls-6{opacity:0.35;}</style><linearGradient id="linear-gradient" x1="65.54" y1="227.83" x2="671.89" y2="227.83" gradientUnits="userSpaceOnUse"><stop offset="0" stop-color="#3fa9f5"/><stop offset="0.16" stop-color="#6ab7f8"/><stop offset="0.36" stop-color="#97c5fa"/><stop offset="0.54" stop-color="#bbd0fc"/><stop offset="0.72" stop-color="#d4d8fe"/><stop offset="0.87" stop-color="#e4ddff"/><stop offset="1" stop-color="#e9dfff"/></linearGradient></defs><rect class="cls-1" x="2.5" y="2.5" width="754" height="367"/><path class="cls-2" d="M770,40V402H21V40H770m5-5H16V407H775V35Z" transform="translate(-16 -35)"/><text class="cls-3" transform="translate(146.95 55.47)">Sound Movement</text><path class="cls-4" d="M73.88,247C221.6,98.31,479.44,83.72,656.34,243.71c21.39,19.59,20.3,44.35-.69,51.27q-6.43,2.36-12.88,4.68c-21.07,6.87-49.89.55-65.13-11.07-132-102.92-303.11-74.18-382.35,29.25-9,11.84-41,11.1-73.65-2.64q-10-4.43-20-8.83C69,292.8,55.37,265.13,73.88,247Z" transform="translate(-16 -35)"/><rect class="cls-5" x="48" y="227" width="124" height="69" rx="15.17"/><image width="512" height="512" transform="translate(261 339) scale(0.27 0.24)" xlink:href="../../../../../../Downloads/listen-icon-png-14.jpg.png"/><g id="Ebene_1" data-name="Ebene 1" class="cls-6"><path id="path2050" d="M102.77,253.65c128.5-112.54,289.75-117.79,401.05-58.37q9.78-11.75,19.81-23.33c37,35,59.22,73.94,68.86,110-40.21-30.38-81.9-45.39-118.89-49.36q9.42-12,19.07-23.81C392,156.26,245.54,161.33,128.51,265Q115.6,259.37,102.77,253.65Z" transform="translate(-16 -35)"/></g></svg>