<svg id="Layer_1" data-name="Layer 1" xmlns="http://www.w3.org/2000/svg" viewBox="0 0 1339 556"><defs><style>.cls-1{fill:#fff;}.cls-2{fill:#666;}.cls-3{font-size:46px;font-family:AvenirNext-Regular, Avenir Next;letter-spacing:0.1em;}.cls-4{letter-spacing:0.08em;}.cls-5{fill:#29abe2;}.cls-6{fill:#7ac943;}.cls-7{letter-spacing:0.1em;}.cls-8{letter-spacing:0.09em;}.cls-9{letter-spacing:0.1em;}.cls-10{letter-spacing:0.08em;}.cls-11{letter-spacing:0.1em;}.cls-12{letter-spacing:0.09em;}</style></defs><rect class="cls-1" x="2.5" y="2.5" width="656" height="264"/><path class="cls-2" d="M672,40V299H21V40H672m5-5H16V304H677V35Z" transform="translate(-16 -35)"/><text class="cls-3" transform="translate(141.95 55.47)">Sudden<tspan class="cls-4" x="191.91" y="0"> </tspan><tspan x="207.18" y="0">Addition</tspan></text><rect class="cls-5" x="254" y="116" width="358" height="80" rx="22.29"/><rect class="cls-5" x="727" y="116" width="358" height="80" rx="22.29"/><rect class="cls-6" x="50" y="216" width="562" height="19" rx="9.5"/><rect class="cls-1" x="2.5" y="289.5" width="1334" height="264"/><path class="cls-2" d="M1350,327V586H21V327H1350m5-5H16V591H1355V322Z" transform="translate(-16 -35)"/><text class="cls-3" transform="translate(296.95 349.47)">Sudden<tspan class="cls-7" x="191.91" y="0"> </tspan><tspan x="208.1" y="0">Change</tspan><tspan class="cls-8" x="402.31" y="0"> </tspan><tspan class="cls-9" x="417.86" y="0">Within Sou</tspan><tspan class="cls-10" x="691.97" y="0">r</tspan><tspan class="cls-11" x="712.3" y="0">ce</tspan></text><rect class="cls-6" x="39" y="450" width="1260.95" height="18" rx="9"/><rect class="cls-6" x="179" y="390" width="328" height="139" rx="12.76"/><rect class="cls-6" x="637" y="390" width="54" height="139" rx="5.18"/><rect class="cls-6" x="906" y="390" width="286" height="139" rx="11.91"/><rect class="cls-1" x="680.5" y="2.5" width="656" height="264"/><path class="cls-2" d="M1350,40V299H699V40h651m5-5H694V304h661V35Z" transform="translate(-16 -35)"/><rect class="cls-5" x="727" y="116" width="250" height="80" rx="18.63"/><text class="cls-3" transform="translate(819.95 55.47)">Sudden <tspan class="cls-12" x="208.01" y="0">R</tspan><tspan x="239.61" y="0">emoval</tspan></text><rect class="cls-6" x="803" y="218" width="486" height="7" rx="3.5"/></svg>