<svg id="Layer_1" data-name="Layer 1" xmlns="http://www.w3.org/2000/svg" viewBox="0 0 1340 372"><defs><style>.cls-1{fill:#fff;}.cls-2{fill:#666;}.cls-3{font-size:46px;letter-spacing:0.1em;}.cls-13,.cls-14,.cls-3{font-family:AvenirNext-Regular, Avenir Next;}.cls-4{letter-spacing:0.08em;}.cls-5{letter-spacing:0.09em;}.cls-6{fill:#29abe2;}.cls-7{fill:#ed1e79;}.cls-8{fill:lime;}.cls-9{fill:blue;}.cls-10{fill:#f0f;}.cls-11{fill:#f15a24;}.cls-12{fill:none;stroke:#333;stroke-miterlimit:10;stroke-width:3px;opacity:0.48;}.cls-13,.cls-14{font-size:28px;}.cls-13,.cls-15{letter-spacing:0.1em;}.cls-14{letter-spacing:0.09em;}.cls-16{letter-spacing:0.09em;}.cls-17{letter-spacing:0.1em;}</style></defs><rect class="cls-1" x="2.5" y="2.5" width="656" height="367"/><path class="cls-2" d="M672,40V402H21V40H672m5-5H16V407H677V35Z" transform="translate(-16 -35)"/><rect class="cls-1" x="681.5" y="2.5" width="656" height="367"/><path class="cls-2" d="M1351,40V402H700V40h651m5-5H695V407h661V35Z" transform="translate(-16 -35)"/><text class="cls-3" transform="translate(221.95 55.47)">Befo<tspan class="cls-4" x="115.64" y="0">r</tspan><tspan x="135.97" y="0">e</tspan></text><text class="cls-3" transform="translate(955.95 55.47)">A<tspan class="cls-5" x="36.8" y="0">f</tspan><tspan x="54.42" y="0">ter</tspan></text><rect class="cls-6" x="41" y="109" width="211" height="39" rx="14.88"/><rect class="cls-7" x="66" y="157" width="186" height="39" rx="13.97"/><rect class="cls-8" x="53" y="205" width="66" height="39" rx="8.32"/><rect class="cls-9" x="391" y="206" width="210" height="26.84" rx="12.31"/><rect class="cls-10" x="489" y="283.16" width="98" height="26.84" rx="8.41"/><rect class="cls-11" x="391" y="244.58" width="182" height="26.84" rx="11.46"/><line class="cls-12" x1="53.5" y1="67" x2="53.5" y2="323.5"/><line class="cls-12" x1="586.5" y1="68" x2="586.5" y2="324.5"/><rect class="cls-6" x="742" y="108" width="199" height="39" rx="14.45"/><rect class="cls-7" x="742" y="156" width="199" height="39" rx="14.45"/><rect class="cls-8" x="742" y="204" width="66" height="39" rx="8.32"/><rect class="cls-9" x="1080" y="205" width="196" height="26.84" rx="11.89"/><rect class="cls-10" x="1178" y="282.16" width="98" height="26.84" rx="8.41"/><rect class="cls-11" x="1080" y="243.58" width="196" height="26.84" rx="11.89"/><line class="cls-12" x1="742.5" y1="66" x2="742.5" y2="322.5"/><line class="cls-12" x1="1275.5" y1="67" x2="1275.5" y2="323.5"/><text class="cls-13" transform="translate(58.79 283.47)">Onsets</text><text class="cls-14" transform="translate(448.79 195.47)">R<tspan class="cls-15" x="19.24" y="0">el</tspan><tspan class="cls-16" x="47.91" y="0">e</tspan><tspan class="cls-17" x="66.56" y="0">ases</tspan></text><text class="cls-14" transform="translate(1131.79 196.47)">R<tspan class="cls-15" x="19.24" y="0">el</tspan><tspan class="cls-16" x="47.91" y="0">e</tspan><tspan class="cls-17" x="66.56" y="0">ases</tspan></text><text class="cls-13" transform="translate(750.79 275.47)">Onsets</text></svg>